<svg id="Layer_1" data-name="Layer 1" xmlns="http://www.w3.org/2000/svg" width="960" height="540" viewBox="0 0 960 540"><defs><style>.cls-1{fill:#0a1944;}.cls-2{fill:#fff;}.cls-3{fill:#11bfdc;}.cls-4{fill:#dde01a;}</style></defs><title>Artboard 3 copy</title><path class="cls-1" d="M839.51,162.27a10.05,10.05,0,0,1-.63,3.9,2.78,2.78,0,0,1-1.8,1.78,3.65,3.65,0,0,1-2.7-.57,8.59,8.59,0,0,1-2.69-2.54,12.8,12.8,0,0,1-1.82-3.85,16.44,16.44,0,0,1-.66-4.57v-.93a9.9,9.9,0,0,1,.65-3.9,2.81,2.81,0,0,1,1.81-1.78,3.53,3.53,0,0,1,2.69.57,8.53,8.53,0,0,1,2.69,2.52,12.62,12.62,0,0,1,1.81,3.84,16.62,16.62,0,0,1,.65,4.61Zm-2.16-2.1a12.4,12.4,0,0,0-.78-4.67,5.33,5.33,0,0,0-2.21-2.74c-.93-.54-1.66-.47-2.18.2a6.2,6.2,0,0,0-.81,3.66v1a12.36,12.36,0,0,0,.8,4.67,5.37,5.37,0,0,0,2.21,2.76c1,.55,1.69.49,2.2-.18s.77-1.94.77-3.8Z"/><path class="cls-1" d="M847.48,173.5c-.61.61-1.47.59-2.59-.06a5.52,5.52,0,0,1-2.27-2.48,8.73,8.73,0,0,1-.77-3.83v-8l2.07,1.2v7.92a3.34,3.34,0,0,0,1.46,3.18c1,.58,1.68.49,2-.27v-8.82l2.07,1.2v12.28l-2-1.12Z"/><path class="cls-1" d="M856.86,170.35a6.72,6.72,0,0,0-.85-.58c-.94-.55-1.58-.43-1.91.35v8.4L852,177.33V165l2,1.14,0,1.41a1.36,1.36,0,0,1,2.08-.4,2.93,2.93,0,0,1,.74.58Z"/><path class="cls-1" d="M870.53,184.16l-4.8-2.78-1,3.27-2.24-1.29,4.69-13.83,1.93,1.12,4.7,19.24-2.25-1.3Zm-4.2-4.74,3.6,2.07-1.8-7.9Z"/><path class="cls-1" d="M877.8,186.06v6.14L875.64,191V174.42l4.75,2.74a8.85,8.85,0,0,1,3.3,3.35,9.05,9.05,0,0,1,1.22,4.52c0,1.62-.4,2.65-1.19,3.1s-1.92.24-3.36-.59Zm0-2.31,2.59,1.49c.76.45,1.35.54,1.75.29s.61-.82.61-1.73a5.26,5.26,0,0,0-.62-2.5,4.53,4.53,0,0,0-1.68-1.79L877.8,178Z"/><path class="cls-1" d="M889.51,199l-2.15-1.24V181.18l2.15,1.24Z"/><path class="cls-1" d="M897.56,200.26a2.37,2.37,0,0,0-.45-1.38,9.55,9.55,0,0,0-1.51-1.56,13.41,13.41,0,0,1-1.77-1.77,6,6,0,0,1-1.55-3.79,2.06,2.06,0,0,1,1-2.07,2.72,2.72,0,0,1,2.55.4,7.34,7.34,0,0,1,2.67,2.64,6.46,6.46,0,0,1,1,3.41L897.46,195a3.23,3.23,0,0,0-.44-1.58,3.12,3.12,0,0,0-1.18-1.21,1.29,1.29,0,0,0-1.11-.22c-.29.11-.43.41-.43.88a2.06,2.06,0,0,0,.4,1.21,10.67,10.67,0,0,0,1.62,1.65,14.27,14.27,0,0,1,1.91,1.95,6.59,6.59,0,0,1,1,1.79,5.09,5.09,0,0,1,.34,1.87c0,1.11-.34,1.8-1,2.09a3.12,3.12,0,0,1-2.7-.53,7.63,7.63,0,0,1-2-1.71,8.48,8.48,0,0,1-1.38-2.3,6.28,6.28,0,0,1-.5-2.34l2,1.16a3.74,3.74,0,0,0,.56,1.83,3.85,3.85,0,0,0,1.35,1.31,1.59,1.59,0,0,0,1.25.3Q897.56,200.94,897.56,200.26Z"/><path class="cls-1" d="M300.46,449.54,71.08,317.2c-5.35-3.09-4.68-8.48,1.5-12.05L561.2,23.74c6.18-3.57,15.54-4,20.89-.87L811.47,155.21c5.36,3.09,4.68,8.48-1.5,12L321.36,448.67C315.17,452.24,305.82,452.63,300.46,449.54Z"/><path class="cls-2" d="M562.57,34.69c.85-.49,1.57-.79,2.34-1.24.46-.26.63-.67-.55-1.36l.61-.35c1.19.68,1.9.58,2.36.32.73-.42,1.34-.89,2.14-1.35a3,3,0,0,1,3.4.18l.62.36-.54.32-.53-.3a1.92,1.92,0,0,0-2.3-.11c-.66.38-1.32.83-2,1.24a2.23,2.23,0,0,1-2.18.21l0,0c.55.48.4.82-.35,1.26s-1.46.77-2.16,1.18-.84.73.19,1.32l.52.31-.55.31-.62-.36C561.63,35.93,561.38,35.38,562.57,34.69Z"/><path class="cls-3" d="M575.35,53.57l1.27-.74,1.1.63-1.28.73-2.87,1.36-.57-.33Zm2.31,1.33,1.27-.74,1.11.64-1.29.73-2.87,1.35-.56-.32Z"/><path class="cls-3" d="M577,59a6,6,0,0,1,5.7-.14,1.55,1.55,0,0,1,1,1.5l-1,.12a1.23,1.23,0,0,0-.69-1.14,4.23,4.23,0,0,0-4.07.16c-1.29.74-1.39,1.67-.27,2.32a4.63,4.63,0,0,0,2.21.46l-.25.57a5.61,5.61,0,0,1-2.82-.61C575.18,61.35,575.12,60.07,577,59Z"/><path class="cls-3" d="M588.6,59.4l.83.48-2.25,1.3-1.39.74,0,0a5.28,5.28,0,0,1,2.92.41c1.16.67.9,1.43-.58,2.29l-3.5,2-.84-.48,3.38-2c1.06-.62,1.24-1.09.45-1.55a4.58,4.58,0,0,0-2.55-.3l-3.93,2.27-.83-.48Z"/><path class="cls-3" d="M587.7,66.73c1.26-.73,2.9-.5,5.65.82.74-.46,1.07-1,.12-1.56a6.37,6.37,0,0,0-2.38-.6l.32-.56a7.65,7.65,0,0,1,3,.79c1.34.77,1.07,1.67-.33,2.48l-3.46,2-.69-.4.7-.49h0a6.49,6.49,0,0,1-2.82-.59C586.85,68.08,586.69,67.31,587.7,66.73Zm3.55,2,1.46-.84c-2.27-1.1-3.38-1.19-4.12-.76s-.39.81.17,1.13A5.26,5.26,0,0,0,591.25,68.76Z"/><path class="cls-3" d="M598.55,68.17l.7.4-1.26.82h0a5.67,5.67,0,0,1,3.66.41,1.59,1.59,0,0,1,.73.69l-1,.36a2,2,0,0,0-.71-.63A5.3,5.3,0,0,0,597,70l-3.29,1.9-.84-.48Z"/><path class="cls-3" d="M599.75,73.68c1.27-.73,2.91-.49,5.66.83.74-.46,1.06-1,.12-1.57a6.42,6.42,0,0,0-2.38-.59l.32-.57a8.06,8.06,0,0,1,3,.79c1.34.77,1.07,1.68-.33,2.49l-3.46,2-.69-.4.69-.48,0,0a6.46,6.46,0,0,1-2.82-.58C598.9,75,598.74,74.26,599.75,73.68Zm3.56,2,1.46-.84c-2.27-1.1-3.38-1.19-4.12-.76s-.4.8.17,1.13A5.36,5.36,0,0,0,603.31,75.72Z"/><path class="cls-3" d="M607.13,76.38a5.94,5.94,0,0,1,5.69-.14,1.55,1.55,0,0,1,.95,1.5l-1,.12a1.26,1.26,0,0,0-.7-1.14,4.23,4.23,0,0,0-4.07.16c-1.29.74-1.38,1.67-.27,2.32a4.68,4.68,0,0,0,2.22.46l-.26.57a5.63,5.63,0,0,1-2.82-.61C605.32,78.74,605.26,77.46,607.13,76.38Z"/><path class="cls-3" d="M613.81,81l2.66-1.54-1.38-.8.72-.42,1.47.79,1.92-1,.69.4-1.8,1,2.39,1.38-.78.45-2.39-1.38-2.68,1.54c-1,.59-1.24,1.06-.3,1.6a5.18,5.18,0,0,0,1.42.53l-.52.51a7,7,0,0,1-1.87-.69C611.94,82.56,612.41,81.75,613.81,81Z"/><path class="cls-3" d="M619.09,83.26a5.83,5.83,0,0,1,5.43-.27c1.41.81,1.18,1.9-.41,2.82l-.62.31-4.13-2.38.74-.43,3.64,2.1-.48,0c1.34-.77,1.42-1.48.53-2a4.11,4.11,0,0,0-3.88.29c-1.46.84-1.38,1.75-.3,2.37a4.69,4.69,0,0,0,2,.55l-.32.54a6,6,0,0,1-2.56-.7C617.28,85.64,617.21,84.34,619.09,83.26Z"/><path class="cls-3" d="M628.7,85.56l.69.4-1.26.82h0a5.67,5.67,0,0,1,3.66.41,1.59,1.59,0,0,1,.73.69l-1,.36a2.15,2.15,0,0,0-.72-.63,5.28,5.28,0,0,0-3.62-.23l-3.3,1.9-.83-.48Z"/><path class="cls-3" d="M635.64,88.35l1.27-.74,1.1.63-1.29.73-2.87,1.36-.56-.32ZM638,89.68l1.27-.74,1.1.64-1.28.73-2.88,1.35-.56-.32Z"/><path class="cls-2" d="M640.86,93.31a2,2,0,0,1,1.8-.1c.45.26.41.71-.17,1a1.94,1.94,0,0,1-1.8.1C640.23,94.09,640.27,93.65,640.86,93.31Zm-4.16,2.4a2,2,0,0,1,1.81-.1c.45.26.4.7-.18,1a1.93,1.93,0,0,1-1.8.1C636.08,96.49,636.11,96.05,636.7,95.71Z"/><path class="cls-2" d="M656.19,98.45l2.78,1.61-.54.31-2.12-1.22-8.89,5.12,2.12,1.23-.54.31-2.79-1.6Z"/><path class="cls-2" d="M577.72,82.4c.85-.49,1.57-.79,2.34-1.24.46-.26.63-.67-.55-1.36l.6-.35c1.2.68,1.91.58,2.37.32.73-.42,1.33-.89,2.13-1.35a3,3,0,0,1,3.41.19l.62.35-.55.32-.52-.3a1.92,1.92,0,0,0-2.3-.11c-.66.38-1.32.83-2,1.24a2.24,2.24,0,0,1-2.18.21l0,0c.55.48.4.82-.35,1.26s-1.46.77-2.16,1.18-.84.73.19,1.32l.52.31-.55.31-.62-.36C576.78,83.64,576.53,83.09,577.72,82.4Z"/><path class="cls-3" d="M589.45,100.67l1.27-.74,1.11.64-1.29.73-2.87,1.36-.56-.33Zm2.32,1.34,1.26-.75,1.11.64-1.29.73L590,104l-.56-.33Z"/><path class="cls-3" d="M591.08,106.1a5.93,5.93,0,0,1,5.7-.14,1.53,1.53,0,0,1,1,1.5l-1,.11a1.24,1.24,0,0,0-.7-1.13,4.23,4.23,0,0,0-4.07.15c-1.29.74-1.38,1.68-.27,2.32a4.53,4.53,0,0,0,2.22.46l-.26.58a5.61,5.61,0,0,1-2.82-.61C589.28,108.46,589.22,107.18,591.08,106.1Z"/><path class="cls-3" d="M602.7,106.51l.83.48-2.25,1.3-1.39.74h0a5.31,5.31,0,0,1,2.92.42c1.15.66.9,1.43-.59,2.28l-3.5,2-.84-.48,3.38-2c1.07-.61,1.24-1.08.45-1.54a4.56,4.56,0,0,0-2.55-.31l-3.93,2.27-.83-.48Z"/><path class="cls-3" d="M601.8,113.83c1.26-.73,2.9-.49,5.65.83.74-.46,1.07-1,.12-1.57a6.37,6.37,0,0,0-2.38-.59l.32-.57a8,8,0,0,1,3,.79c1.34.77,1.08,1.68-.33,2.49l-3.46,2-.69-.4.7-.48,0,0a6.54,6.54,0,0,1-2.83-.58C601,115.19,600.79,114.41,601.8,113.83Zm3.55,2,1.47-.84c-2.28-1.1-3.39-1.19-4.13-.76s-.39.8.17,1.13A5.52,5.52,0,0,0,605.35,115.87Z"/><path class="cls-3" d="M612.65,115.28l.7.4-1.26.81h0a5.74,5.74,0,0,1,3.66.41,1.69,1.69,0,0,1,.73.69l-1,.37a2.15,2.15,0,0,0-.72-.63,5.19,5.19,0,0,0-3.63-.23l-3.29,1.9-.83-.48Z"/><path class="cls-3" d="M613.85,120.79c1.27-.73,2.91-.5,5.66.82.74-.45,1.07-1,.12-1.56a6.57,6.57,0,0,0-2.38-.6l.32-.56a7.65,7.65,0,0,1,3,.79c1.34.77,1.07,1.67-.33,2.48l-3.46,2-.69-.4.69-.48,0,0a6.46,6.46,0,0,1-2.82-.59C613,122.15,612.84,121.37,613.85,120.79Zm3.56,2,1.46-.85c-2.27-1.1-3.38-1.19-4.12-.76s-.39.81.17,1.13A5.37,5.37,0,0,0,617.41,122.83Z"/><path class="cls-3" d="M621.23,123.49a5.91,5.91,0,0,1,5.69-.14,1.53,1.53,0,0,1,1,1.5l-1,.11a1.24,1.24,0,0,0-.7-1.13,4.23,4.23,0,0,0-4.07.15c-1.29.74-1.38,1.68-.27,2.32a4.56,4.56,0,0,0,2.22.46l-.26.58a5.66,5.66,0,0,1-2.82-.61C619.43,125.85,619.36,124.57,621.23,123.49Z"/><path class="cls-3" d="M627.91,128.05l2.67-1.54-1.39-.8.72-.41,1.47.78,1.92-1,.7.4-1.81,1,2.39,1.38-.78.45L631.41,127l-2.68,1.55c-1,.58-1.24,1.05-.3,1.6a5.28,5.28,0,0,0,1.42.52l-.52.51a6.61,6.61,0,0,1-1.87-.68C626,129.66,626.52,128.85,627.91,128.05Z"/><path class="cls-3" d="M633.19,130.36a5.84,5.84,0,0,1,5.44-.26c1.4.81,1.17,1.89-.42,2.81a5.09,5.09,0,0,1-.62.31l-4.13-2.38.74-.43,3.64,2.1-.48,0c1.34-.77,1.43-1.48.53-2a4.08,4.08,0,0,0-3.88.29c-1.46.84-1.38,1.74-.29,2.37a4.76,4.76,0,0,0,2,.55l-.33.54a6,6,0,0,1-2.56-.71C631.38,132.75,631.31,131.45,633.19,130.36Z"/><path class="cls-3" d="M642.8,132.67l.69.4-1.25.81h0a5.7,5.7,0,0,1,3.65.41,1.64,1.64,0,0,1,.73.69l-1,.37a2.15,2.15,0,0,0-.72-.63,5.16,5.16,0,0,0-3.62-.23l-3.3,1.9-.83-.48Z"/><path class="cls-3" d="M650.16,134.64l.93.53-2.67,4-.95,1.27,0,0c.73-.46,1.51-1,2.31-1.46l3.94-2.28.81.47-7.62,4.39L646,141l2.67-4,.94-1.27,0,0c-.74.47-1.47,1-2.26,1.44l-4,2.3-.81-.47Z"/><path class="cls-3" d="M650,141.65c1.27-.72,2.91-.49,5.66.83.74-.46,1.07-1,.12-1.56a6.19,6.19,0,0,0-2.38-.6l.32-.56a7.81,7.81,0,0,1,3,.78c1.34.78,1.07,1.68-.33,2.49l-3.46,2-.69-.4.69-.49h0a6.64,6.64,0,0,1-2.82-.59C649.18,143,649,142.24,650,141.65Zm3.56,2,1.46-.84c-2.27-1.1-3.38-1.19-4.12-.76s-.39.81.17,1.13A5.26,5.26,0,0,0,653.58,143.69Z"/><path class="cls-3" d="M660,142.6l.66.38-.67.47h0a2.8,2.8,0,0,1,2,.13c.48.28.46.64,0,1.1a2.89,2.89,0,0,1,2.12.1c.68.39.47,1-.66,1.63l-4,2.33-.82-.48,4-2.29c.65-.37.82-.66.46-.87s-.81-.13-1.65,0l-4.09,2.36-.76-.44,4-2.29c.65-.38.84-.65.48-.86a2.36,2.36,0,0,0-1.67,0l-4.09,2.35-.82-.47Z"/><path class="cls-3" d="M663.33,147.75a5.84,5.84,0,0,1,5.44-.26c1.41.81,1.17,1.9-.42,2.81a5.09,5.09,0,0,1-.62.31l-4.13-2.38.75-.43,3.63,2.1-.47,0c1.33-.77,1.42-1.48.52-2a4.08,4.08,0,0,0-3.88.29c-1.46.84-1.38,1.74-.29,2.37a4.76,4.76,0,0,0,2,.55l-.33.54A6.08,6.08,0,0,1,663,151C661.53,150.14,661.45,148.84,663.33,147.75Z"/><path class="cls-3" d="M673.85,149.37l1.27-.75,1.11.64-1.29.73-2.87,1.36-.56-.33Zm2.32,1.33,1.26-.74,1.11.63-1.29.74-2.87,1.35-.56-.32Z"/><path class="cls-2" d="M679.07,154.33a2,2,0,0,1,1.8-.1c.46.26.41.71-.17,1a1.93,1.93,0,0,1-1.8.1C678.45,155.11,678.48,154.67,679.07,154.33Zm-4.15,2.4a1.93,1.93,0,0,1,1.8-.1c.45.26.41.7-.17,1a1.93,1.93,0,0,1-1.8.1C674.3,157.5,674.33,157.07,674.92,156.73Z"/><path class="cls-4" d="M685.91,156.32l1.27-.74,1.1.64L687,157l-2.87,1.35-.57-.32Zm2.31,1.34,1.27-.75,1.1.64-1.28.73-2.87,1.36-.57-.33Z"/><path class="cls-4" d="M685.86,162.72l1.12,0a1,1,0,0,0,.42,1.4,2.93,2.93,0,0,0,3.16-.26l4.28-2.47-2.76-1.59.83-.47,3.61,2.08-5.19,3a4.61,4.61,0,0,1-4.77.22A1.33,1.33,0,0,1,685.86,162.72Z"/><path class="cls-4" d="M693.37,165.11a5.67,5.67,0,0,1,5.38-.32c1.29.74,1.33,2-.56,3.1a5.68,5.68,0,0,1-5.36.31C691.55,167.46,691.5,166.19,693.37,165.11Zm4,2.29c1.3-.75,1.54-1.61.61-2.15a4,4,0,0,0-3.73.35c-1.28.74-1.52,1.6-.59,2.14A3.93,3.93,0,0,0,697.34,167.4Z"/><path class="cls-4" d="M702.56,167.15l.68.39-.88.59,0,0a5.4,5.4,0,0,1,2.93.43c1.16.67.9,1.43-.58,2.29l-3.51,2-.83-.48,3.37-1.95c1.07-.61,1.25-1.09.45-1.55a4.65,4.65,0,0,0-2.54-.3l-3.93,2.27-.84-.48Z"/><path class="cls-4" d="M709.7,176.63l1.18-.09a1.7,1.7,0,0,0,1,1.65,2.66,2.66,0,0,0,2.62.13c.81-.46.53-.89.19-1.46l-.46-.83c-.35-.56-.58-1.3.54-1.95a4.43,4.43,0,0,1,4.18.08,1.8,1.8,0,0,1,1.09,1.71L719,176a1.47,1.47,0,0,0-.91-1.34,2.42,2.42,0,0,0-2.38-.1c-.73.42-.38.93-.07,1.4l.44.8c.45.69.56,1.37-.57,2a4.71,4.71,0,0,1-4.5-.1A2.08,2.08,0,0,1,709.7,176.63Z"/><path class="cls-4" d="M720.65,177.58l.68.39-.88.59,0,0a5.42,5.42,0,0,1,2.93.43c1.15.66.9,1.43-.59,2.28l-3.5,2-.84-.48,3.38-1.94c1.07-.62,1.24-1.09.45-1.55a4.56,4.56,0,0,0-2.55-.31l-3.93,2.27-.83-.48Z"/><path class="cls-4" d="M723.51,182.5a5.67,5.67,0,0,1,5.38-.32c1.29.74,1.34,2-.56,3.1a5.66,5.66,0,0,1-5.35.31C721.69,184.85,721.64,183.58,723.51,182.5Zm4,2.29c1.3-.75,1.55-1.61.61-2.15a3.93,3.93,0,0,0-3.72.35c-1.29.74-1.53,1.6-.59,2.14A3.91,3.91,0,0,0,727.48,184.79Z"/><path class="cls-4" d="M731.85,184l.82.48L730,186.74c-.44.36-.86.68-1.33,1l0,0c.59-.27,1.2-.5,1.84-.74l3.52-1.33.83.47-2.34,2a14.5,14.5,0,0,1-1.26,1.07l0,0c.62-.26,1.16-.52,1.78-.77L737,187l.77.44L731,190.08l-1.06-.62,2.13-1.87a17.74,17.74,0,0,1,1.43-1.11l0,0c-.8.37-1.44.64-1.91.82l-3.24,1.24-1.06-.61Z"/><path class="cls-4" d="M740.17,187.62l1.26-.74,1.11.64-1.29.73-2.87,1.36-.56-.33Zm2.31,1.34,1.27-.74,1.1.63-1.28.73-2.88,1.36-.56-.33Z"/><path class="cls-2" d="M738.29,196.42a4.53,4.53,0,0,0,3.29-.44l.89-.72-.35.85a1.34,1.34,0,0,1-.83-.17c-.43-.25-.5-.62.08-.95a1.76,1.76,0,0,1,1.69-.05c.59.34.34.85-.58,1.38a6.27,6.27,0,0,1-4.55.59Z"/><path class="cls-3" d="M572.57,110.42l1.26-.75,1.11.64-1.29.73-2.87,1.36-.56-.33Zm2.31,1.33,1.26-.74,1.11.63-1.29.74-2.87,1.35-.56-.32Z"/><path class="cls-3" d="M579.78,112.77l.83.48-2.25,1.3-1.38.74,0,0a5.28,5.28,0,0,1,2.92.41c1.16.67.9,1.43-.59,2.29l-3.5,2-.83-.48,3.37-2c1.07-.62,1.25-1.09.45-1.55a4.56,4.56,0,0,0-2.54-.3L572.35,118l-.83-.48Z"/><path class="cls-3" d="M580,119.2a5.7,5.7,0,0,1,5.38-.32c1.28.74,1.33,2-.56,3.11a5.67,5.67,0,0,1-5.36.3C578.2,121.55,578.16,120.28,580,119.2Zm4,2.29c1.3-.75,1.55-1.61.62-2.15a4,4,0,0,0-3.73.36c-1.29.74-1.52,1.59-.59,2.13A3.88,3.88,0,0,0,584,121.49Z"/><path class="cls-3" d="M585.55,123.17l3.51-2,.83.48-3.38,1.94c-1,.61-1.24,1.09-.44,1.56a4.29,4.29,0,0,0,2.55.28l3.91-2.26.83.48-5.63,3.26-.7-.4.92-.61,0,0a5.06,5.06,0,0,1-2.94-.4C583.81,124.79,584.07,124,585.55,123.17Z"/><path class="cls-3" d="M590.13,127.41l1-.14a2.38,2.38,0,0,0,1.35,1.66,2.18,2.18,0,0,0,2.1.21c.43-.25.54-.54-.48-1.48s-1.1-1.56-.26-2a3.68,3.68,0,0,1,3.63.24,2.48,2.48,0,0,1,1.25,1.56l-1,.12a2,2,0,0,0-1.05-1.29,1.94,1.94,0,0,0-1.94-.18c-.48.28-.27.65.49,1.37,1.21,1.16,1.14,1.66.27,2.16a4,4,0,0,1-3.85-.28A2.87,2.87,0,0,1,590.13,127.41Z"/><path class="cls-3" d="M598.21,129.67a5.82,5.82,0,0,1,5.44-.26c1.41.81,1.18,1.89-.41,2.81a5.09,5.09,0,0,1-.62.31l-4.13-2.38.74-.43,3.64,2.1-.48,0c1.33-.77,1.42-1.48.53-2a4.12,4.12,0,0,0-3.88.3c-1.46.84-1.38,1.74-.3,2.37a5,5,0,0,0,2,.55l-.32.53a6,6,0,0,1-2.56-.7C596.41,132.06,596.33,130.75,598.21,129.67Z"/><path class="cls-3" d="M609.16,130.47l.93.53-2.67,4-.95,1.27,0,0c.73-.46,1.51-1,2.31-1.46l3.94-2.28.8.47-7.61,4.39-.92-.53,2.67-4,.94-1.27,0,0c-.74.47-1.47,1-2.26,1.44l-4,2.3-.81-.47Z"/><path class="cls-3" d="M609,137.49c1.27-.73,2.91-.5,5.66.82.74-.46,1.07-1,.12-1.56a6.37,6.37,0,0,0-2.38-.6l.32-.56a7.65,7.65,0,0,1,3,.79c1.34.77,1.07,1.67-.33,2.48l-3.46,2-.69-.4.69-.49h0a6.46,6.46,0,0,1-2.82-.59C608.18,138.84,608,138.07,609,137.49Zm3.56,2,1.46-.84c-2.27-1.1-3.38-1.19-4.12-.76s-.39.81.17,1.13A5.26,5.26,0,0,0,612.58,139.52Z"/><path class="cls-3" d="M619,138.43l.66.38-.67.47h0a2.8,2.8,0,0,1,2,.13c.48.28.45.64,0,1.1a2.85,2.85,0,0,1,2.11.1c.69.39.47,1-.65,1.63l-4,2.33-.82-.48,4-2.29c.65-.37.82-.66.46-.87s-.81-.13-1.65.05l-4.09,2.36-.76-.44,4-2.29c.65-.38.84-.65.48-.86a2.36,2.36,0,0,0-1.67,0l-4.09,2.35-.82-.47Z"/><path class="cls-3" d="M622.33,143.58a5.84,5.84,0,0,1,5.44-.26c1.4.81,1.17,1.9-.42,2.81a5.09,5.09,0,0,1-.62.31l-4.13-2.38.75-.43,3.63,2.1-.48,0c1.34-.77,1.43-1.48.53-2a4.08,4.08,0,0,0-3.88.29c-1.46.84-1.38,1.74-.29,2.37a4.76,4.76,0,0,0,2,.55l-.33.54a6,6,0,0,1-2.56-.71C620.52,146,620.45,144.67,622.33,143.58Z"/><path class="cls-3" d="M632.85,145.2l1.27-.75,1.1.64-1.28.73-2.87,1.36-.57-.33Zm2.31,1.33,1.27-.74,1.11.64-1.29.73-2.87,1.35-.56-.32Z"/><path class="cls-2" d="M638.07,150.16a2,2,0,0,1,1.8-.1c.45.26.41.71-.17,1a1.93,1.93,0,0,1-1.8.1C637.45,150.94,637.48,150.5,638.07,150.16Zm-4.15,2.4a1.93,1.93,0,0,1,1.8-.1c.45.26.41.7-.17,1a1.93,1.93,0,0,1-1.8.1C633.29,153.34,633.33,152.9,633.92,152.56Z"/><path class="cls-2" d="M647.37,151.82l2.79,1.61-.55.31-2.12-1.22-8.88,5.12,2.12,1.23-.55.31-2.78-1.6Z"/><path class="cls-4" d="M579.4,133.84l1.26-.74,1.11.64-1.29.73-2.87,1.35-.56-.32Zm2.31,1.34,1.27-.75,1.1.64-1.29.73-2.87,1.36-.56-.33Z"/><path class="cls-4" d="M579.08,140.24l1.17-.1a1.72,1.72,0,0,0,1,1.66,2.68,2.68,0,0,0,2.62.13c.81-.47.53-.89.2-1.46l-.47-.84c-.35-.55-.58-1.3.54-1.94a4.43,4.43,0,0,1,4.18.08,1.77,1.77,0,0,1,1.09,1.71l-1.07.11a1.47,1.47,0,0,0-.91-1.35,2.42,2.42,0,0,0-2.37-.1c-.74.43-.39.93-.08,1.41l.45.8c.44.69.55,1.37-.58,2a4.68,4.68,0,0,1-4.5-.09A2.09,2.09,0,0,1,579.08,140.24Z"/><path class="cls-4" d="M587.71,143.83l2.67-1.54-1.39-.8.72-.41,1.47.78,1.92-1,.7.4-1.81,1,2.39,1.38-.78.45-2.39-1.38-2.68,1.55c-1,.58-1.24,1.05-.3,1.59a4.94,4.94,0,0,0,1.43.53l-.53.51a6.93,6.93,0,0,1-1.87-.68C585.84,145.44,586.32,144.63,587.71,143.83Z"/><path class="cls-4" d="M591.74,147c1.26-.73,2.9-.49,5.66.83.73-.46,1.06-1,.12-1.57a6.46,6.46,0,0,0-2.38-.59l.32-.57a8.06,8.06,0,0,1,3,.79c1.33.77,1.07,1.68-.33,2.49l-3.46,2L594,150l.69-.48,0,0a6.61,6.61,0,0,1-2.82-.58C590.89,148.36,590.73,147.58,591.74,147Zm3.56,2,1.46-.84c-2.28-1.1-3.38-1.19-4.13-.77s-.39.81.17,1.13A5.42,5.42,0,0,0,595.3,149Z"/><path class="cls-4" d="M602.6,148.44l.69.4-1.25.82h0a5.7,5.7,0,0,1,3.65.41,1.64,1.64,0,0,1,.73.69l-1,.37a2.15,2.15,0,0,0-.72-.63,5.16,5.16,0,0,0-3.62-.23l-3.3,1.9-.83-.48Z"/><path class="cls-4" d="M610.85,150.18l.83.48-5.58,3.22,0,0,5.58-.19,1,.55-7.73.28-1.53.89-.83-.49Zm-3.39,4.12,1.13-.07-1.29,3.43-.93-.53Z"/><path class="cls-4" d="M615.57,154.71l1.27-.74,1.1.64-1.28.73-2.88,1.35-.56-.32Zm2.31,1.33,1.27-.74,1.1.64-1.28.73L616.09,158l-.56-.33Z"/><path class="cls-2" d="M613.69,163.5a4.51,4.51,0,0,0,3.3-.44l.88-.72-.35.86a1.41,1.41,0,0,1-.83-.17c-.43-.25-.49-.62.09-1a1.73,1.73,0,0,1,1.68,0c.59.34.34.85-.58,1.38a6.22,6.22,0,0,1-4.55.58Z"/><path class="cls-4" d="M562.51,143.59l1.27-.75,1.1.64-1.28.73-2.87,1.36-.57-.33Zm2.31,1.33,1.27-.74,1.1.63-1.28.73L563,146.9l-.57-.32Z"/><path class="cls-4" d="M569.91,147.75l-2.18-1.26.82-.48,5.21,3-.83.47-2.18-1.26L564,152.15l-.85-.49Z"/><path class="cls-4" d="M568.82,153.26c1.27-.72,2.91-.49,5.66.83.74-.46,1.07-1,.12-1.56a6.19,6.19,0,0,0-2.38-.6l.32-.57a8,8,0,0,1,3,.79c1.34.78,1.07,1.68-.33,2.49l-3.46,2-.69-.4.69-.48h0a6.61,6.61,0,0,1-2.82-.59C568,154.62,567.82,153.85,568.82,153.26Zm3.56,2,1.46-.84c-2.27-1.1-3.38-1.19-4.12-.76s-.39.8.17,1.13A5.26,5.26,0,0,0,572.38,155.3Z"/><path class="cls-4" d="M579.68,154.71l.69.4-1.25.82h0a5.61,5.61,0,0,1,3.66.41,1.59,1.59,0,0,1,.73.69l-1,.36a2,2,0,0,0-.72-.63,5.26,5.26,0,0,0-3.62-.23l-3.29,1.9L574,158Z"/><path class="cls-4" d="M578.31,161.61a3.49,3.49,0,0,1,2.05-.26l0,0c-.1-.25,0-.55.43-.83a3,3,0,0,1,1.63-.27l0,0c0-.36.19-.8.86-1.19a4.23,4.23,0,0,1,3.94-.06,1.86,1.86,0,0,1,.58.5l2,1.17-.78.44-1.26-.73a1.39,1.39,0,0,1-.73.9,4,4,0,0,1-3.82,0,1.63,1.63,0,0,1-.62-.6,1.76,1.76,0,0,0-1,.15c-.44.26-.28.59.36,1l1.1.63c1.26.72,1.49,1.28.54,1.83a5.12,5.12,0,0,1-4.69-.43C577.56,163,577.31,162.19,578.31,161.61Zm4.4,2.25c.53-.31.31-.61-.43-1l-.95-.55a2.43,2.43,0,0,1-.65-.48,2.45,2.45,0,0,0-1.57.18c-.59.34-.41.88.64,1.48A3.41,3.41,0,0,0,582.71,163.86Zm3.71-3.09c.79-.46.82-1.06.2-1.42a2.65,2.65,0,0,0-2.45.12c-.81.47-.82,1.06-.21,1.42A2.61,2.61,0,0,0,586.42,160.77Z"/><path class="cls-4" d="M586.91,163.7c1.26-.73,2.9-.49,5.66.83.73-.46,1.06-1,.12-1.57a6.46,6.46,0,0,0-2.38-.59l.31-.57a7.87,7.87,0,0,1,3,.79c1.33.77,1.07,1.67-.33,2.48l-3.46,2-.7-.4.7-.48,0,0a6.46,6.46,0,0,1-2.82-.59C586.06,165.06,585.9,164.28,586.91,163.7Zm3.56,2,1.46-.85c-2.28-1.09-3.38-1.18-4.13-.76s-.39.81.17,1.13A5.42,5.42,0,0,0,590.47,165.74Z"/><path class="cls-4" d="M597.77,165.14l.69.4-1.25.82h0a5.7,5.7,0,0,1,3.65.41,1.64,1.64,0,0,1,.73.69l-1,.36a2.13,2.13,0,0,0-.72-.62,5.16,5.16,0,0,0-3.62-.23l-3.3,1.9-.83-.48Z"/><path class="cls-4" d="M595.07,172.75l.93-.34a1.37,1.37,0,0,0,.36.3,3.27,3.27,0,0,0,2.53.08l.56-.16,3.38-4.56.85.48L601.75,171c-.31.4-.69.86-1,1.29l0,0,2.16-.64,4.16-1.18.8.46-8.26,2.28a5.17,5.17,0,0,1-4-.07A1.69,1.69,0,0,1,595.07,172.75Z"/><path class="cls-4" d="M606.24,173.27a5.87,5.87,0,0,1,5.44-.26c1.41.81,1.18,1.9-.41,2.81a5.09,5.09,0,0,1-.62.31l-4.13-2.38.74-.43,3.64,2.1-.48,0c1.33-.76,1.42-1.48.53-2a4.11,4.11,0,0,0-3.88.29c-1.46.84-1.38,1.75-.3,2.37a4.84,4.84,0,0,0,2,.55l-.32.54a6.13,6.13,0,0,1-2.56-.7C604.44,175.66,604.36,174.36,606.24,173.27Z"/><path class="cls-4" d="M615.33,175.28l.68.39-.88.59,0,0a5.4,5.4,0,0,1,2.93.43c1.16.67.9,1.43-.58,2.29L614,181l-.83-.48,3.38-1.95c1.06-.61,1.24-1.09.45-1.54a4.6,4.6,0,0,0-2.55-.31L610.53,179l-.84-.48Z"/><path class="cls-4" d="M622.8,178.37l1.26-.75,1.11.64-1.29.73L621,180.35l-.56-.33Zm2.31,1.33,1.26-.74,1.11.63-1.29.73-2.87,1.36-.56-.32Z"/><path class="cls-2" d="M513.66,144l2.12,1.22,8.89-5.13-2.12-1.22.54-.31,2.79,1.6-10,5.76-2.78-1.61Z"/><path class="cls-2" d="M520,148.44a4.53,4.53,0,0,0,3.29-.44l.89-.72-.36.85A1.35,1.35,0,0,1,523,148c-.43-.25-.49-.62.09-1a1.76,1.76,0,0,1,1.69,0c.59.34.33.85-.58,1.38a6.3,6.3,0,0,1-4.56.59Z"/><path class="cls-3" d="M505,149.39l1.27-.75,1.1.64-1.29.73-2.87,1.36-.56-.33Zm2.31,1.33,1.27-.74,1.1.63-1.28.74-2.88,1.35-.56-.32Z"/><path class="cls-3" d="M505.37,156.59l0,0-.7.32-.67-.38,8.26-4.77.84.48-2.25,1.3-1.14.61h0a5,5,0,0,1,2.5.45c1.32.76.9,1.82-.84,2.83a5.71,5.71,0,0,1-5.25.49A1.47,1.47,0,0,1,505.37,156.59Zm5.14.34c1.24-.72,1.66-1.42.69-2a4.34,4.34,0,0,0-2.26-.35l-2.81,1.62a1.25,1.25,0,0,0,.66,1.14A4,4,0,0,0,510.51,156.93Z"/><path class="cls-3" d="M517.09,158.47l-2.26-1.31.78-.45,3.09,1.79-5.63,3.25-.84-.48Zm2.37-1.75a1.48,1.48,0,0,1,1.41-.05c.38.22.36.56-.08.81a1.48,1.48,0,0,1-1.41.05C519,157.31,519,157,519.46,156.72Z"/><path class="cls-3" d="M522.19,160.51l.69.4-1.25.82h0a5.63,5.63,0,0,1,3.65.41,1.59,1.59,0,0,1,.73.69l-1,.36a2.06,2.06,0,0,0-.72-.63,5.26,5.26,0,0,0-3.62-.23l-3.29,1.9-.84-.48Z"/><path class="cls-3" d="M525.39,166.33l2.66-1.54-1.38-.8.72-.41,1.47.78,1.92-1,.69.4-1.81,1,2.4,1.38-.78.45-2.39-1.38-2.68,1.55c-1,.58-1.24,1.05-.3,1.59a4.88,4.88,0,0,0,1.42.53l-.52.51a6.93,6.93,0,0,1-1.87-.68C523.52,167.94,524,167.13,525.39,166.33Z"/><path class="cls-3" d="M536.35,165.65l.83.48-2.25,1.3-1.38.74,0,0a5.31,5.31,0,0,1,2.92.41c1.15.67.9,1.43-.59,2.29l-3.5,2-.84-.48,3.38-2c1.07-.61,1.24-1.09.45-1.55a4.67,4.67,0,0,0-2.55-.3l-3.93,2.27-.83-.48Z"/><path class="cls-3" d="M541.67,169.47l1.62.94c2,1.14,1.7,2.55-.71,3.94s-4.92,1.59-6.86.47l-1.67-1Zm-5.25,4.83c1.5.87,3.36.65,5.28-.46s2.23-2.14.73-3l-.72-.42-6,3.47Z"/><path class="cls-3" d="M541.48,176.46c1.26-.73,2.9-.5,5.65.82.74-.46,1.07-1,.12-1.56a6.37,6.37,0,0,0-2.38-.6l.32-.56a7.65,7.65,0,0,1,3,.79c1.34.77,1.07,1.67-.33,2.48l-3.46,2-.69-.4.7-.49h0a6.49,6.49,0,0,1-2.82-.59C540.63,177.81,540.47,177,541.48,176.46Zm3.55,2,1.46-.85c-2.27-1.1-3.38-1.19-4.12-.76s-.39.81.17,1.13A5.37,5.37,0,0,0,545,178.5Z"/><path class="cls-3" d="M549.5,180.24l2.67-1.54-1.39-.8.72-.41,1.48.78,1.92-1,.69.4-1.81,1.05,2.39,1.38-.78.44L553,179.18l-2.68,1.55c-1,.58-1.24,1.05-.29,1.6a4.75,4.75,0,0,0,1.42.52l-.53.51a6.44,6.44,0,0,1-1.86-.68C547.63,181.85,548.11,181.05,549.5,180.24Z"/><path class="cls-3" d="M554.78,182.55a5.84,5.84,0,0,1,5.44-.26c1.4.81,1.17,1.9-.42,2.81a5.09,5.09,0,0,1-.62.31L555.05,183l.75-.43,3.63,2.1-.47,0c1.33-.77,1.42-1.48.52-2a4.08,4.08,0,0,0-3.88.29c-1.46.84-1.38,1.74-.29,2.37a4.76,4.76,0,0,0,2,.55l-.33.54a6.08,6.08,0,0,1-2.56-.71C553,184.94,552.9,183.64,554.78,182.55Z"/><path class="cls-3" d="M565.31,184.17l1.26-.75,1.11.64-1.29.73-2.87,1.36-.56-.33Zm2.31,1.33,1.26-.74,1.11.64-1.29.73-2.87,1.35-.56-.32Z"/><path class="cls-2" d="M570.52,189.13a2,2,0,0,1,1.8-.1c.46.26.41.71-.17,1a1.93,1.93,0,0,1-1.8.1C569.9,189.91,569.93,189.47,570.52,189.13Zm-4.15,2.4a1.93,1.93,0,0,1,1.8-.1c.45.26.41.7-.17,1a1.93,1.93,0,0,1-1.8.1C565.75,192.31,565.78,191.87,566.37,191.53Z"/><path class="cls-4" d="M577.36,191.12l1.27-.74,1.1.64-1.28.73-2.87,1.35-.57-.32Zm2.31,1.34,1.27-.75,1.1.64-1.28.73-2.87,1.36-.57-.33Z"/><path class="cls-4" d="M576.68,197.8c4.39,0,6.87-.09,8.1-.8.85-.49,1-1.09.06-1.63a4.71,4.71,0,0,0-2.42-.38l.06-.59a5.81,5.81,0,0,1,3.24.57c1.29.74,1.22,1.71-.09,2.46s-4,.91-7.54,1c.44.21.88.43,1.26.65l2.1,1.21-.83.48-4.51-2.6Z"/><path class="cls-4" d="M584,200.48a5.11,5.11,0,0,1,3.35-.34l0,0a1.29,1.29,0,0,1,.75-1.56,4.08,4.08,0,0,1,3.88,0c1.26.72,1.17,1.62,0,2.28a5.15,5.15,0,0,1-2.74.46l0,0c.29.64.38,1.22-.67,1.83a4.41,4.41,0,0,1-4.28-.19C582.86,202.18,582.81,201.16,584,200.48Zm3.84,2.24c1-.59.39-1.26-.29-2.15a4.29,4.29,0,0,0-2.7.3c-.81.46-.77,1.17.21,1.74A2.8,2.8,0,0,0,587.82,202.72Zm3.44-2.23c.72-.41.85-1,0-1.49a2.44,2.44,0,0,0-2.37,0c-.89.5-.52,1.14.08,1.89A4.1,4.1,0,0,0,591.26,200.49Z"/><path class="cls-4" d="M588.92,204.47l1-.12a1.6,1.6,0,0,0,1,1.56,3,3,0,0,0,2.87.11c.89-.51.84-1.22-.84-2.19l.73-.42c1.52.87,2.7.86,3.48.41s.63-1-.15-1.42a4.7,4.7,0,0,0-2.32-.48l.16-.61a6.14,6.14,0,0,1,3,.65c1.21.7,1.44,1.62.24,2.31a4.23,4.23,0,0,1-3.13.23l0,0a1.13,1.13,0,0,1-.29,2,4.66,4.66,0,0,1-4.44-.12C589.08,205.77,588.84,205.05,588.92,204.47Z"/><path class="cls-4" d="M603.61,205.21l1,.55-5.39,5.68-.9-.53,3.11-3.1c.62-.62,1.23-1.23,1.91-1.86l0,0c-1.09.39-2.14.75-3.22,1.1l-5.4,1.79-.86-.5Zm-5.56,2,3,1.74-.79.46-3-1.75Z"/><path class="cls-4" d="M604,209.8c2.45-1.41,5.18-1.57,6.9-.57a1.46,1.46,0,0,1,.88,1.57l-1.1.08a1.05,1.05,0,0,0-.64-1.16c-1.25-.72-3.25-.52-5.14.57s-2.28,2.27-1,3a4,4,0,0,0,2.31.37l-.11.62a5.27,5.27,0,0,1-3.14-.54C601.25,212.79,601.47,211.23,604,209.8Z"/><path class="cls-4" d="M613.53,212l1.27-.74,1.1.64-1.28.73L611.75,214l-.57-.32Zm2.31,1.33,1.27-.74,1.11.64-1.29.73-2.87,1.36-.57-.33Z"/><path class="cls-2" d="M611.65,220.78a4.5,4.5,0,0,0,3.3-.44l.89-.72-.36.86a1.41,1.41,0,0,1-.83-.17c-.43-.25-.49-.62.09-1a1.73,1.73,0,0,1,1.68,0c.6.34.34.85-.58,1.38a6.21,6.21,0,0,1-4.55.58Z"/><path class="cls-3" d="M488.13,159.13l1.27-.74,1.1.63-1.28.74-2.88,1.35-.56-.32Zm2.31,1.33,1.27-.74,1.1.64-1.28.73-2.88,1.35-.56-.32Z"/><path class="cls-3" d="M493.24,163.3l.7.4-1.26.81,0,0a5.68,5.68,0,0,1,3.66.4,1.69,1.69,0,0,1,.73.69l-1,.37a2.15,2.15,0,0,0-.72-.63,5.22,5.22,0,0,0-3.62-.23l-3.3,1.9-.83-.48Z"/><path class="cls-3" d="M495.69,168a5.82,5.82,0,0,1,5.44-.26c1.41.81,1.18,1.89-.41,2.81a5.09,5.09,0,0,1-.62.31L496,168.43l.74-.43,3.64,2.1-.48,0c1.33-.77,1.42-1.48.53-2a4.11,4.11,0,0,0-3.88.29c-1.47.85-1.38,1.75-.3,2.38a4.91,4.91,0,0,0,2,.55l-.32.53a6.07,6.07,0,0,1-2.57-.7C493.89,170.33,493.81,169,495.69,168Z"/><path class="cls-3" d="M497.9,173.68a3.51,3.51,0,0,1,2.06-.26l0,0c-.1-.24-.05-.55.43-.82a3,3,0,0,1,1.63-.27l.05,0c0-.36.19-.8.86-1.19a4.2,4.2,0,0,1,3.94-.06,1.64,1.64,0,0,1,.58.5l2,1.16-.78.45-1.26-.73a1.37,1.37,0,0,1-.73.89,4,4,0,0,1-3.82,0,1.68,1.68,0,0,1-.62-.59,1.76,1.76,0,0,0-1,.15c-.44.25-.28.59.37,1l1.09.63c1.26.73,1.49,1.29.54,1.84a5.12,5.12,0,0,1-4.69-.43C497.16,175.06,496.9,174.26,497.9,173.68Zm4.4,2.25c.54-.31.31-.61-.43-1l-.95-.55a2.61,2.61,0,0,1-.65-.49,2.51,2.51,0,0,0-1.57.19c-.59.34-.41.87.64,1.47A3.38,3.38,0,0,0,502.3,175.93Zm3.71-3.1c.79-.45.82-1.05.2-1.41a2.65,2.65,0,0,0-2.45.12c-.81.46-.82,1.06-.21,1.41A2.61,2.61,0,0,0,506,172.83Z"/><path class="cls-3" d="M512.26,175.17,510,173.86l.78-.45,3.09,1.79-5.64,3.25-.83-.48Zm2.37-1.75a1.48,1.48,0,0,1,1.41,0c.38.22.36.56-.08.81a1.48,1.48,0,0,1-1.41,0C514.17,174,514.18,173.68,514.63,173.42Z"/><path class="cls-3" d="M513.67,178.35a5.72,5.72,0,0,1,5.39-.32c1.28.74,1.33,2-.56,3.1a5.68,5.68,0,0,1-5.36.31C511.85,180.7,511.81,179.43,513.67,178.35Zm4,2.29c1.3-.75,1.55-1.61.61-2.15a3.93,3.93,0,0,0-3.72.35c-1.29.75-1.52,1.6-.59,2.14A3.91,3.91,0,0,0,517.64,180.64Z"/><path class="cls-3" d="M522.87,180.39l.68.39-.88.59,0,0a5.44,5.44,0,0,1,2.93.43c1.15.67.9,1.43-.59,2.29l-3.5,2-.84-.48,3.38-2c1.07-.61,1.24-1.09.45-1.54a4.56,4.56,0,0,0-2.55-.31l-3.93,2.27-.83-.48Z"/><path class="cls-3" d="M530.33,183.48l1.27-.75,1.1.64-1.28.73-2.88,1.36-.56-.33Zm2.31,1.33,1.27-.74,1.1.63-1.28.73-2.87,1.36-.57-.32Z"/><path class="cls-2" d="M535.55,188.44a2,2,0,0,1,1.8-.1c.45.26.41.71-.17,1a1.93,1.93,0,0,1-1.8.1C534.93,189.22,535,188.78,535.55,188.44Zm-4.15,2.4a1.93,1.93,0,0,1,1.8-.1c.45.26.4.7-.18,1a1.91,1.91,0,0,1-1.79.1C530.77,191.61,530.8,191.18,531.4,190.84Z"/><path class="cls-4" d="M542.39,190.43l1.26-.74,1.11.64-1.29.73-2.87,1.35-.56-.32Zm2.31,1.33L546,191l1.1.64-1.29.73-2.87,1.36-.56-.33Z"/><path class="cls-4" d="M548.13,192.67l.94.55-4.29,3c-.58.41-.91.64-1.64,1.1h0c.88-.36,1.32-.54,2.08-.82l3.47-1.26.8.46-2.2,2c-.49.45-.8.69-1.43,1.2l0,0c.79-.41,1.18-.61,1.87-.94l5.25-2.5.91.53-8.59,3.84-1-.61,2.42-2.13a14.53,14.53,0,0,1,1.12-.93l0,0c-.53.23-1,.45-1.6.66l-3.7,1.39-1-.59Z"/><path class="cls-4" d="M550,199.25a5.84,5.84,0,0,1,5.44-.26c1.4.81,1.17,1.89-.42,2.81a5.09,5.09,0,0,1-.62.31l-4.13-2.38.75-.43,3.63,2.1-.47,0c1.33-.77,1.42-1.48.52-2a4.08,4.08,0,0,0-3.88.29c-1.46.84-1.38,1.74-.29,2.37a4.76,4.76,0,0,0,2,.55l-.33.54a6.08,6.08,0,0,1-2.56-.71C548.15,201.64,548.07,200.34,550,199.25Z"/><path class="cls-4" d="M553.92,204l1-.15a2.39,2.39,0,0,0,1.35,1.67,2.17,2.17,0,0,0,2.1.2c.43-.24.54-.53-.47-1.47s-1.11-1.57-.26-2.06a3.71,3.71,0,0,1,3.63.25,2.5,2.5,0,0,1,1.25,1.55l-1,.13a2,2,0,0,0-1-1.29,1.89,1.89,0,0,0-1.93-.18c-.49.28-.28.64.48,1.36,1.21,1.17,1.14,1.67.27,2.17a4,4,0,0,1-3.85-.28A3,3,0,0,1,553.92,204Z"/><path class="cls-4" d="M562.76,207.38l2.66-1.54L564,205l.72-.42,1.47.78,1.92-1,.69.4L567,205.87l2.4,1.38-.78.45-2.39-1.38-2.68,1.54c-1,.59-1.24,1.06-.3,1.6a4.85,4.85,0,0,0,1.42.52l-.52.52a6.84,6.84,0,0,1-1.87-.69C560.89,209,561.36,208.18,562.76,207.38Z"/><path class="cls-4" d="M568,209.69a5.85,5.85,0,0,1,5.44-.27c1.41.81,1.18,1.9-.41,2.82-.22.12-.45.23-.62.31l-4.13-2.38.74-.43,3.64,2.1-.48,0c1.34-.77,1.42-1.48.53-2a4.11,4.11,0,0,0-3.88.29c-1.46.84-1.38,1.75-.3,2.37a4.69,4.69,0,0,0,2,.55l-.32.54a6.17,6.17,0,0,1-2.56-.7C566.23,212.07,566.16,210.77,568,209.69Z"/><path class="cls-4" d="M577.64,212l.7.4-1.26.82h0a5.61,5.61,0,0,1,3.66.41,1.59,1.59,0,0,1,.73.69l-1,.36a2.15,2.15,0,0,0-.72-.63,5.28,5.28,0,0,0-3.62-.23l-3.3,1.9-.83-.48Z"/><path class="cls-4" d="M580,216.61a5.67,5.67,0,0,1,5.38-.32c1.29.74,1.33,2-.56,3.1a5.68,5.68,0,0,1-5.36.31C578.17,219,578.12,217.69,580,216.61Zm4,2.29c1.3-.75,1.54-1.61.61-2.15a3.94,3.94,0,0,0-3.73.35c-1.29.74-1.52,1.6-.59,2.14A3.93,3.93,0,0,0,584,218.9Z"/><path class="cls-4" d="M584.06,221.34l1-.15a2.38,2.38,0,0,0,1.36,1.67,2.15,2.15,0,0,0,2.09.2c.43-.24.54-.53-.47-1.47s-1.11-1.57-.26-2.06a3.71,3.71,0,0,1,3.63.25,2.5,2.5,0,0,1,1.25,1.55l-1,.13a2,2,0,0,0-1-1.29,1.89,1.89,0,0,0-1.93-.18c-.49.28-.28.64.49,1.36,1.21,1.17,1.14,1.67.26,2.17a4,4,0,0,1-3.85-.28A3,3,0,0,1,584.06,221.34Z"/><path class="cls-4" d="M596.65,221.73l1.26-.74,1.11.64-1.29.73-2.87,1.36-.56-.33Zm2.31,1.34,1.26-.75,1.11.64-1.29.73-2.87,1.36-.56-.33Z"/><path class="cls-2" d="M594.77,230.53a4.53,4.53,0,0,0,3.29-.44l.89-.72-.36.85a1.34,1.34,0,0,1-.83-.17c-.43-.25-.49-.62.09-1a1.76,1.76,0,0,1,1.69,0c.59.34.33.85-.58,1.38a6.3,6.3,0,0,1-4.56.59Z"/><path class="cls-3" d="M471.24,168.87l1.27-.74,1.11.64-1.29.73-2.87,1.35-.56-.32Zm2.32,1.33,1.26-.74,1.11.64-1.29.73-2.87,1.36-.56-.33Z"/><path class="cls-3" d="M473.53,175.38l2.66-1.54-1.38-.8.72-.41,1.47.78,1.92-1,.69.4-1.81,1,2.4,1.38-.78.45L477,174.32l-2.68,1.55c-1,.58-1.24,1-.3,1.6a5.16,5.16,0,0,0,1.42.52l-.52.51a6.5,6.5,0,0,1-1.87-.68C471.66,177,472.13,176.19,473.53,175.38Z"/><path class="cls-3" d="M477.56,178.55c1.26-.73,2.9-.49,5.66.83.73-.46,1.06-1,.11-1.57a6.37,6.37,0,0,0-2.38-.59l.32-.57a8,8,0,0,1,3,.79c1.34.77,1.08,1.68-.33,2.49l-3.45,2-.7-.4.7-.48,0,0a6.54,6.54,0,0,1-2.83-.58C476.71,179.91,476.55,179.13,477.56,178.55Zm3.55,2,1.47-.84c-2.28-1.1-3.39-1.19-4.13-.76s-.39.8.17,1.13A5.55,5.55,0,0,0,481.11,180.59Z"/><path class="cls-3" d="M486.74,182.16l1-2.55.92.53-.46,1.15a7.53,7.53,0,0,0-.38.88l0,0,1.52-.23,1.94-.29.88.51-4.52.62-1,2.72-.93-.54.46-1.23c.1-.31.26-.66.37-1l0,0-1.63.25-2.09.28-.89-.51Z"/><path class="cls-3" d="M489.13,186l1.63.95,6-3.44-1.64-.95.82-.47,4.12,2.37-.82.48-1.64-1-6,3.44,1.64,1-.83.47-4.12-2.37Z"/><path class="cls-3" d="M496.79,188.09a5.67,5.67,0,0,1,5.18-.43,1.3,1.3,0,0,1,.75,1.26h0l1-.62,2.17-1.25.83.48-8.26,4.76-.68-.39.67-.47,0,0A4.87,4.87,0,0,1,496,191C494.69,190.28,494.91,189.18,496.79,188.09Zm2.35,2.86,2.81-1.62a1.1,1.1,0,0,0-.62-1.11,4,4,0,0,0-3.68.36c-1.34.78-1.6,1.55-.71,2.07A4.07,4.07,0,0,0,499.14,191Z"/><path class="cls-3" d="M507.42,189.74l1.26-.74,1.11.64-1.29.73-2.87,1.35-.56-.32Zm2.31,1.33,1.26-.74,1.11.64-1.29.73-2.87,1.35-.56-.32Z"/><path class="cls-2" d="M512.63,194.7a2,2,0,0,1,1.8-.09c.46.26.41.7-.17,1a1.91,1.91,0,0,1-1.8.1C512,195.48,512,195.05,512.63,194.7Zm-4.15,2.4a2,2,0,0,1,1.8-.1c.45.26.41.71-.17,1a1.93,1.93,0,0,1-1.8.1C507.86,197.88,507.89,197.44,508.48,197.1Z"/><path class="cls-4" d="M519.47,196.7l1.27-.75,1.1.64-1.28.73-2.87,1.36-.57-.33Zm2.31,1.33,1.27-.74,1.1.63-1.28.74L520,200l-.56-.32Z"/><path class="cls-4" d="M519.27,203.38l1.84,1.06,5.43-3.13-1.43-.83.62-.36a8.19,8.19,0,0,0,2.2.64l.62.36-6.6,3.8,1.67,1-.8.46-4.35-2.51Z"/><path class="cls-4" d="M524.82,206.85c4.39,0,6.87-.09,8.1-.8.85-.49,1-1.09.05-1.63a4.65,4.65,0,0,0-2.41-.38l.06-.59a5.9,5.9,0,0,1,3.24.57c1.29.74,1.22,1.71-.09,2.47s-4,.9-7.54.95c.44.21.88.43,1.26.65l2.1,1.22-.83.47-4.51-2.6Z"/><path class="cls-4" d="M531,210l1-.12a1.62,1.62,0,0,0,1,1.57,3,3,0,0,0,2.88.1c.88-.51.83-1.22-.85-2.19l.73-.42c1.52.88,2.7.86,3.48.41s.63-1-.15-1.42a4.79,4.79,0,0,0-2.32-.48l.16-.6a6.14,6.14,0,0,1,3,.64c1.21.7,1.44,1.62.24,2.31a4.18,4.18,0,0,1-3.13.23l0,0a1.13,1.13,0,0,1-.29,2,4.72,4.72,0,0,1-4.44-.12C531.19,211.34,531,210.63,531,210Z"/><path class="cls-4" d="M544.37,212.91c.41-.23.93-.51,1.36-.73l-.05,0-1.73.25-4.24.44,4.16,2.4-.78.45L538,212.76l.64-.37,7.92-.88.89.52-7.4,4.27-.79-.46Z"/><path class="cls-4" d="M543,217l1.05-.13a1.58,1.58,0,0,0,1,1.53,3.48,3.48,0,0,0,3.3,0c1-.59,1-1.29,0-1.84a4.33,4.33,0,0,0-1.75-.5l-.12-.44,3.77-1.93,3.63,2.09-.83.48-2.9-1.67-2.35,1.16a4.54,4.54,0,0,1,1.49.51c1.22.71,1.48,1.69-.12,2.61a5.21,5.21,0,0,1-4.88.08C543.2,218.27,543,217.59,543,217Z"/><path class="cls-4" d="M551.83,219.14c3-1.71,5.4-1.64,6.8-.83a1.62,1.62,0,0,1,1,1.49l-1.06.08a1.21,1.21,0,0,0-.69-1.08c-1-.6-2.79-.64-5.27.79-1.82,1-2.2,2-1.14,2.58a3.16,3.16,0,0,0,3-.16c1-.58,1.1-1.17.21-1.68a4.71,4.71,0,0,0-2.72-.37l.73-.45a5.6,5.6,0,0,1,2.86.49c1.19.68,1.24,1.59-.28,2.47a4.9,4.9,0,0,1-4.52.14C549.32,221.8,549.45,220.51,551.83,219.14Z"/><path class="cls-4" d="M564.62,222.89l-3.69-2.13.84-.48,4.64,2.68-.59.34a19.73,19.73,0,0,0-9,2.65l-.88-.5A21,21,0,0,1,564.62,222.89Z"/><path class="cls-4" d="M562.26,226.93a5.06,5.06,0,0,1,3.35-.35l0,0a1.3,1.3,0,0,1,.75-1.56,4.07,4.07,0,0,1,3.89,0c1.25.72,1.16,1.62,0,2.29a5.21,5.21,0,0,1-2.73.45l-.05,0c.3.64.39,1.22-.67,1.83a4.39,4.39,0,0,1-4.27-.19C561.14,228.62,561.09,227.6,562.26,226.93Zm3.84,2.24c1-.59.39-1.26-.29-2.15a4.23,4.23,0,0,0-2.7.29c-.81.47-.77,1.17.22,1.74A2.79,2.79,0,0,0,566.1,229.17Zm3.44-2.23c.72-.42.85-1,0-1.5a2.46,2.46,0,0,0-2.38,0c-.88.51-.52,1.14.09,1.89A4.18,4.18,0,0,0,569.54,226.94Z"/><path class="cls-4" d="M567.15,231.19l1.07-.08a1.17,1.17,0,0,0,.69,1.07c1,.6,2.8.64,5.27-.79,1.82-1,2.18-2,1.13-2.57a3.13,3.13,0,0,0-3,.14c-1,.59-1.08,1.18-.2,1.69a4.75,4.75,0,0,0,2.71.36l-.72.46a5.51,5.51,0,0,1-2.87-.49c-1.19-.69-1.22-1.59.3-2.47a4.86,4.86,0,0,1,4.5-.14c1.4.8,1.28,2.1-1.1,3.47-3,1.72-5.41,1.63-6.8.83A1.64,1.64,0,0,1,567.15,231.19Z"/><path class="cls-4" d="M579.76,231.48l1.26-.75,1.11.64-1.29.73L578,233.46l-.56-.33Zm2.31,1.33,1.27-.74,1.1.63-1.28.74-2.88,1.35-.56-.32Z"/><path class="cls-2" d="M423.17,169.75l.52.3a1.93,1.93,0,0,0,2.31.11c.71-.4,1.25-.79,2-1.24a2.21,2.21,0,0,1,2.17-.21l0,0c-.55-.48-.39-.81.36-1.25s1.5-.79,2.16-1.17.83-.75-.2-1.34l-.51-.29.55-.32.61.36c1.26.73,1.5,1.26.3,2-.8.46-1.59.82-2.32,1.24-.46.26-.63.67.55,1.36l-.6.35c-1.2-.67-1.91-.58-2.37-.32-.78.45-1.3.86-2.15,1.35a3,3,0,0,1-3.39-.18l-.61-.35Z"/><path class="cls-2" d="M429.53,174.17a4.53,4.53,0,0,0,3.29-.44l.89-.72-.35.85a1.34,1.34,0,0,1-.83-.17c-.44-.25-.5-.62.08-.95a1.76,1.76,0,0,1,1.69-.05c.59.34.34.85-.58,1.38a6.27,6.27,0,0,1-4.55.59Z"/><path class="cls-2" d="M408.85,179.82c.85-.48,1.56-.78,2.34-1.23.45-.26.62-.67-.55-1.36l.6-.35c1.2.68,1.91.58,2.36.32.73-.42,1.34-.89,2.14-1.35a3,3,0,0,1,3.4.18l.63.36-.55.32-.52-.31a1.93,1.93,0,0,0-2.3-.11c-.66.39-1.32.84-2,1.25a2.24,2.24,0,0,1-2.18.2l-.05,0c.56.48.41.82-.35,1.26s-1.45.76-2.16,1.17-.83.74.19,1.33l.53.3-.55.32-.62-.36C407.91,181.06,407.66,180.51,408.85,179.82Z"/><path class="cls-3" d="M420.58,198.1l1.27-.74,1.1.63-1.28.74-2.87,1.35-.57-.32Zm2.31,1.33,1.27-.74,1.11.64-1.29.73-2.87,1.35-.56-.32Z"/><path class="cls-3" d="M425.17,202l.69.39-.65.46h0a5.34,5.34,0,0,1,2.54.48c1.32.76.9,1.82-.85,2.83a5.69,5.69,0,0,1-5.26.47,1.42,1.42,0,0,1-.73-1.26h0l-1,.63-1.9,1.1-.83-.48Zm.9,3.67c1.24-.71,1.67-1.42.69-2a4.36,4.36,0,0,0-2.26-.34l-2.81,1.62a1.26,1.26,0,0,0,.65,1.12A4,4,0,0,0,426.07,205.64Z"/><path class="cls-3" d="M426.9,207.78c1.26-.73,2.9-.49,5.65.83.74-.46,1.07-1,.12-1.57a6.37,6.37,0,0,0-2.38-.59l.32-.57a7.83,7.83,0,0,1,3,.79c1.34.77,1.07,1.67-.33,2.48l-3.46,2-.69-.4.7-.48,0,0a6.54,6.54,0,0,1-2.83-.59C426.05,209.14,425.89,208.36,426.9,207.78Zm3.55,2,1.47-.85c-2.28-1.09-3.39-1.18-4.13-.76s-.39.81.17,1.13A5.37,5.37,0,0,0,430.45,209.82Z"/><path class="cls-3" d="M437.75,209.22l.7.4-1.26.82h0a5.74,5.74,0,0,1,3.66.41,1.69,1.69,0,0,1,.73.69l-1,.36a2.13,2.13,0,0,0-.72-.62,5.19,5.19,0,0,0-3.63-.23L433,213l-.83-.48Z"/><path class="cls-3" d="M440.2,213.87a5.87,5.87,0,0,1,5.44-.26c1.41.81,1.17,1.9-.41,2.82l-.63.31-4.12-2.39.74-.42,3.64,2.09-.48,0c1.33-.77,1.42-1.48.53-2a4.13,4.13,0,0,0-3.89.29c-1.46.84-1.38,1.75-.29,2.37a4.62,4.62,0,0,0,2,.55l-.32.54a6.21,6.21,0,0,1-2.57-.7C438.4,216.26,438.32,215,440.2,213.87Z"/><path class="cls-3" d="M449.29,215.88l.68.39-.88.59,0,0a5.4,5.4,0,0,1,2.93.43c1.15.66.9,1.43-.59,2.28l-3.5,2-.83-.48,3.37-1.94c1.07-.62,1.25-1.09.45-1.55a4.54,4.54,0,0,0-2.54-.31l-3.94,2.27-.83-.48Z"/><path class="cls-3" d="M453,222l2.67-1.54-1.39-.8.72-.42,1.47.79,1.92-1,.7.4-1.81,1,2.39,1.38-.78.45-2.39-1.38-2.68,1.55c-1,.58-1.24,1-.3,1.59a5.18,5.18,0,0,0,1.42.53l-.52.51a6.64,6.64,0,0,1-1.87-.69C451.14,223.61,451.61,222.8,453,222Z"/><path class="cls-3" d="M456.23,225.53l1-.15a2.39,2.39,0,0,0,1.35,1.67,2.17,2.17,0,0,0,2.1.2c.43-.24.54-.53-.47-1.47s-1.11-1.57-.27-2.06a3.71,3.71,0,0,1,3.63.25,2.43,2.43,0,0,1,1.25,1.55l-1,.13a2,2,0,0,0-1.05-1.29,1.91,1.91,0,0,0-1.94-.18c-.48.28-.27.64.49,1.36,1.21,1.17,1.14,1.67.27,2.17a4,4,0,0,1-3.85-.28A2.92,2.92,0,0,1,456.23,225.53Z"/><path class="cls-3" d="M468.81,225.92l1.27-.74,1.1.64-1.28.73L467,227.9l-.57-.32Zm2.31,1.34,1.27-.75,1.1.64-1.28.73-2.87,1.36-.57-.33Z"/><path class="cls-2" d="M474,230.89a1.93,1.93,0,0,1,1.8-.1c.45.26.41.7-.17,1a1.93,1.93,0,0,1-1.8.1C473.41,231.67,473.44,231.23,474,230.89Zm-4.15,2.4a1.9,1.9,0,0,1,1.8-.1c.45.26.4.7-.18,1a1.89,1.89,0,0,1-1.79.1C469.25,234.06,469.28,233.63,469.88,233.29Z"/><path class="cls-2" d="M483.33,232.55l2.79,1.6-.55.32-2.12-1.23-8.89,5.13,2.12,1.22-.54.32-2.78-1.61Z"/><path class="cls-4" d="M427.42,221.53l1.26-.75,1.11.64-1.29.73-2.87,1.36-.56-.33Zm2.31,1.33,1.26-.74,1.11.63-1.29.73-2.87,1.36-.56-.32Z"/><path class="cls-4" d="M434,224.29l2.06,1.19c1.33.77,1.75,1.65.16,2.57a4.48,4.48,0,0,1-4.56,0l-1.2-.69-3.22,1.85-.85-.49Zm-1.67,3.2a2.92,2.92,0,0,0,3.05.07c1-.57.79-1.11-.23-1.7l-1.09-.62-2.82,1.62Zm.6.36-2,3.46-1-.55,1.77-3Z"/><path class="cls-4" d="M440.66,227.36l.83.48-2.25,1.3-1.38.74,0,0a5.17,5.17,0,0,1,2.91.41c1.16.67.91,1.43-.58,2.28l-3.5,2-.84-.49,3.38-1.94c1.07-.62,1.24-1.09.45-1.55a4.49,4.49,0,0,0-2.55-.3l-3.93,2.26-.83-.48Z"/><path class="cls-4" d="M439.76,234.68c1.26-.73,2.9-.49,5.65.83.74-.46,1.07-1,.12-1.56a6.19,6.19,0,0,0-2.38-.6l.32-.57a8,8,0,0,1,3,.79c1.34.77,1.07,1.68-.33,2.49l-3.46,2-.69-.4.7-.48,0,0a6.54,6.54,0,0,1-2.83-.58C438.91,236,438.75,235.27,439.76,234.68Zm3.55,2,1.47-.84c-2.28-1.1-3.39-1.19-4.13-.76s-.39.8.17,1.13A5.26,5.26,0,0,0,443.31,236.72Z"/><path class="cls-4" d="M447,237.3a5.85,5.85,0,0,1,5.44-.26c1.41.81,1.18,1.89-.41,2.81a5.09,5.09,0,0,1-.62.31l-4.13-2.38.74-.43,3.64,2.1-.48,0c1.33-.77,1.42-1.48.53-2a4.08,4.08,0,0,0-3.88.29c-1.47.84-1.38,1.74-.3,2.37a4.8,4.8,0,0,0,2,.55l-.32.54a6,6,0,0,1-2.56-.71C445.23,239.69,445.15,238.39,447,237.3Z"/><path class="cls-4" d="M449.24,243a3.51,3.51,0,0,1,2.06-.26l0,0c-.1-.25,0-.56.43-.83a3,3,0,0,1,1.63-.27l.05,0c0-.36.19-.8.86-1.19a4.23,4.23,0,0,1,3.94-.06,1.64,1.64,0,0,1,.58.5l2,1.17-.78.44-1.26-.73a1.38,1.38,0,0,1-.73.9,4,4,0,0,1-3.82,0,1.67,1.67,0,0,1-.62-.59,1.76,1.76,0,0,0-1,.15c-.44.26-.28.59.37,1l1.09.63c1.26.73,1.49,1.29.54,1.84a5.12,5.12,0,0,1-4.69-.43C448.5,244.41,448.24,243.61,449.24,243Zm4.4,2.25c.54-.31.32-.61-.43-1l-.95-.55a2.6,2.6,0,0,1-.65-.48,2.46,2.46,0,0,0-1.57.18c-.59.34-.41.87.64,1.48A3.41,3.41,0,0,0,453.64,245.28Zm3.72-3.09c.78-.46.82-1.06.19-1.42a2.65,2.65,0,0,0-2.45.12c-.81.47-.82,1.06-.2,1.42A2.64,2.64,0,0,0,457.36,242.19Z"/><path class="cls-4" d="M457.84,245.12c1.27-.73,2.91-.5,5.66.82.74-.45,1.06-1,.12-1.56a6.57,6.57,0,0,0-2.38-.6l.32-.56a7.7,7.7,0,0,1,3,.79c1.33.77,1.07,1.67-.33,2.48l-3.46,2-.69-.4.69-.48,0,0a6.46,6.46,0,0,1-2.82-.59C457,246.47,456.83,245.7,457.84,245.12Zm3.56,2,1.46-.85c-2.27-1.1-3.38-1.19-4.13-.76s-.39.81.18,1.13A5.34,5.34,0,0,0,461.4,247.16Z"/><path class="cls-4" d="M468.7,246.56l.69.4-1.25.82h0a5.7,5.7,0,0,1,3.65.41,1.59,1.59,0,0,1,.73.69l-1,.36a2.06,2.06,0,0,0-.72-.63,5.22,5.22,0,0,0-3.62-.22l-3.29,1.9-.84-.49Z"/><path class="cls-4" d="M483,253.51l-2.18-1.26.82-.47,5.21,3-.83.48L483.88,254l-6.78,3.91-.85-.48Z"/><path class="cls-4" d="M482,259c1.26-.73,2.9-.49,5.65.83.74-.46,1.07-1,.12-1.57a6.37,6.37,0,0,0-2.38-.59l.32-.57a8,8,0,0,1,3,.79c1.34.77,1.07,1.68-.33,2.48l-3.46,2-.69-.4.7-.48,0,0a6.54,6.54,0,0,1-2.83-.59C481.11,260.39,481,259.61,482,259Zm3.55,2,1.47-.84c-2.28-1.1-3.39-1.19-4.13-.77s-.39.81.17,1.13A5.37,5.37,0,0,0,485.51,261.07Z"/><path class="cls-4" d="M492.81,260.47l.7.4-1.26.82h0a5.74,5.74,0,0,1,3.66.41,1.69,1.69,0,0,1,.73.69l-1,.37a2,2,0,0,0-.72-.63,5.19,5.19,0,0,0-3.63-.23l-3.29,1.9-.83-.48Z"/><path class="cls-4" d="M491.44,267.38a3.51,3.51,0,0,1,2.06-.26l0,0c-.1-.24-.05-.55.43-.82a3.08,3.08,0,0,1,1.63-.28l0,0c0-.36.19-.81.86-1.19a4.2,4.2,0,0,1,3.94-.06,1.64,1.64,0,0,1,.58.5l2,1.16-.78.45L501,266.1a1.37,1.37,0,0,1-.73.89,4,4,0,0,1-3.82,0,1.7,1.7,0,0,1-.62-.6,1.84,1.84,0,0,0-1,.16c-.44.25-.28.59.37,1l1.09.63c1.26.73,1.49,1.29.54,1.84a5.12,5.12,0,0,1-4.69-.43C490.7,268.76,490.44,268,491.44,267.38Zm4.4,2.24c.54-.3.32-.61-.43-1l-1-.55a2.61,2.61,0,0,1-.65-.49,2.45,2.45,0,0,0-1.57.19c-.59.34-.41.87.64,1.47A3.34,3.34,0,0,0,495.84,269.62Zm3.72-3.09c.78-.45.82-1,.19-1.41a2.67,2.67,0,0,0-2.45.11c-.81.47-.82,1.07-.2,1.42A2.61,2.61,0,0,0,499.56,266.53Z"/><path class="cls-4" d="M500,269.46c1.27-.73,2.91-.49,5.66.83.74-.46,1.06-1,.12-1.56a6.19,6.19,0,0,0-2.38-.6l.32-.57a8.06,8.06,0,0,1,3,.79c1.33.77,1.07,1.68-.33,2.49l-3.46,2-.69-.4L503,272l0,0a6.46,6.46,0,0,1-2.82-.58C499.19,270.82,499,270.05,500,269.46Zm3.56,2,1.46-.84c-2.27-1.1-3.38-1.19-4.13-.76s-.39.8.18,1.13A5.24,5.24,0,0,0,503.6,271.5Z"/><path class="cls-4" d="M510.9,270.91l.69.4-1.25.81,0,0a5.64,5.64,0,0,1,3.65.4,1.64,1.64,0,0,1,.73.69l-1,.37A2.06,2.06,0,0,0,513,273a5.21,5.21,0,0,0-3.62-.23l-3.29,1.9-.84-.48Z"/><path class="cls-4" d="M508.2,278.52l.93-.34a1.46,1.46,0,0,0,.37.3,3.35,3.35,0,0,0,2.53.08l.55-.16,3.38-4.57.85.49-1.93,2.47c-.3.4-.68.87-1,1.3l0,0,2.16-.64,4.16-1.19.81.47L512.76,279a5.22,5.22,0,0,1-4-.06A1.76,1.76,0,0,1,508.2,278.52Z"/><path class="cls-4" d="M519.38,279a5.8,5.8,0,0,1,5.43-.26c1.41.81,1.18,1.89-.41,2.81-.22.13-.45.23-.62.31l-4.13-2.38.74-.43,3.64,2.1-.48,0c1.34-.77,1.42-1.48.53-2a4.11,4.11,0,0,0-3.88.29c-1.46.85-1.38,1.75-.3,2.38a5,5,0,0,0,2,.55l-.32.53a6,6,0,0,1-2.56-.7C517.57,281.42,517.5,280.12,519.38,279Z"/><path class="cls-4" d="M528.46,281l.69.4-.89.58,0,0a5.38,5.38,0,0,1,2.92.43c1.16.67.9,1.43-.58,2.29l-3.5,2-.84-.48,3.38-1.95c1.06-.62,1.24-1.09.45-1.55a4.49,4.49,0,0,0-2.55-.3l-3.93,2.26-.83-.48Z"/><path class="cls-4" d="M535.93,284.13l1.27-.74,1.1.64-1.29.73-2.87,1.35-.56-.32Zm2.31,1.33,1.27-.74,1.1.64-1.28.73-2.88,1.35-.56-.32Z"/><path class="cls-2" d="M534.05,292.92a4.56,4.56,0,0,0,3.3-.44l.88-.72-.35.86a1.49,1.49,0,0,1-.83-.17c-.43-.25-.49-.62.08-1a1.75,1.75,0,0,1,1.69,0c.59.34.34.85-.58,1.38a6.27,6.27,0,0,1-4.55.58Z"/><path class="cls-4" d="M410.53,231.27l1.26-.74,1.11.63-1.29.73-2.87,1.36-.56-.33Zm2.31,1.33,1.26-.74,1.11.64-1.29.73-2.87,1.35-.56-.32Z"/><path class="cls-4" d="M417.5,234.23l.84.49-6.79,3.91,3.26,1.88L414,241l-4.09-2.35Z"/><path class="cls-4" d="M412.94,243.05l.94-.35a1.24,1.24,0,0,0,.36.31,3.35,3.35,0,0,0,2.53.08l.56-.16,3.38-4.57.84.48-1.92,2.48c-.31.4-.69.86-1,1.29l0,0,2.16-.64,4.17-1.19.8.46-8.26,2.28a5.17,5.17,0,0,1-4-.07A1.73,1.73,0,0,1,412.94,243.05Z"/><path class="cls-4" d="M422.87,244.43c1.26-.73,2.9-.5,5.66.82.73-.46,1.06-1,.12-1.56a6.28,6.28,0,0,0-2.38-.6l.31-.56a7.7,7.7,0,0,1,3,.79c1.33.77,1.07,1.67-.34,2.48l-3.45,2-.7-.4.7-.49h0a6.61,6.61,0,0,1-2.82-.59C422,245.78,421.86,245,422.87,244.43Zm3.56,2,1.46-.84c-2.28-1.1-3.39-1.19-4.13-.76s-.39.81.17,1.13A5.31,5.31,0,0,0,426.43,246.46Z"/><path class="cls-4" d="M433.2,245.57l.69.39-.88.59,0,0A5.44,5.44,0,0,1,436,247c1.15.66.9,1.43-.59,2.28l-3.5,2-.84-.48,3.38-1.94c1.07-.62,1.24-1.09.45-1.55a4.56,4.56,0,0,0-2.55-.31l-3.93,2.27-.83-.48Z"/><path class="cls-4" d="M439.23,249.05l.69.39L439,250l.05,0a5.48,5.48,0,0,1,2.92.44c1.16.66.9,1.42-.58,2.28l-3.5,2-.84-.48,3.38-1.95c1.06-.61,1.24-1.09.45-1.54a4.56,4.56,0,0,0-2.55-.31l-3.93,2.27-.83-.48Z"/><path class="cls-4" d="M441,254.86c1.26-.73,2.9-.49,5.65.83.74-.46,1.07-1,.12-1.57a6.37,6.37,0,0,0-2.38-.59l.32-.57a8,8,0,0,1,3,.79c1.34.77,1.07,1.68-.33,2.48l-3.46,2-.69-.4.7-.48,0,0a6.49,6.49,0,0,1-2.82-.59C440.11,256.22,440,255.44,441,254.86Zm3.55,2,1.46-.84c-2.27-1.1-3.38-1.19-4.12-.77s-.39.81.17,1.13A5.37,5.37,0,0,0,444.51,256.9Z"/><path class="cls-4" d="M452.41,262l1.17-.09a1.7,1.7,0,0,0,1,1.65,2.66,2.66,0,0,0,2.62.13c.81-.46.53-.89.2-1.46l-.47-.83c-.35-.56-.58-1.3.54-2a4.43,4.43,0,0,1,4.18.08,1.78,1.78,0,0,1,1.09,1.71l-1.07.11a1.47,1.47,0,0,0-.91-1.34,2.42,2.42,0,0,0-2.38-.1c-.73.42-.38.92-.07,1.4l.44.8c.45.69.56,1.37-.57,2a4.71,4.71,0,0,1-4.5-.1A2.06,2.06,0,0,1,452.41,262Z"/><path class="cls-4" d="M461,265.6l2.67-1.54-1.39-.8.72-.41,1.47.78,1.92-1,.7.4-1.81,1.05,2.39,1.37-.78.45-2.39-1.38-2.68,1.55c-1,.58-1.24,1.05-.3,1.6a4.91,4.91,0,0,0,1.43.52l-.53.51a6.61,6.61,0,0,1-1.87-.68C459.17,267.21,459.65,266.41,461,265.6Z"/><path class="cls-4" d="M465.07,268.77c1.26-.73,2.9-.49,5.66.83.73-.46,1.06-1,.12-1.57a6.46,6.46,0,0,0-2.38-.59l.31-.57a8.06,8.06,0,0,1,3,.79c1.33.77,1.07,1.68-.34,2.49l-3.45,2-.7-.4.7-.48,0,0a6.46,6.46,0,0,1-2.82-.58C464.22,270.13,464.06,269.35,465.07,268.77Zm3.56,2,1.46-.84c-2.28-1.1-3.39-1.19-4.13-.76s-.39.8.17,1.13A5.57,5.57,0,0,0,468.63,270.81Z"/><path class="cls-4" d="M475.93,270.22l.69.4-1.25.81h0a5.7,5.7,0,0,1,3.65.41,1.69,1.69,0,0,1,.73.69l-1,.37a2.15,2.15,0,0,0-.72-.63,5.21,5.21,0,0,0-3.62-.23l-3.3,1.9-.83-.48Z"/><path class="cls-4" d="M484.18,272l.83.48-5.58,3.22,0,0,5.58-.19.95.55-7.72.28-1.53.89-.83-.48Zm-3.39,4.12,1.13-.07-1.29,3.43-.93-.53Z"/><path class="cls-4" d="M488.9,276.48l1.27-.74,1.1.64-1.28.73-2.88,1.35-.56-.32Zm2.31,1.34,1.27-.75,1.1.64-1.28.73-2.88,1.36-.56-.33Z"/><path class="cls-2" d="M361.68,231.7l2.12,1.22,8.88-5.12-2.12-1.23.55-.31,2.78,1.61-10,5.75-2.79-1.6Z"/><path class="cls-2" d="M368,236.12a4.56,4.56,0,0,0,3.3-.44l.88-.72-.35.85a1.34,1.34,0,0,1-.83-.17c-.43-.25-.49-.62.09-.95a1.76,1.76,0,0,1,1.68-.05c.59.35.34.85-.58,1.38a6.22,6.22,0,0,1-4.55.59Z"/><path class="cls-3" d="M353,237.07l1.27-.74,1.11.64-1.29.73-2.87,1.35-.56-.32Zm2.32,1.33,1.26-.74,1.11.64-1.29.73-2.87,1.35-.56-.32Z"/><path class="cls-3" d="M360.37,239.49l.83.48-5.58,3.22,0,0,5.58-.2,1,.55-7.73.29-1.53.88-.83-.48ZM357,243.62l1.13-.08L356.82,247l-.92-.54Z"/><path class="cls-3" d="M365.11,246.15l-2.26-1.3.77-.45,3.1,1.78-5.64,3.26-.83-.49Zm2.37-1.75a1.48,1.48,0,0,1,1.4-.05c.39.22.37.56-.08.81a1.46,1.46,0,0,1-1.4.05C367,245,367,244.66,367.48,244.4Z"/><path class="cls-3" d="M367.47,250.94l5.59-3.22-1.72-1,.77-.45,2.57,1.48-6.44,3.71c-.82.47-.78.89-.2,1.23a3.64,3.64,0,0,0,1.17.38l-.51.54a5.12,5.12,0,0,1-1.64-.56C366,252.44,366.14,251.71,367.47,250.94Z"/><path class="cls-3" d="M373.5,254.42l5.59-3.23-1.73-1,.78-.45,2.56,1.48-6.43,3.71c-.82.47-.78.89-.2,1.23a3.64,3.64,0,0,0,1.17.38l-.51.53a4.68,4.68,0,0,1-1.64-.56C372,255.92,372.17,255.19,373.5,254.42Z"/><path class="cls-3" d="M378.68,256.32a5.87,5.87,0,0,1,5.44-.26c1.41.81,1.17,1.9-.41,2.81-.23.13-.45.24-.63.32L379,256.8l.74-.43,3.64,2.1-.48,0c1.33-.77,1.42-1.49.53-2a4.13,4.13,0,0,0-3.89.29c-1.46.84-1.38,1.75-.29,2.37a4.76,4.76,0,0,0,2,.55l-.32.54a6.21,6.21,0,0,1-2.57-.7C376.88,258.71,376.8,257.41,378.68,256.32Z"/><path class="cls-3" d="M384.61,259.77a5.65,5.65,0,0,1,5.18-.44,1.29,1.29,0,0,1,.74,1.26h0l1-.62,2.17-1.25.83.48L386.29,264l-.68-.39.67-.47,0,0a5,5,0,0,1-2.48-.41C382.5,262,382.73,260.85,384.61,259.77Zm2.35,2.86,2.81-1.62a1.09,1.09,0,0,0-.62-1.11,4,4,0,0,0-3.68.35c-1.34.78-1.6,1.56-.71,2.07A3.93,3.93,0,0,0,387,262.63Z"/><path class="cls-3" d="M395.83,260.7l1.87,1.08c1.34.78,1.74,1.61.4,2.38a3.62,3.62,0,0,1-2.81.29l-.05,0c.79.66.75,1.33-.29,1.93a4.63,4.63,0,0,1-4.71-.14l-2-1.17Zm-1.47,2.85a2.64,2.64,0,0,0,2.84.18c.82-.48.6-1-.41-1.54l-.94-.54L393.46,263Zm-3.43,2.17a3.05,3.05,0,0,0,3.24.18c.94-.54.7-1.12-.46-1.79l-1.06-.61-2.78,1.6Z"/><path class="cls-3" d="M391.62,269.72l.93-.35a1.29,1.29,0,0,0,.37.31,3.35,3.35,0,0,0,2.53.08l.55-.16,3.38-4.57.85.48L398.3,268c-.3.4-.68.86-1,1.29l0,0,2.16-.65,4.16-1.18.81.46-8.27,2.28a5.17,5.17,0,0,1-4-.07A1.68,1.68,0,0,1,391.62,269.72Z"/><path class="cls-3" d="M407.29,268.37l1.27-.74,1.1.64-1.28.73-2.88,1.35-.56-.32Zm2.31,1.34,1.27-.75,1.1.64-1.28.73-2.87,1.36-.57-.33Z"/><path class="cls-2" d="M412.51,273.34a1.93,1.93,0,0,1,1.8-.1c.45.26.41.7-.17,1a1.93,1.93,0,0,1-1.8.1C411.89,274.11,411.92,273.68,412.51,273.34Zm-4.15,2.39a2,2,0,0,1,1.8-.1c.45.27.4.71-.18,1a1.91,1.91,0,0,1-1.79.1C407.73,276.51,407.76,276.07,408.36,275.73Z"/><path class="cls-2" d="M421.81,275l2.79,1.6-.55.32-2.12-1.23L413,280.82l2.12,1.22-.54.32-2.78-1.61Z"/><path class="cls-4" d="M359.87,260.5l1.26-.75,1.11.64-1.29.73-2.87,1.36-.56-.33Zm2.31,1.33,1.26-.74,1.11.63-1.29.74-2.87,1.35-.56-.32Z"/><path class="cls-4" d="M368,264.15l1,.55-5.39,5.67-.9-.52,3.11-3.1c.61-.62,1.23-1.23,1.91-1.86l0,0c-1.09.39-2.14.75-3.22,1.1l-5.4,1.78-.86-.49Zm-5.56,2,3,1.74-.79.46-3-1.75Z"/><path class="cls-4" d="M368.28,270.89l5.59-3.23-1.73-1,.78-.45,2.56,1.48L369,271.41c-.81.47-.78.89-.2,1.23A3.82,3.82,0,0,0,370,273l-.51.53a4.75,4.75,0,0,1-1.64-.56C366.82,272.39,366.94,271.66,368.28,270.89Z"/><path class="cls-4" d="M374.3,274.37l5.6-3.23-1.73-1,.78-.44,2.56,1.47-6.44,3.72c-.81.47-.78.89-.2,1.22a3.49,3.49,0,0,0,1.17.38l-.51.54a4.68,4.68,0,0,1-1.64-.56C372.85,275.87,373,275.14,374.3,274.37Z"/><path class="cls-4" d="M384,276.53l-2.26-1.3.77-.45,3.1,1.79L380,279.82l-.83-.48Zm2.37-1.75a1.48,1.48,0,0,1,1.4,0c.38.22.36.55-.08.81a1.46,1.46,0,0,1-1.4,0C385.91,275.37,385.92,275,386.37,274.78Z"/><path class="cls-4" d="M383.45,281l1-.15a2.38,2.38,0,0,0,1.36,1.67,2.15,2.15,0,0,0,2.09.2c.43-.24.54-.53-.47-1.47s-1.11-1.57-.26-2.05a3.68,3.68,0,0,1,3.63.24,2.5,2.5,0,0,1,1.25,1.55l-1,.13a2,2,0,0,0-1-1.29,1.91,1.91,0,0,0-1.94-.18c-.49.28-.27.64.49,1.36,1.21,1.17,1.14,1.67.27,2.17a4.06,4.06,0,0,1-3.86-.28A2.93,2.93,0,0,1,383.45,281Z"/><path class="cls-4" d="M391.54,283.23A5.82,5.82,0,0,1,397,283c1.41.81,1.17,1.89-.41,2.81-.23.13-.45.23-.63.31l-4.12-2.38.74-.43,3.64,2.1-.48,0c1.33-.77,1.42-1.48.53-2a4.11,4.11,0,0,0-3.88.29c-1.47.85-1.39,1.75-.3,2.38a4.91,4.91,0,0,0,2,.55l-.32.53a6.07,6.07,0,0,1-2.57-.7C389.74,285.61,389.66,284.31,391.54,283.23Z"/><path class="cls-4" d="M401.15,285.53l.69.4-1.25.82h0a5.7,5.7,0,0,1,3.65.41,1.61,1.61,0,0,1,.74.69l-1,.36a2,2,0,0,0-.72-.63,5.22,5.22,0,0,0-3.62-.22l-3.29,1.9-.84-.48Z"/><path class="cls-4" d="M415.49,292.48l-2.18-1.26.83-.47,5.2,3-.82.48L416.34,293l-6.79,3.91-.85-.48Z"/><path class="cls-4" d="M421.34,294.15l.83.48-2.25,1.3-1.38.74,0,0a5.26,5.26,0,0,1,2.91.41c1.16.67.91,1.43-.58,2.29l-3.5,2-.84-.48,3.38-1.95c1.07-.61,1.24-1.09.45-1.55a4.67,4.67,0,0,0-2.55-.3l-3.93,2.27-.83-.48Z"/><path class="cls-4" d="M421.58,300.59a5.67,5.67,0,0,1,5.38-.33c1.29.74,1.33,2-.56,3.11a5.69,5.69,0,0,1-5.35.31C419.76,302.93,419.71,301.66,421.58,300.59Zm4,2.28c1.3-.75,1.54-1.61.61-2.15a4,4,0,0,0-3.73.36c-1.28.74-1.52,1.59-.58,2.13A3.88,3.88,0,0,0,425.55,302.87Z"/><path class="cls-4" d="M431.29,302.92l.7.4-1.26.82h0a5.74,5.74,0,0,1,3.66.41,1.64,1.64,0,0,1,.73.69l-1,.36a2.15,2.15,0,0,0-.72-.63,5.26,5.26,0,0,0-3.63-.22l-3.29,1.9-.83-.48Z"/><path class="cls-4" d="M436.8,306.1l.68.39-.88.59,0,0a5.4,5.4,0,0,1,2.93.43c1.16.66.9,1.43-.58,2.28l-3.51,2-.83-.48,3.37-1.94c1.07-.62,1.25-1.09.46-1.55a4.6,4.6,0,0,0-2.55-.31L432,309.83l-.84-.48Z"/><path class="cls-4" d="M439.77,311.05a5.84,5.84,0,0,1,5.44-.26c1.4.81,1.17,1.9-.42,2.81a5.09,5.09,0,0,1-.62.31L440,311.53l.75-.43,3.63,2.1-.47,0c1.33-.77,1.42-1.48.52-2a4.08,4.08,0,0,0-3.88.29c-1.46.84-1.38,1.74-.29,2.37a4.76,4.76,0,0,0,2,.55L442,315a6.08,6.08,0,0,1-2.56-.71C438,313.44,437.89,312.14,439.77,311.05Z"/><path class="cls-4" d="M450.3,312.67l1.26-.75,1.11.64-1.29.73-2.87,1.36-.56-.33Zm2.31,1.33,1.26-.74,1.11.63-1.29.74L450.82,316l-.56-.32Z"/><path class="cls-2" d="M448.41,321.46a4.55,4.55,0,0,0,3.3-.44l.89-.72-.36.85a1.34,1.34,0,0,1-.83-.17c-.43-.25-.49-.62.09-1a1.74,1.74,0,0,1,1.68,0c.6.35.34.85-.58,1.38a6.26,6.26,0,0,1-4.55.59Z"/><path class="cls-4" d="M343,270.24l1.26-.74,1.11.63-1.29.74-2.87,1.35-.56-.32Zm2.31,1.33,1.26-.74,1.11.64-1.29.73-2.87,1.35-.56-.32Z"/><path class="cls-4" d="M345.32,274.88c2.46-1.42,4.95-1.65,6.44-.79s1.08,2.29-1.38,3.71-5,1.7-6.51.84S342.82,276.32,345.32,274.88Zm4.19,2.42c1.91-1.1,2.39-2.14,1.39-2.72s-2.79-.3-4.71.81-2.46,2.18-1.46,2.75S347.56,278.42,349.51,277.3Z"/><path class="cls-4" d="M351.29,280.23l2.67-1.54-1.39-.8.72-.42,1.47.79,1.92-1,.7.4-1.81,1L358,280.1l-.78.45-2.39-1.38-2.68,1.54c-1,.59-1.24,1.06-.3,1.6a5.24,5.24,0,0,0,1.43.53l-.53.51a6.64,6.64,0,0,1-1.87-.69C349.42,281.84,349.9,281,351.29,280.23Z"/><path class="cls-4" d="M362.25,279.55l.83.48-2.25,1.3-1.38.74,0,0a5.3,5.3,0,0,1,2.92.41c1.15.67.9,1.43-.59,2.29l-3.5,2-.84-.48,3.38-1.95c1.07-.62,1.25-1.09.45-1.55a4.49,4.49,0,0,0-2.55-.3l-3.93,2.27-.83-.49Z"/><path class="cls-4" d="M362.6,286a5.85,5.85,0,0,1,5.43-.26c1.41.81,1.18,1.9-.41,2.81-.22.13-.45.24-.62.32l-4.13-2.39.74-.42,3.64,2.09-.48,0c1.34-.77,1.42-1.49.53-2a4.11,4.11,0,0,0-3.88.29c-1.46.84-1.38,1.75-.3,2.37a4.69,4.69,0,0,0,2,.55l-.32.54a6.17,6.17,0,0,1-2.56-.7C360.79,288.4,360.72,287.1,362.6,286Z"/><path class="cls-4" d="M369.47,291.07l5.6-3.23-1.73-1,.77-.44,2.57,1.47-6.44,3.72c-.81.47-.78.89-.2,1.22a3.49,3.49,0,0,0,1.17.38l-.51.54a4.68,4.68,0,0,1-1.64-.56C368,292.57,368.14,291.84,369.47,291.07Z"/><path class="cls-4" d="M375.5,294.55l5.59-3.23-1.72-1,.77-.45,2.56,1.48-6.43,3.72c-.82.46-.78.89-.2,1.22a3.64,3.64,0,0,0,1.17.38l-.51.54a4.89,4.89,0,0,1-1.64-.56C374.05,296.05,374.17,295.31,375.5,294.55Z"/><path class="cls-4" d="M388.5,301.09l2.69-4.09.89.51-1.26,1.87c-.34.48-.69.95-1,1.46l0,0,2.54-.58,3.21-.75.86.5-7.1,1.55-2.72,1.57-.84-.49Z"/><path class="cls-4" d="M391.49,304.26c1.27-.72,2.9-.49,5.66.83.73-.46,1.06-1,.12-1.56a6.24,6.24,0,0,0-2.38-.6l.32-.57a8.06,8.06,0,0,1,3,.79c1.33.78,1.07,1.68-.33,2.49l-3.46,2-.69-.4.69-.48h0a6.61,6.61,0,0,1-2.82-.59C390.64,305.62,390.48,304.85,391.49,304.26Zm3.56,2,1.46-.84c-2.28-1.1-3.38-1.19-4.13-.76s-.39.8.18,1.13A5.24,5.24,0,0,0,395.05,306.3Z"/><path class="cls-4" d="M402.35,305.71l.69.4-1.25.82h0a5.57,5.57,0,0,1,3.65.41,1.54,1.54,0,0,1,.73.69l-1,.36a2.06,2.06,0,0,0-.72-.63,5.27,5.27,0,0,0-3.62-.23l-3.3,1.9-.83-.48Z"/><path class="cls-4" d="M407,308.39l.82.48-2.68,2.22c-.45.36-.86.68-1.34,1l0,0c.6-.27,1.21-.5,1.84-.73l3.53-1.34.82.47-2.34,2c-.43.38-.78.73-1.26,1.08l.05,0,1.77-.77,3.85-1.55.77.44-6.69,2.65-1.06-.62,2.13-1.87c.31-.28.79-.64,1.43-1.11l0,0c-.8.37-1.44.64-1.91.83l-3.24,1.24-1.06-.62Z"/><path class="cls-4" d="M405.68,316.8l.93-.35a1.39,1.39,0,0,0,.36.31,3.36,3.36,0,0,0,2.53.08l.56-.16,3.38-4.57.85.49-1.93,2.47c-.31.4-.69.86-1,1.3l0,0,2.16-.64,4.16-1.19.8.46-8.26,2.28a5.22,5.22,0,0,1-4-.06A1.84,1.84,0,0,1,405.68,316.8Z"/><path class="cls-4" d="M417,317.4a5.94,5.94,0,0,1,5.69-.14,1.54,1.54,0,0,1,1,1.5l-1,.12a1.23,1.23,0,0,0-.7-1.14,4.23,4.23,0,0,0-4.07.15c-1.28.75-1.38,1.68-.26,2.32a4.64,4.64,0,0,0,2.21.47l-.25.57a5.61,5.61,0,0,1-2.82-.61C415.15,319.76,415.08,318.48,417,317.4Z"/><path class="cls-4" d="M428.68,317.88l.84.48-5.58,3.22,0,0,5.58-.19.95.55-7.72.28-1.53.88-.84-.48ZM425.29,322l1.13-.07-1.28,3.43-.93-.53Z"/><path class="cls-4" d="M433.41,322.41l1.26-.74,1.11.63-1.29.74-2.87,1.35-.56-.32Zm2.31,1.33L437,323l1.11.64-1.29.73-2.87,1.35-.56-.32Z"/><path class="cls-2" d="M431.53,331.2a4.53,4.53,0,0,0,3.29-.44l.89-.72-.36.86a1.47,1.47,0,0,1-.82-.17c-.44-.25-.5-.62.08-1a1.75,1.75,0,0,1,1.69,0c.59.34.33.85-.58,1.37a6.25,6.25,0,0,1-4.56.59Z"/><path class="cls-4" d="M326.09,280l1.27-.74,1.1.64-1.28.73L324.3,282l-.56-.32Zm2.31,1.33,1.27-.74,1.1.64-1.28.73-2.88,1.36-.56-.33Z"/><path class="cls-4" d="M332.71,282.74l1.87,1.08c1.35.78,1.74,1.61.41,2.38a3.6,3.6,0,0,1-2.82.29l0,0c.79.65.75,1.33-.3,1.93a4.65,4.65,0,0,1-4.71-.15l-2-1.16Zm-1.47,2.85a2.6,2.6,0,0,0,2.84.18c.83-.47.61-.95-.41-1.54l-.93-.53-2.39,1.37Zm-3.42,2.17a3.06,3.06,0,0,0,3.23.19c.94-.55.71-1.13-.45-1.79l-1.07-.62-2.78,1.61Z"/><path class="cls-4" d="M333.55,288.77a5.67,5.67,0,0,1,5.38-.32c1.29.74,1.33,2-.56,3.1a5.68,5.68,0,0,1-5.36.31C331.73,291.12,331.68,289.85,333.55,288.77Zm4,2.29c1.3-.75,1.54-1.61.61-2.15a3.94,3.94,0,0,0-3.73.35c-1.29.74-1.52,1.6-.59,2.14A3.93,3.93,0,0,0,337.52,291.06Z"/><path class="cls-4" d="M341.89,290.31l.82.48L340,293c-.44.36-.86.68-1.33,1l0,0c.59-.27,1.2-.5,1.83-.74l3.53-1.34.82.48-2.34,2a16.33,16.33,0,0,1-1.25,1.07l0,0c.61-.26,1.15-.52,1.77-.77l3.86-1.55.76.44-6.68,2.65-1.07-.62,2.13-1.87c.32-.28.79-.65,1.43-1.11l0,0c-.8.37-1.43.64-1.91.82l-3.23,1.24-1.07-.61Z"/><path class="cls-4" d="M345.71,295.76a5.82,5.82,0,0,1,5.44-.26c1.4.81,1.17,1.89-.42,2.81l-.62.31L346,296.24l.75-.43,3.63,2.1-.47,0c1.33-.77,1.42-1.48.52-2a4.11,4.11,0,0,0-3.88.29c-1.46.85-1.38,1.75-.29,2.38a4.91,4.91,0,0,0,2,.55l-.33.53a6.06,6.06,0,0,1-2.56-.7C343.9,298.14,343.83,296.84,345.71,295.76Z"/><path class="cls-4" d="M354.8,297.76l.68.39-.88.59,0,0a5.42,5.42,0,0,1,2.93.43c1.15.67.9,1.43-.59,2.28l-3.5,2-.84-.49,3.38-1.94c1.07-.62,1.25-1.09.45-1.55a4.47,4.47,0,0,0-2.54-.3L350,301.49l-.83-.48Z"/><path class="cls-4" d="M368.62,303.46l1,.59-2.32,2.41-.91.89,0,0,1.54-.53,4.18-1.33,1,.59-7.61,4.39-.81-.46,3.81-2.2c.74-.43,2.14-1.12,2.83-1.47l0,0-1.86.65-3.93,1.18-.61-.35,2.07-2.26,1.1-1.08h0c-.58.41-1.8,1.21-2.55,1.63l-3.8,2.2-.79-.45Z"/><path class="cls-4" d="M368.58,310.53c1.26-.73,2.9-.49,5.65.83.74-.46,1.07-1,.12-1.57a6.37,6.37,0,0,0-2.38-.59l.32-.57a7.83,7.83,0,0,1,3,.79c1.34.77,1.07,1.67-.33,2.48l-3.46,2-.69-.4.7-.48,0,0a6.54,6.54,0,0,1-2.83-.59C367.73,311.89,367.57,311.11,368.58,310.53Zm3.55,2,1.47-.85c-2.28-1.09-3.39-1.18-4.13-.76s-.39.81.17,1.13A5.37,5.37,0,0,0,372.13,312.57Z"/><path class="cls-4" d="M379.43,312l.7.4-1.26.82h0a5.74,5.74,0,0,1,3.66.41,1.69,1.69,0,0,1,.73.69l-1,.36a2,2,0,0,0-.71-.62,5.19,5.19,0,0,0-3.63-.23l-3.29,1.9-.84-.48Z"/><path class="cls-4" d="M379.82,317.85l1-.15a2.37,2.37,0,0,0,1.36,1.66,2.16,2.16,0,0,0,2.09.21c.43-.25.54-.53-.47-1.48s-1.11-1.56-.26-2a3.71,3.71,0,0,1,3.63.25,2.5,2.5,0,0,1,1.25,1.55l-1,.12a2.35,2.35,0,0,0-3-1.47c-.49.29-.28.65.49,1.37,1.21,1.17,1.14,1.66.26,2.16a4,4,0,0,1-3.85-.28A2.94,2.94,0,0,1,379.82,317.85Z"/><path class="cls-4" d="M393.59,317.12l.83.48-2.25,1.3-1.38.74h0a5.28,5.28,0,0,1,2.92.42c1.15.66.9,1.43-.59,2.28l-3.5,2-.83-.48,3.37-1.94c1.07-.62,1.25-1.09.45-1.55a4.54,4.54,0,0,0-2.54-.31l-3.94,2.27-.83-.48Z"/><path class="cls-4" d="M398.43,321.72l1.27-.74,1.11.63-1.29.73-2.87,1.36-.57-.33Zm2.32,1.33,1.26-.74,1.11.64-1.29.73L399,325l-.56-.32Z"/><path class="cls-2" d="M396.55,330.51a4.55,4.55,0,0,0,3.3-.44l.89-.72-.36.85a1.34,1.34,0,0,1-.83-.17c-.43-.25-.49-.62.09-.95a1.76,1.76,0,0,1,1.68-.05c.6.35.34.85-.58,1.38a6.22,6.22,0,0,1-4.55.59Z"/><path class="cls-4" d="M309.2,289.72l1.27-.74,1.11.64-1.29.73-2.87,1.35-.56-.32Zm2.32,1.34,1.26-.75,1.11.64-1.29.73L309.73,293l-.56-.33Z"/><path class="cls-4" d="M311.55,294.37c2.45-1.42,4.95-1.66,6.44-.8s1.08,2.3-1.38,3.72-5,1.69-6.51.83S309.05,295.81,311.55,294.37Zm4.18,2.41c1.92-1.1,2.39-2.14,1.4-2.71s-2.8-.3-4.71.8-2.46,2.18-1.46,2.76S313.78,297.91,315.73,296.78Z"/><path class="cls-4" d="M317.61,300.12l5.6-3.23-1.73-1,.77-.44,2.57,1.47-6.44,3.72c-.81.47-.78.89-.2,1.22a3.49,3.49,0,0,0,1.17.38l-.51.54a4.68,4.68,0,0,1-1.64-.56C316.16,301.62,316.28,300.89,317.61,300.12Z"/><path class="cls-4" d="M323.64,303.6l5.59-3.23-1.72-1,.77-.45,2.57,1.48-6.44,3.72c-.82.47-.78.89-.2,1.22a3.64,3.64,0,0,0,1.17.38l-.51.54a4.68,4.68,0,0,1-1.64-.56C322.19,305.1,322.31,304.37,323.64,303.6Z"/><path class="cls-4" d="M323.67,308.46l.94-.34a1.4,1.4,0,0,0,.36.3,3.35,3.35,0,0,0,2.53.08l.56-.16,3.38-4.57.84.49-1.92,2.47c-.31.4-.69.86-1,1.3l0,0,2.16-.64,4.16-1.19.8.47L328.23,309a5.22,5.22,0,0,1-4-.06A1.9,1.9,0,0,1,323.67,308.46Z"/><path class="cls-4" d="M339.35,307.11l1.26-.74,1.11.64-1.29.73-2.87,1.36-.56-.33Zm2.31,1.34,1.26-.75,1.11.64-1.29.73-2.87,1.36-.56-.33Z"/><path class="cls-2" d="M260.36,290.16l2.11,1.22,8.89-5.13L269.24,285l.55-.31,2.78,1.6-10,5.76-2.78-1.61Z"/><path class="cls-2" d="M266.72,294.58a4.56,4.56,0,0,0,3.3-.44l.88-.72-.35.85a1.41,1.41,0,0,1-.83-.17c-.43-.25-.5-.62.08-1a1.78,1.78,0,0,1,1.69,0c.59.34.34.85-.58,1.38a6.22,6.22,0,0,1-4.55.58Z"/><path class="cls-3" d="M251.71,295.53l1.27-.75,1.1.64-1.28.73-2.88,1.36-.56-.33Zm2.31,1.33,1.27-.74,1.1.63-1.28.73-2.88,1.36-.56-.32Z"/><path class="cls-3" d="M256,299.19l.66.38-.67.47h0a2.8,2.8,0,0,1,2,.14c.48.28.46.64,0,1.09a3,3,0,0,1,2.12.1c.68.4.47,1-.66,1.63l-4,2.33-.83-.47,4-2.29c.65-.38.82-.67.46-.87s-.81-.14-1.65.05l-4.08,2.35-.77-.44,4-2.29c.65-.37.84-.65.48-.86a2.48,2.48,0,0,0-1.67,0l-4.08,2.36-.83-.48Z"/><path class="cls-3" d="M258,305.2c1.27-.72,2.91-.49,5.66.83.74-.46,1.07-1,.12-1.56a6.19,6.19,0,0,0-2.38-.6l.32-.56a7.81,7.81,0,0,1,3,.78c1.34.78,1.07,1.68-.33,2.49l-3.46,2-.69-.4.69-.49h0a6.61,6.61,0,0,1-2.82-.59C257.18,306.56,257,305.79,258,305.2Zm3.56,2,1.46-.84c-2.27-1.1-3.38-1.19-4.12-.76s-.39.8.17,1.13A5.26,5.26,0,0,0,261.58,307.24Z"/><path class="cls-3" d="M268.88,306.65l.69.4-1.25.82h0a5.57,5.57,0,0,1,3.65.41,1.57,1.57,0,0,1,.74.69l-1,.36a2,2,0,0,0-.72-.63,5.26,5.26,0,0,0-3.62-.23l-3.29,1.9-.84-.48Z"/><path class="cls-3" d="M274.91,310.13l.69.4-1.25.81,0,0a5.64,5.64,0,0,1,3.65.4,1.72,1.72,0,0,1,.74.69l-1,.37a2.06,2.06,0,0,0-.72-.63,5.21,5.21,0,0,0-3.62-.23l-3.29,1.9-.84-.48Z"/><path class="cls-3" d="M281.87,315l-2.26-1.3.78-.45,3.09,1.78-5.64,3.26-.83-.49Zm2.37-1.75a1.5,1.5,0,0,1,1.41-.05c.38.22.36.56-.08.81a1.48,1.48,0,0,1-1.41.05C283.78,313.88,283.79,313.55,284.24,313.29Z"/><path class="cls-3" d="M283.39,318.26a5.8,5.8,0,0,1,5.43-.26c1.41.81,1.18,1.89-.41,2.81l-.62.31-4.13-2.38.74-.43,3.64,2.1-.48,0c1.34-.77,1.42-1.48.53-2a4.11,4.11,0,0,0-3.88.29c-1.46.85-1.38,1.75-.3,2.38a5,5,0,0,0,2,.55l-.33.53a6,6,0,0,1-2.56-.7C281.58,320.64,281.51,319.34,283.39,318.26Z"/><path class="cls-3" d="M289.31,321.7a5.71,5.71,0,0,1,5.18-.44,1.31,1.31,0,0,1,.75,1.27h0l1-.62,2.17-1.25.83.48L291,325.91l-.68-.39.67-.47,0,0a4.85,4.85,0,0,1-2.47-.41C287.21,323.89,287.43,322.79,289.31,321.7Zm2.36,2.86,2.81-1.62a1.12,1.12,0,0,0-.63-1.11,4,4,0,0,0-3.67.36c-1.35.77-1.61,1.55-.71,2.07A4,4,0,0,0,291.67,324.56Z"/><path class="cls-3" d="M300.69,322.72l4.07,2.36-.82.47-3.23-1.86-2.38,1.37,2.73,1.57-.82.48-2.74-1.58-2.76,1.6,3.34,1.92-.83.47-4.18-2.41Z"/><path class="cls-3" d="M304.53,327.22l.68.39-.88.59,0,0a5.31,5.31,0,0,1,2.93.44c1.16.66.9,1.42-.58,2.28l-3.51,2-.83-.48,3.37-2c1.07-.61,1.25-1.09.46-1.54a4.6,4.6,0,0,0-2.55-.31L299.73,331l-.84-.48Z"/><path class="cls-3" d="M303.68,334.42a3.49,3.49,0,0,1,2.05-.26l0,0c-.1-.25,0-.56.43-.83a3,3,0,0,1,1.63-.27l.05,0c0-.36.19-.8.86-1.19a4.23,4.23,0,0,1,3.94-.06,1.64,1.64,0,0,1,.58.5l2,1.17-.78.44-1.26-.73a1.38,1.38,0,0,1-.73.9,4,4,0,0,1-3.82,0,1.6,1.6,0,0,1-.62-.59,1.76,1.76,0,0,0-1,.15c-.44.26-.28.59.37,1l1.09.63c1.26.73,1.49,1.29.54,1.84a5.12,5.12,0,0,1-4.69-.43C302.94,335.8,302.68,335,303.68,334.42Zm4.4,2.25c.54-.31.31-.61-.43-1l-.95-.55a2.6,2.6,0,0,1-.65-.48,2.45,2.45,0,0,0-1.57.18c-.59.34-.41.87.64,1.48A3.41,3.41,0,0,0,308.08,336.67Zm3.71-3.09c.79-.46.82-1.06.2-1.42a2.65,2.65,0,0,0-2.45.12c-.81.47-.82,1.06-.21,1.42A2.64,2.64,0,0,0,311.79,333.58Z"/><path class="cls-3" d="M312.28,336.51c1.27-.73,2.91-.5,5.66.82.73-.45,1.06-1,.12-1.56a6.62,6.62,0,0,0-2.38-.6l.32-.56a7.7,7.7,0,0,1,3,.79c1.33.77,1.07,1.67-.33,2.48l-3.46,2-.69-.4.69-.48,0,0a6.46,6.46,0,0,1-2.82-.59C311.43,337.86,311.27,337.09,312.28,336.51Zm3.56,2,1.46-.85c-2.28-1.1-3.38-1.19-4.13-.76s-.39.81.18,1.13A5.34,5.34,0,0,0,315.84,338.55Z"/><path class="cls-3" d="M315.73,341.38a3.54,3.54,0,0,1,2.06-.26l0,0c-.1-.24,0-.55.42-.82a3.12,3.12,0,0,1,1.64-.28l.05,0c0-.36.18-.81.86-1.19a4.18,4.18,0,0,1,3.93-.06,1.6,1.6,0,0,1,.59.5l2,1.16-.78.45-1.27-.73a1.35,1.35,0,0,1-.72.89,4,4,0,0,1-3.83,0,1.6,1.6,0,0,1-.61-.6,1.81,1.81,0,0,0-1,.16c-.44.25-.28.59.36,1l1.1.63c1.25.73,1.49,1.29.53,1.84a5.1,5.1,0,0,1-4.68-.43C315,342.76,314.74,342,315.73,341.38Zm4.41,2.24c.53-.3.31-.61-.43-1l-1-.55a2.61,2.61,0,0,1-.65-.49,2.42,2.42,0,0,0-1.56.19c-.59.34-.41.87.64,1.47A3.34,3.34,0,0,0,320.14,343.62Zm3.71-3.09c.79-.45.82-1,.2-1.41a2.67,2.67,0,0,0-2.45.11c-.81.47-.82,1.07-.21,1.42A2.61,2.61,0,0,0,323.85,340.53Z"/><path class="cls-3" d="M325.59,342.6a5.85,5.85,0,0,1,5.43-.26c1.41.81,1.18,1.9-.41,2.81-.22.13-.45.24-.62.32l-4.13-2.39.74-.43,3.64,2.1-.48,0c1.34-.77,1.42-1.49.53-2a4.11,4.11,0,0,0-3.88.29c-1.46.84-1.38,1.75-.3,2.37a4.84,4.84,0,0,0,2,.55l-.33.54a6.17,6.17,0,0,1-2.56-.7C323.78,345,323.71,343.69,325.59,342.6Z"/><path class="cls-3" d="M331.51,346.05a5.65,5.65,0,0,1,5.18-.44,1.3,1.3,0,0,1,.75,1.26h0l1-.62,2.17-1.25.84.48-8.27,4.77-.68-.39.67-.47,0,0a5,5,0,0,1-2.47-.41C329.41,348.24,329.63,347.13,331.51,346.05Zm2.36,2.86,2.81-1.62a1.12,1.12,0,0,0-.63-1.11,4,4,0,0,0-3.67.35c-1.35.78-1.61,1.56-.71,2.07A3.93,3.93,0,0,0,333.87,348.91Z"/><path class="cls-3" d="M342.14,347.7l1.27-.75,1.1.64-1.28.73-2.88,1.36-.56-.33Zm2.31,1.33,1.27-.74,1.1.63-1.28.74L342.66,351l-.56-.32Z"/><path class="cls-2" d="M347.36,352.66a2,2,0,0,1,1.8-.1c.45.26.41.71-.17,1a1.94,1.94,0,0,1-1.8.1C346.73,353.44,346.77,353,347.36,352.66Zm-4.16,2.4A2,2,0,0,1,345,355c.45.26.4.7-.18,1a1.93,1.93,0,0,1-1.8.1C342.58,355.83,342.61,355.4,343.2,355.06Z"/><path class="cls-2" d="M356.66,354.32l2.78,1.61-.54.31L356.78,355l-8.89,5.12,2.12,1.23-.54.31-2.79-1.6Z"/><path class="cls-4" d="M258.54,319l1.27-.74,1.1.64-1.28.73-2.87,1.35-.57-.32Zm2.31,1.33,1.27-.74,1.1.64-1.28.73-2.87,1.36-.57-.33Z"/><path class="cls-4" d="M261.87,325.46l2.68-4.1.9.52-1.27,1.86c-.34.49-.69,1-1,1.46l0,0,2.55-.58,3.2-.75.87.5L262.71,326,260,327.51l-.85-.48Z"/><path class="cls-4" d="M262.28,330a3.52,3.52,0,0,1,2.06-.26l0,0c-.09-.25-.05-.55.43-.83a3,3,0,0,1,1.64-.27l0,0c0-.36.19-.8.86-1.19a4.23,4.23,0,0,1,3.94-.06,1.75,1.75,0,0,1,.58.5l2,1.17-.77.45-1.27-.73a1.38,1.38,0,0,1-.72.89,4,4,0,0,1-3.83,0,1.78,1.78,0,0,1-.62-.6,1.76,1.76,0,0,0-1,.15c-.44.26-.27.59.37,1l1.09.63c1.26.72,1.49,1.28.54,1.83a5.15,5.15,0,0,1-4.69-.42C261.54,331.4,261.28,330.6,262.28,330Zm4.41,2.25c.53-.31.31-.61-.44-1l-.95-.55a2.6,2.6,0,0,1-.65-.48,2.42,2.42,0,0,0-1.56.18c-.59.34-.41.88.63,1.48A3.43,3.43,0,0,0,266.69,332.27Zm3.71-3.09c.79-.46.82-1.06.19-1.41a2.59,2.59,0,0,0-2.44.11c-.82.47-.83,1.06-.21,1.42A2.61,2.61,0,0,0,270.4,329.18Z"/><path class="cls-4" d="M275.71,330.08l.7.4-1.26.81h0a5.74,5.74,0,0,1,3.66.41,1.69,1.69,0,0,1,.73.69l-1,.37a2,2,0,0,0-.71-.63,5.19,5.19,0,0,0-3.63-.23l-3.29,1.9-.84-.48Z"/><path class="cls-4" d="M282.67,335l-2.26-1.31.78-.44,3.09,1.78-5.63,3.25-.84-.48Zm2.37-1.75a1.48,1.48,0,0,1,1.41-.05c.38.22.36.56-.08.81a1.48,1.48,0,0,1-1.41.05C284.58,333.83,284.59,333.5,285,333.24Z"/><path class="cls-4" d="M284.94,339.37l2.67-1.54-1.39-.8.72-.41,1.47.78,1.92-1,.7.4-1.81,1.05,2.39,1.38-.78.44-2.39-1.37-2.68,1.54c-1,.58-1.24,1.05-.3,1.6a4.91,4.91,0,0,0,1.43.52l-.53.52a7,7,0,0,1-1.87-.69C283.07,341,283.55,340.18,284.94,339.37Z"/><path class="cls-4" d="M291,342.85l2.66-1.54-1.38-.8.72-.41,1.47.78,1.92-1,.7.4-1.81,1,2.39,1.38-.78.45-2.39-1.38-2.68,1.55c-1,.58-1.24,1.05-.3,1.6a5.16,5.16,0,0,0,1.42.52l-.52.51a6.61,6.61,0,0,1-1.87-.68C289.1,344.46,289.57,343.66,291,342.85Z"/><path class="cls-4" d="M296.25,345.16a5.83,5.83,0,0,1,5.43-.26c1.41.81,1.18,1.9-.41,2.81a5.09,5.09,0,0,1-.62.31l-4.13-2.38.74-.43,3.64,2.1-.48,0c1.34-.77,1.43-1.48.53-2a4.08,4.08,0,0,0-3.88.29c-1.46.84-1.38,1.74-.3,2.37a4.84,4.84,0,0,0,2,.55l-.33.54a6,6,0,0,1-2.56-.71C294.44,347.55,294.37,346.25,296.25,345.16Z"/><path class="cls-4" d="M306.77,346.78,308,346l1.1.64-1.28.73L305,348.76l-.57-.33Zm2.31,1.33,1.27-.74,1.1.63-1.28.74-2.87,1.35-.57-.32Z"/><path class="cls-2" d="M209.69,319.38l2.12,1.23,8.89-5.13-2.12-1.22.55-.32,2.78,1.61-10,5.75-2.78-1.6Z"/><path class="cls-2" d="M169.87,315.89l.51.3a1.93,1.93,0,0,0,2.31.11c.71-.4,1.25-.79,2-1.24a2.22,2.22,0,0,1,2.17-.21l0,0c-.56-.48-.4-.81.36-1.25s1.49-.79,2.16-1.17.82-.75-.21-1.34l-.51-.29.55-.32.61.35c1.27.74,1.5,1.27.31,2-.8.46-1.6.82-2.33,1.24-.46.26-.62.67.55,1.36l-.6.35c-1.2-.68-1.91-.58-2.37-.32-.77.45-1.3.86-2.14,1.35a3,3,0,0,1-3.4-.18l-.61-.35Z"/><path class="cls-2" d="M128,311.25l2.12,1.22,8.89-5.13-2.12-1.22.54-.31,2.79,1.6-10,5.76-2.78-1.61Z"/><path class="cls-2" d="M87.17,307.15l.51.3a1.93,1.93,0,0,0,2.31.11c.71-.4,1.25-.79,2-1.24a2.22,2.22,0,0,1,2.17-.21l0,0c-.56-.48-.4-.81.36-1.25s1.5-.79,2.16-1.17.82-.75-.2-1.34l-.52-.29.55-.32.61.35c1.27.73,1.5,1.27.31,2-.8.46-1.6.82-2.33,1.24-.45.26-.62.67.55,1.36l-.6.35c-1.2-.68-1.91-.58-2.36-.32-.78.45-1.3.86-2.15,1.35a3,3,0,0,1-3.39-.18l-.62-.35Z"/></svg>