<svg id="Layer_1" data-name="Layer 1" xmlns="http://www.w3.org/2000/svg" width="960" height="540" viewBox="0 0 960 540"><defs><style>.cls-1{fill:#0a1944;}.cls-2{fill:#adb1b5;}.cls-3,.cls-7{fill:#fff;}.cls-4{fill:#edf0f1;}.cls-5{fill:#0e2c47;}.cls-6{fill:#11bfdc;}.cls-7{fill-rule:evenodd;}</style></defs><title>Artboard 3 copy 2</title><path class="cls-1" d="M833.66,158.57l2.85-6.19,2.39,1.38-4.16,8.05v6.09l-2.17-1.25v-6.09l-4.16-12.86,2.39,1.38Z"/><path class="cls-1" d="M839.54,164.41a7.06,7.06,0,0,1,.53-2.94,2.22,2.22,0,0,1,1.51-1.36,3.16,3.16,0,0,1,2.24.51,8,8,0,0,1,3,3.35,11.75,11.75,0,0,1,1.25,5v.65a7.06,7.06,0,0,1-.52,3,2.21,2.21,0,0,1-1.5,1.35,3.18,3.18,0,0,1-2.26-.52,7.9,7.9,0,0,1-3.12-3.54,11.93,11.93,0,0,1-1.17-5.29Zm2.07,1.44a8.47,8.47,0,0,0,.59,3.31,4,4,0,0,0,1.63,2c.7.4,1.25.35,1.63-.15a5,5,0,0,0,.59-2.86,8.52,8.52,0,0,0-.6-3.3,4,4,0,0,0-1.63-2c-.68-.39-1.22-.35-1.61.14A4.8,4.8,0,0,0,841.61,165.85Z"/><path class="cls-1" d="M855.89,178.91c-.61.6-1.47.58-2.59-.07a5.55,5.55,0,0,1-2.28-2.48,8.84,8.84,0,0,1-.77-3.83v-8l2.07,1.2v7.93a3.35,3.35,0,0,0,1.46,3.18c1,.59,1.69.5,2-.26v-8.83l2.07,1.19v12.3l-1.95-1.13Z"/><path class="cls-1" d="M865.26,175.75a5.65,5.65,0,0,0-.84-.57c-.95-.55-1.59-.44-1.92.34v8.41l-2.07-1.19v-12.3l2,1.14.05,1.41a1.36,1.36,0,0,1,2.08-.4,2.87,2.87,0,0,1,.73.58Z"/><path class="cls-1" d="M877.3,192.48a7.92,7.92,0,0,1-.24-1.29,2,2,0,0,1-2.42,0,6.18,6.18,0,0,1-2.27-2.37,6.36,6.36,0,0,1-.87-3.12c0-1.31.36-2.1,1.09-2.38s1.78,0,3.14.76l1.26.73V184a3.86,3.86,0,0,0-.4-1.76,3,3,0,0,0-1.21-1.28,1.27,1.27,0,0,0-1.16-.19.91.91,0,0,0-.46.93l-2.07-1.19a2.35,2.35,0,0,1,.51-1.6,1.67,1.67,0,0,1,1.36-.59,3.82,3.82,0,0,1,1.93.61,7,7,0,0,1,2.59,2.58,7.25,7.25,0,0,1,1,3.62v5.54a10.3,10.3,0,0,0,.34,2.85v.2ZM875,189.17a1.69,1.69,0,0,0,1.15.27,1,1,0,0,0,.81-.6v-2.31l-1.11-.65a2.3,2.3,0,0,0-1.73-.46c-.39.13-.58.52-.58,1.17a3.05,3.05,0,0,0,.39,1.5A2.78,2.78,0,0,0,875,189.17Z"/><path class="cls-1" d="M889.75,193.64a6.29,6.29,0,0,1-1,4c-.65.76-1.52.82-2.61.19a6.16,6.16,0,0,1-2.43-2.73v5.83l-2.07-1.2v-17l1.91,1.1.08,1.3c.61-.63,1.44-.65,2.48,0a6.45,6.45,0,0,1,2.65,3.2,13.09,13.09,0,0,1,1,5.21Zm-2.07-1.43a8.73,8.73,0,0,0-.55-3.24,3.79,3.79,0,0,0-1.57-2c-.85-.49-1.45-.37-1.82.35v5.45a4.2,4.2,0,0,0,1.84,2.5c.66.38,1.17.32,1.55-.17A5.22,5.22,0,0,0,887.68,192.21Z"/><path class="cls-1" d="M900,199.56c0,1.91-.32,3.24-1,4s-1.52.83-2.61.2A6.27,6.27,0,0,1,894,201v5.82l-2.07-1.19v-17l1.91,1.1.09,1.3c.6-.64,1.43-.65,2.48-.05a6.51,6.51,0,0,1,2.64,3.21,13,13,0,0,1,1,5.2ZM898,198.14a8.94,8.94,0,0,0-.55-3.24,3.8,3.8,0,0,0-1.57-2c-.85-.49-1.46-.37-1.83.34v5.46a4.22,4.22,0,0,0,1.84,2.49c.66.38,1.18.33,1.55-.17A5.19,5.19,0,0,0,898,198.14Z"/><path class="cls-2" d="M300.46,449.54,71.08,317.11c-5.35-3.1-4.68-8.5,1.5-12.07L561.2,23.42c6.18-3.57,15.54-4,20.89-.87L811.47,155c5.36,3.09,4.68,8.49-1.5,12.06L321.36,448.67C315.17,452.24,305.82,452.63,300.46,449.54Z"/><path class="cls-3" d="M330.66,420.24,122.24,299.91c-2.75-1.59-2.41-4.37.78-6.21L484,85.29c3.19-1.84,8-2,10.76-.44L703.16,205.17c2.76,1.6,2.41,4.38-.77,6.21l-361,208.41C338.23,421.63,333.41,421.83,330.66,420.24Z"/><path class="cls-4" d="M598,251.86l-90.51-52.25c-.83-.48-.73-1.32.23-1.87l18.94-10.93a3.57,3.57,0,0,1,3.22-.13l90.52,52.25c.82.48.72,1.32-.24,1.87l-18.93,10.93A3.59,3.59,0,0,1,598,251.86Z"/><path class="cls-4" d="M562.51,272.36,472,220.1c-.82-.48-.72-1.31.24-1.87l18.93-10.93a3.59,3.59,0,0,1,3.23-.13l90.51,52.26c.83.47.73,1.31-.23,1.86l-18.94,10.93A3.6,3.6,0,0,1,562.51,272.36Z"/><path class="cls-4" d="M527,292.85,436.5,240.59c-.83-.48-.72-1.31.23-1.86l18.94-10.94a3.59,3.59,0,0,1,3.23-.13l90.51,52.26c.83.47.72,1.31-.23,1.86l-18.94,10.93A3.6,3.6,0,0,1,527,292.85Z"/><path class="cls-4" d="M491.52,313.34,401,261.08c-.83-.48-.72-1.31.23-1.86l18.94-10.94a3.57,3.57,0,0,1,3.22-.13l90.52,52.26c.82.48.72,1.31-.23,1.86L494.75,313.2A3.56,3.56,0,0,1,491.52,313.34Z"/><path class="cls-4" d="M456,333.83l-90.51-52.26c-.83-.48-.73-1.31.23-1.86l18.93-10.93a3.59,3.59,0,0,1,3.23-.14l90.51,52.26c.83.48.73,1.31-.23,1.86L459.26,333.7A3.59,3.59,0,0,1,456,333.83Z"/><path class="cls-4" d="M420.54,354.32,330,302.06c-.82-.47-.72-1.31.23-1.86l18.94-10.93a3.62,3.62,0,0,1,3.23-.14l90.51,52.26c.83.48.72,1.31-.23,1.87l-18.94,10.93A3.57,3.57,0,0,1,420.54,354.32Z"/><path class="cls-5" d="M421.94,140l8-4.59,1.16.67c-.2.43-.46,1-.79,1.78l-.92,2.08c-.28.63-.56,1.22-.82,1.78l6.15-3.55,1,.6-8,4.59-1.17-.67.78-1.78c.32-.76.62-1.45.9-2.08s.55-1.23.82-1.79L423,140.59Z"/><path class="cls-5" d="M431.4,145.61a2,2,0,0,1-.79-.74,1,1,0,0,1-.09-.8,2.19,2.19,0,0,1,.49-.79,4.18,4.18,0,0,1,.93-.7,6.44,6.44,0,0,1,1.28-.56,6.93,6.93,0,0,1,1.41-.29,5.56,5.56,0,0,1,1.41.05,3.7,3.7,0,0,1,1.25.44,1.37,1.37,0,0,1,.63.64.9.9,0,0,1,0,.72l.73-.43,1,.6L434.05,147l-1.06-.61.84-.48a4.73,4.73,0,0,1-1.3.06A3,3,0,0,1,431.4,145.61Zm1.14-.49a2.45,2.45,0,0,0,1.57.29,4.79,4.79,0,0,0,1.77-.63,2.17,2.17,0,0,0,1.05-1c.12-.34-.05-.64-.51-.91a2.62,2.62,0,0,0-1.6-.31,4.51,4.51,0,0,0-1.77.61,2.23,2.23,0,0,0-1.05,1C431.89,144.53,432.06,144.84,432.54,145.12Z"/><path class="cls-5" d="M435.54,147.86l3.91-2.26.67-.4.58-.38.38-.24,1.12.64-.8.46a3.77,3.77,0,0,1,1.26-.06,2.9,2.9,0,0,1,1.11.34,1.15,1.15,0,0,1,.58.67.88.88,0,0,1-.23.81,5.56,5.56,0,0,1,1.51-.06,3.06,3.06,0,0,1,1.25.38c.57.33.79.69.68,1.1a2.53,2.53,0,0,1-1.27,1.23l-3.44,2-1.06-.62,3.35-1.93a4,4,0,0,0,.63-.44.73.73,0,0,0,.27-.44c0-.15-.07-.27-.25-.38a2.53,2.53,0,0,0-1.39-.25,3.33,3.33,0,0,0-1.47.42l-3.19,1.84-1.06-.61,3.44-2a3.2,3.2,0,0,0,.43-.3,1.46,1.46,0,0,0,.3-.31.36.36,0,0,0,0-.33.55.55,0,0,0-.29-.3,2.39,2.39,0,0,0-1.3-.27,2.84,2.84,0,0,0-1.33.35l-3.38,1.95Z"/><path class="cls-5" d="M446.48,154.32q-1.19-.69-1.08-1.56c.07-.58.55-1.12,1.42-1.62a6.15,6.15,0,0,1,1.77-.69,5.93,5.93,0,0,1,1.92-.13,4.19,4.19,0,0,1,1.71.52,1.85,1.85,0,0,1,.74.69.88.88,0,0,1,.06.74,2.2,2.2,0,0,1-.54.75,5.07,5.07,0,0,1-1,.73l-.27.13-3.46-2c-.56.34-.84.68-.85,1s.21.62.67.89a4.65,4.65,0,0,0,2.14.53l-.6.69A5.86,5.86,0,0,1,446.48,154.32Zm2.11-2.9,2.51,1.45c.4-.28.61-.54.64-.79s-.11-.47-.43-.66a2.52,2.52,0,0,0-1.25-.31A4.17,4.17,0,0,0,448.59,151.42Z"/><path class="cls-5" d="M454.82,159.15q-1.05-.61-1.08-1.38c0-.52.35-1,1.09-1.42a4.27,4.27,0,0,1,.91-.38,4.45,4.45,0,0,1,1-.17,8,8,0,0,1,1,0c.3,0,.64,0,1,.08a2.67,2.67,0,0,1,.3-.83,1.8,1.8,0,0,1,.67-.59,3.4,3.4,0,0,1,3.33,0,2.41,2.41,0,0,1,.54.42,1.09,1.09,0,0,1,.25.49.69.69,0,0,1-.13.52,1.65,1.65,0,0,1-.58.51,5.43,5.43,0,0,1-3.19.43l-.4,2a10.36,10.36,0,0,0,3.09-1.17l.75.69a11.1,11.1,0,0,1-1.93.85,12.43,12.43,0,0,1-2.1.53,1.7,1.7,0,0,0,.48,1.43l-1.42,0a1.21,1.21,0,0,1-.42-.61,1.93,1.93,0,0,1,0-.76A5.85,5.85,0,0,1,454.82,159.15Zm1.06-.61a3,3,0,0,0,1,.35,5.9,5.9,0,0,0,1.22.06l.43-2.3-.7-.06h-.65a3,3,0,0,0-.68.12,2.9,2.9,0,0,0-.61.25c-.4.24-.6.5-.6.79A1,1,0,0,0,455.88,158.54ZM460,156a3.66,3.66,0,0,0,2-.21q.35-.21.33-.42a.46.46,0,0,0-.28-.36,1.2,1.2,0,0,0-.66-.17,1.43,1.43,0,0,0-.71.19A1.31,1.31,0,0,0,460,156Z"/><path class="cls-5" d="M464.61,164.78a2.87,2.87,0,0,1-.93-.78,1.58,1.58,0,0,1-.32-.74l1.17-.36a1.36,1.36,0,0,0,.3.67,2.09,2.09,0,0,0,.68.6,1.47,1.47,0,0,0,1.56.07c.18-.1.26-.22.24-.34a1.65,1.65,0,0,0-.36-.65l-.28-.36a2.81,2.81,0,0,1-.28-.45,1,1,0,0,1-.11-.4.67.67,0,0,1,.16-.42,2.07,2.07,0,0,1,.53-.41,3.15,3.15,0,0,1,.88-.34,3.07,3.07,0,0,1,.9-.05,4.62,4.62,0,0,1,.84.16,4.5,4.5,0,0,1,.74.33,3.1,3.1,0,0,1,.8.63,1.53,1.53,0,0,1,.38.65l-1.14.33a1.91,1.91,0,0,0-.34-.52,2.12,2.12,0,0,0-.56-.47,1.39,1.39,0,0,0-1.42-.15c-.17.1-.25.21-.24.32a1.81,1.81,0,0,0,.31.57l.15.19.14.2a2.41,2.41,0,0,1,.25.37,1.26,1.26,0,0,1,.13.34.59.59,0,0,1,0,.35,1,1,0,0,1-.24.33,2,2,0,0,1-.48.36,3.08,3.08,0,0,1-.95.37,2.83,2.83,0,0,1-.95.07,4.07,4.07,0,0,1-.83-.16A3.33,3.33,0,0,1,464.61,164.78Z"/><path class="cls-5" d="M469.33,167.51c-.61-.35-.87-.74-.79-1.16s.46-.82,1.13-1.2l3.52-2,1.05.61-3.51,2c-.41.23-.63.46-.66.68s.13.43.46.62a2.16,2.16,0,0,0,1.21.3,3.14,3.14,0,0,0,1.33-.43l3.35-1.94,1.06.61-4.14,2.4c-.47.27-.94.56-1.42.87l-1.09-.63.84-.5-.46.08a5,5,0,0,1-.58,0,2.66,2.66,0,0,1-.67-.08A2.51,2.51,0,0,1,469.33,167.51Z"/><path class="cls-5" d="M473.41,169.72l4.21-2.43c.16-.09.34-.2.56-.35s.41-.26.55-.36l.22-.14,1.13.65-.8.46a3.41,3.41,0,0,1,2.18.17,1.65,1.65,0,0,1,.41.33l-1.08.63a1.53,1.53,0,0,0-.46-.4,2.11,2.11,0,0,0-1.23-.24,3.46,3.46,0,0,0-1.47.47l-3.15,1.83Z"/><path class="cls-5" d="M477.18,171.9l3.7-2.14c.34-.2.67-.39,1-.58l.66-.43.21-.14,1.11.65-.79.45a4.49,4.49,0,0,1,1.37,0,3.15,3.15,0,0,1,1.11.36c.6.34.84.72.73,1.14s-.63.88-1.54,1.4l-3.14,1.82-1.06-.61,3.18-1.84a2.51,2.51,0,0,0,1-.82c.11-.23,0-.44-.36-.64a2.7,2.7,0,0,0-1.3-.28,2.6,2.6,0,0,0-1.35.29l-3.43,2Z"/><path class="cls-5" d="M485,176.53a1.92,1.92,0,0,1-.78-.73,1,1,0,0,1-.09-.81,1.85,1.85,0,0,1,.49-.78,3.66,3.66,0,0,1,.92-.71,7.07,7.07,0,0,1,1.28-.56,6.9,6.9,0,0,1,1.41-.28,5.13,5.13,0,0,1,1.41.05,3.84,3.84,0,0,1,1.26.44,1.33,1.33,0,0,1,.62.63.86.86,0,0,1,0,.72l.73-.42,1,.6-5.61,3.24-1.06-.61.85-.49a4.8,4.8,0,0,1-1.31.06A2.88,2.88,0,0,1,485,176.53Zm1.14-.49a2.4,2.4,0,0,0,1.57.29,4.7,4.7,0,0,0,1.77-.62,2.23,2.23,0,0,0,1.05-1q.18-.51-.51-.9a2.47,2.47,0,0,0-1.6-.31,4.62,4.62,0,0,0-1.77.61,2.11,2.11,0,0,0-1,1C485.45,175.46,485.63,175.77,486.1,176Z"/><path class="cls-5" d="M489.11,178.78l3.9-2.25.67-.41.58-.37.38-.25,1.12.64-.8.46a3.53,3.53,0,0,1,1.26,0,2.74,2.74,0,0,1,1.11.34,1.13,1.13,0,0,1,.59.66.92.92,0,0,1-.24.82,6,6,0,0,1,1.51-.07,3.22,3.22,0,0,1,1.25.38c.57.33.79.7.68,1.1a2.5,2.5,0,0,1-1.26,1.23l-3.44,2-1.06-.61,3.34-1.93a4.78,4.78,0,0,0,.63-.44.76.76,0,0,0,.27-.44c0-.15-.07-.28-.25-.38A2.35,2.35,0,0,0,498,179a3.33,3.33,0,0,0-1.47.41l-3.19,1.84-1.06-.61,3.44-2a3.36,3.36,0,0,0,.44-.29,2.09,2.09,0,0,0,.29-.31.43.43,0,0,0,.06-.34.62.62,0,0,0-.3-.3,2.37,2.37,0,0,0-1.3-.27,3,3,0,0,0-1.33.35l-3.37,1.95Z"/><path class="cls-5" d="M500.05,185.24c-.8-.46-1.16-1-1.09-1.55s.55-1.12,1.43-1.63a6.52,6.52,0,0,1,1.77-.69,5.63,5.63,0,0,1,1.92-.12,4,4,0,0,1,1.7.52,1.77,1.77,0,0,1,.74.68.9.9,0,0,1,.06.75,2.39,2.39,0,0,1-.53.74,5.17,5.17,0,0,1-1,.73,1.67,1.67,0,0,1-.27.14l-3.46-2c-.56.34-.84.68-.85,1s.21.63.67.89a4.56,4.56,0,0,0,2.14.53l-.6.69A5.54,5.54,0,0,1,500.05,185.24Zm2.1-2.89,2.51,1.45c.4-.28.62-.55.65-.8a.69.69,0,0,0-.44-.65,2.42,2.42,0,0,0-1.25-.31A3.77,3.77,0,0,0,502.15,182.35Z"/><path class="cls-5" d="M522.57,199.48a3.35,3.35,0,0,0,.61.46,1.54,1.54,0,0,0,1,.21,3.48,3.48,0,0,0,1.29-.51l7.85-4.53.8.46-7.87,4.53a5.07,5.07,0,0,1-2,.76,2.79,2.79,0,0,1-1.71-.39,5.27,5.27,0,0,1-.74-.53Z"/><path class="cls-5" d="M528.85,201.4a1.16,1.16,0,0,1,.21-1.05,3.74,3.74,0,0,1,1.26-1.06,6.8,6.8,0,0,1,1.83-.73,5.73,5.73,0,0,1,1.83-.12,4,4,0,0,1,1.57.49,1.74,1.74,0,0,1,.85.91,1.18,1.18,0,0,1-.21,1.06,3.84,3.84,0,0,1-1.26,1,6.49,6.49,0,0,1-1.83.73,5.73,5.73,0,0,1-1.83.12,4,4,0,0,1-1.57-.49A1.74,1.74,0,0,1,528.85,201.4Zm3.27.8a5.19,5.19,0,0,0,2-.71,2.5,2.5,0,0,0,1.2-1.15c.11-.37-.07-.69-.54-1a2.76,2.76,0,0,0-1.69-.31,4.89,4.89,0,0,0-2,.69c-.71.41-1.12.79-1.22,1.16s.08.69.56,1A2.74,2.74,0,0,0,532.12,202.2Z"/><path class="cls-5" d="M541,204.68l-3.54,2-.79-.45,3.5-2c.52-.3.81-.58.87-.82s-.1-.48-.49-.7a2.77,2.77,0,0,0-1.56-.35,3.77,3.77,0,0,0-1.71.51l-3.23,1.86-.78-.45,4.05-2.34a16.61,16.61,0,0,0,1.5-1l.75.43-.93.63a4.37,4.37,0,0,1,1.52-.1,3.42,3.42,0,0,1,1.31.42Q543.26,203.39,541,204.68Z"/><path class="cls-5" d="M542.14,208.34l1-.24a1.6,1.6,0,0,0,.33,1,3.16,3.16,0,0,0,1,.84,3.67,3.67,0,0,0,1.65.53,2.66,2.66,0,0,0,1.51-.35c.27-.16.42-.33.44-.51a.85.85,0,0,0-.17-.56,7,7,0,0,0-.65-.72,6.32,6.32,0,0,1-.87-1,1,1,0,0,1-.15-.87,1.62,1.62,0,0,1,.83-.85,4.28,4.28,0,0,1,1.52-.52,5.07,5.07,0,0,1,1.69,0,5.13,5.13,0,0,1,1.61.6,3.23,3.23,0,0,1,1.08.92,1.47,1.47,0,0,1,.3,1l-1,.22a1.68,1.68,0,0,0-.28-1,2.5,2.5,0,0,0-.86-.76,3.55,3.55,0,0,0-1.66-.5,2.81,2.81,0,0,0-1.55.37q-.6.34-.51.75a2.51,2.51,0,0,0,.7,1,13,13,0,0,1,1,1.07,1.09,1.09,0,0,1,.22.85c-.06.3-.31.57-.78.84a4.12,4.12,0,0,1-1.49.51,5.3,5.3,0,0,1-1.68-.06,5.23,5.23,0,0,1-1.63-.62C542.63,209.79,542.11,209.1,542.14,208.34Z"/><path class="cls-5" d="M555.28,212.9l-3.54,2-.78-.45,3.49-2c.52-.3.82-.57.88-.82s-.1-.48-.49-.7a2.83,2.83,0,0,0-1.57-.35,3.74,3.74,0,0,0-1.71.52L548.34,213l-.79-.46,4.06-2.34a17.38,17.38,0,0,0,1.5-1l.74.43-.93.63a4.38,4.38,0,0,1,1.52-.11,3.42,3.42,0,0,1,1.31.42C556.92,211.28,556.77,212,555.28,212.9Z"/><path class="cls-5" d="M554.31,216.1a1.16,1.16,0,0,1,.21-1,3.74,3.74,0,0,1,1.26-1.06,6.8,6.8,0,0,1,1.83-.73,5.73,5.73,0,0,1,1.83-.12,4.13,4.13,0,0,1,1.57.49,1.74,1.74,0,0,1,.85.91,1.18,1.18,0,0,1-.21,1.06,3.9,3.9,0,0,1-1.25,1.05,6.43,6.43,0,0,1-1.84.73,5.17,5.17,0,0,1-1.82.12,4,4,0,0,1-1.58-.49A1.78,1.78,0,0,1,554.31,216.1Zm3.27.8a5,5,0,0,0,2-.71c.69-.4,1.09-.78,1.2-1.15s-.07-.69-.54-1a2.74,2.74,0,0,0-1.68-.31,4.88,4.88,0,0,0-2,.69c-.71.41-1.11.79-1.22,1.16s.08.69.56,1A2.75,2.75,0,0,0,557.58,216.9Z"/><path class="cls-5" d="M571.76,220l-7.44,2.21-.76-.43,3-3.35-5.79,1.74-.76-.44,3.83-4.29.83.48-3.17,3.42,6-1.81.69.4L565,221.37l6-1.82Z"/><path class="cls-5" d="M386.11,160.69l8-4.59,2.35,1.35a5.82,5.82,0,0,1,.71.47,1.92,1.92,0,0,1,.46.49.76.76,0,0,1,.15.52,1.09,1.09,0,0,1-.29.55,3.18,3.18,0,0,1-.79.6,3.84,3.84,0,0,1-1.53.5,3.74,3.74,0,0,1-1.71-.19.78.78,0,0,1,0,.62,2.6,2.6,0,0,1-.46.76l-1.64,1.95-1.17-.68,1.58-1.82c.29-.32.43-.57.42-.74s-.18-.36-.52-.56l-1-.59-3.45,2Zm5.59-2,1.17.67a3.94,3.94,0,0,0,.46.23,2.43,2.43,0,0,0,.48.14,1.86,1.86,0,0,0,.52,0,1.79,1.79,0,0,0,.54-.09,2.49,2.49,0,0,0,.56-.24c.45-.27.66-.5.63-.7s-.26-.43-.7-.69l-1.28-.74Z"/><path class="cls-5" d="M394.49,165.67a3.58,3.58,0,0,1-1.12-.95,1.35,1.35,0,0,1-.32-.93l1.38-.25a1.56,1.56,0,0,0,.32.78,2.54,2.54,0,0,0,3.25.77,1.64,1.64,0,0,0,.38-.26.47.47,0,0,0,.16-.27.55.55,0,0,0-.05-.37,3.52,3.52,0,0,0-.33-.51,3.15,3.15,0,0,0-.2-.26l-.18-.24a2.7,2.7,0,0,1-.5-.88.93.93,0,0,1,.13-.75,2.36,2.36,0,0,1,.85-.73,3.8,3.8,0,0,1,1.51-.5,4.51,4.51,0,0,1,1.56.06,5.23,5.23,0,0,1,1.42.55,4.58,4.58,0,0,1,.94.69,1.6,1.6,0,0,1,.41.58,1.33,1.33,0,0,1,0,.57l-1.4.16a1,1,0,0,0-.22-.69,2.53,2.53,0,0,0-.71-.6,3.28,3.28,0,0,0-1.21-.41,1.84,1.84,0,0,0-1.14.23,1.79,1.79,0,0,0-.46.35.44.44,0,0,0-.05.39,2,2,0,0,0,.35.61l.4.51a1.82,1.82,0,0,1,.51,1.37q-.12.54-1.08,1.08a4.19,4.19,0,0,1-2.45.57,5,5,0,0,1-1.16-.22A4.81,4.81,0,0,1,394.49,165.67Z"/><path class="cls-5" d="M397.67,167.36l10.7-3,1.12.64-5.2,6.2-1.22-.71,1.35-1.58-2.84-1.64-2.72.79Zm5.36-.54,2.11,1.22,2.36-2.57Z"/><path class="cls-5" d="M408.1,173.38l8-4.59,1.09.63-8,4.59Z"/><path class="cls-5" d="M410.94,175l8-4.59,1.78,1c1.37.79,2.07,1.57,2.12,2.36s-.59,1.56-1.91,2.32a7.92,7.92,0,0,1-4,1.14,7.53,7.53,0,0,1-3.91-1.06Zm2.16,0,1,.61a5.11,5.11,0,0,0,2.75.7,6,6,0,0,0,2.85-.87c1-.55,1.45-1.11,1.46-1.65s-.5-1.11-1.48-1.68l-.8-.46Z"/><path class="cls-5" d="M421,180.83l3.7-2.14c.34-.19.66-.38,1-.58l.66-.42.21-.14,1.11.64-.79.46a4.2,4.2,0,0,1,1.37,0,3.62,3.62,0,0,1,1.11.36c.6.35.84.73.73,1.14s-.63.88-1.54,1.41l-3.14,1.81-1.06-.61,3.18-1.84a2.57,2.57,0,0,0,1-.81c.11-.23,0-.44-.37-.65a2.58,2.58,0,0,0-1.29-.27,2.61,2.61,0,0,0-1.36.29l-3.42,2Z"/><path class="cls-5" d="M429,185.57a2.38,2.38,0,0,1-.87-.76,1.12,1.12,0,0,1-.18-.83,1.87,1.87,0,0,1,.46-.81,4,4,0,0,1,1-.75,6.44,6.44,0,0,1,1.79-.71,5.6,5.6,0,0,1,1.92-.1,4.49,4.49,0,0,1,1.78.57,2.39,2.39,0,0,1,.87.77,1,1,0,0,1,.16.81,1.8,1.8,0,0,1-.47.81,4.84,4.84,0,0,1-1,.77,6.54,6.54,0,0,1-1.3.56,7.35,7.35,0,0,1-1.4.26,4.9,4.9,0,0,1-1.42-.09A4.5,4.5,0,0,1,429,185.57Zm1-.57a2.5,2.5,0,0,0,1.59.29,4.61,4.61,0,0,0,1.76-.6,2.29,2.29,0,0,0,1.05-1c.12-.34-.05-.65-.51-.91a2.53,2.53,0,0,0-1.6-.3,4.64,4.64,0,0,0-1.78.6,2.16,2.16,0,0,0-1,1C429.3,184.41,429.48,184.72,430,185Z"/><path class="cls-5" d="M496.36,220.46a1.72,1.72,0,0,1-.88.93,4.09,4.09,0,0,1-2.27.54,5.09,5.09,0,0,1-2.4-.7c-.75-.43-1.16-.9-1.21-1.38s.26-.92.94-1.31a4,4,0,0,1,1.63-.51,4.65,4.65,0,0,1,1.78.19,1,1,0,0,1-.25-.95,1.66,1.66,0,0,1,.82-.85,3.81,3.81,0,0,1,1.41-.48,4.56,4.56,0,0,1,1.56.05,4.82,4.82,0,0,1,1.47.54,2.55,2.55,0,0,1,.94.85,1,1,0,0,1,.08.9,1.77,1.77,0,0,1-.82.81,3.68,3.68,0,0,1-1.49.47,4.51,4.51,0,0,1-1.63-.13A1.05,1.05,0,0,1,496.36,220.46Zm-3.15.83a2.72,2.72,0,0,0,1.54-.38c.44-.26.64-.55.6-.88a1.58,1.58,0,0,0-.74-1,4.69,4.69,0,0,0-1.71-.43,2.74,2.74,0,0,0-1.52.35c-.49.28-.71.58-.67.89s.32.63.87.94A3.39,3.39,0,0,0,493.21,221.29Zm1.42-3.54a1.26,1.26,0,0,0,.62.92,3.84,3.84,0,0,0,1.6.36,2.72,2.72,0,0,0,1.45-.36c.44-.25.65-.53.63-.83s-.26-.59-.74-.87a3.13,3.13,0,0,0-1.5-.43,2.86,2.86,0,0,0-1.44.37C494.82,217.16,494.62,217.44,494.63,217.75Z"/><path class="cls-5" d="M499.82,225.45l-.77.45-4.44-2.57.69-.4,5.51-.39a13.89,13.89,0,0,0,1.84-.24,4.32,4.32,0,0,0,1.23-.46c.44-.25.67-.51.68-.77s-.18-.51-.59-.75a6,6,0,0,0-2.87-.6l.4-.58a6.52,6.52,0,0,1,1.74.18,5,5,0,0,1,1.52.57c.64.36.95.76.94,1.19s-.33.83-1,1.2a6,6,0,0,1-1.59.61,14.41,14.41,0,0,1-2.3.3l-4.43.29Z"/><path class="cls-5" d="M505.64,228.81l-.77.44-4.44-2.56.69-.4,5.51-.39a15.31,15.31,0,0,0,1.83-.24,4.28,4.28,0,0,0,1.24-.46c.44-.25.66-.51.68-.77s-.18-.52-.59-.75a6.06,6.06,0,0,0-2.88-.6l.41-.58a6.52,6.52,0,0,1,1.74.18,5.3,5.3,0,0,1,1.52.56c.64.37.95.77.94,1.2s-.33.83-1,1.2a6,6,0,0,1-1.59.61,14.57,14.57,0,0,1-2.3.3l-4.43.29Z"/><path class="cls-5" d="M507.5,229.68a5.62,5.62,0,0,1,2.42-2.11,10.59,10.59,0,0,1,3.66-1.4,4.25,4.25,0,0,1,2.83.44c.79.45,1,1,.76,1.64a5.7,5.7,0,0,1-2.41,2.1,10.52,10.52,0,0,1-3.66,1.4,4.28,4.28,0,0,1-2.84-.43C507.47,230.86,507.22,230.32,507.5,229.68Zm3.55,1.43a10.27,10.27,0,0,0,2.91-1.22,6.14,6.14,0,0,0,2.09-1.66c.28-.46.13-.85-.42-1.17a2.84,2.84,0,0,0-2-.24,9.58,9.58,0,0,0-2.88,1.21,6,6,0,0,0-2.11,1.67c-.28.46-.15.85.4,1.17A2.81,2.81,0,0,0,511.05,231.11Z"/><path class="cls-5" d="M517.28,235.53l-.78.44-4.44-2.56.7-.4,5.5-.39a13.47,13.47,0,0,0,1.84-.25,4.4,4.4,0,0,0,1.23-.45q.66-.37.69-.78c0-.26-.19-.51-.59-.74a6.06,6.06,0,0,0-2.88-.6l.41-.58a6.52,6.52,0,0,1,1.74.18,5.41,5.41,0,0,1,1.52.56c.63.37.95.77.94,1.2s-.34.83-1,1.2a5.78,5.78,0,0,1-1.58.6,13.35,13.35,0,0,1-2.31.31l-4.43.29Z"/><path class="cls-5" d="M519.13,236.4a5.66,5.66,0,0,1,2.43-2.11,10.48,10.48,0,0,1,3.65-1.4,4.28,4.28,0,0,1,2.84.44c.79.45,1,1,.76,1.63a5.64,5.64,0,0,1-2.41,2.11,10.59,10.59,0,0,1-3.66,1.4,4.2,4.2,0,0,1-2.84-.44C519.11,237.58,518.85,237,519.13,236.4Zm3.56,1.43a9.9,9.9,0,0,0,2.9-1.23,6,6,0,0,0,2.1-1.66c.27-.45.13-.84-.43-1.16a2.79,2.79,0,0,0-2-.24,9.53,9.53,0,0,0-2.88,1.21,6.13,6.13,0,0,0-2.11,1.67c-.28.46-.14.85.41,1.17A2.81,2.81,0,0,0,522.69,237.83Z"/><path class="cls-5" d="M531.92,239.46a1,1,0,0,1-.14.95,3,3,0,0,1-1.06.91,5.37,5.37,0,0,1-1.62.61,5.19,5.19,0,0,1-1.71,0,4.31,4.31,0,0,1-1.56-.53,3,3,0,0,1-1-.87,1.53,1.53,0,0,1-.3-1l1-.23a1.92,1.92,0,0,0,1.06,1.66,2.94,2.94,0,0,0,1.61.39,3.85,3.85,0,0,0,1.71-.51c.52-.31.82-.63.87-1s-.15-.65-.6-.91a3.94,3.94,0,0,0-2.51-.37l-.55-.32,4.67-2.7L536,238l-.76.44-3.35-1.93L529,238.14a4,4,0,0,1,2.1.48A1.73,1.73,0,0,1,531.92,239.46Z"/><path class="cls-5" d="M530.77,243.12a5.68,5.68,0,0,1,2.42-2.11,10.39,10.39,0,0,1,3.66-1.4,4.18,4.18,0,0,1,2.83.44c.79.45,1.05,1,.77,1.63a5.68,5.68,0,0,1-2.42,2.11,10.45,10.45,0,0,1-3.66,1.4,4.28,4.28,0,0,1-2.84-.44C530.74,244.3,530.49,243.75,530.77,243.12Zm3.56,1.42a9.67,9.67,0,0,0,2.9-1.22,6,6,0,0,0,2.1-1.66c.27-.45.13-.84-.43-1.16a2.79,2.79,0,0,0-2-.24,9.73,9.73,0,0,0-2.88,1.2,6,6,0,0,0-2.11,1.68c-.28.46-.14.85.41,1.17A2.85,2.85,0,0,0,534.33,244.54Z"/><path class="cls-5" d="M543.54,246.17a1.06,1.06,0,0,1-.14,1,2.89,2.89,0,0,1-1,.91,5,5,0,0,1-1.61.6,5.43,5.43,0,0,1-1.7.07,3.85,3.85,0,0,1-1.48-.47c-.83-.48-1.14-1.05-.92-1.7a4.58,4.58,0,0,1,2.19-2,12,12,0,0,1,2.62-1.15,7.12,7.12,0,0,1,2.38-.32,4.14,4.14,0,0,1,1.93.53,2.58,2.58,0,0,1,.92.83,1.56,1.56,0,0,1,.26,1l-1,.23a2,2,0,0,0-.24-.93A1.83,1.83,0,0,0,545,244a3.4,3.4,0,0,0-2.3-.27,9.26,9.26,0,0,0-3.07,1.2l-.17.1a4.61,4.61,0,0,1,1.73-.16,3.66,3.66,0,0,1,1.53.45A1.71,1.71,0,0,1,543.54,246.17Zm-3.68,1.94a3.73,3.73,0,0,0,1.7-.51c.53-.31.82-.64.87-1s-.14-.65-.58-.9a3,3,0,0,0-1.6-.36,3.72,3.72,0,0,0-1.7.49c-.53.31-.82.64-.86,1s.16.67.62.93A2.7,2.7,0,0,0,539.86,248.11Z"/><path class="cls-5" d="M549.37,249.54a1,1,0,0,1-.13,1,3.08,3.08,0,0,1-1.06.91,5.37,5.37,0,0,1-1.62.61,5.24,5.24,0,0,1-1.72.05,4.32,4.32,0,0,1-1.55-.53,3.11,3.11,0,0,1-1-.87,1.54,1.54,0,0,1-.31-1l1-.24a1.93,1.93,0,0,0,1,1.67,2.88,2.88,0,0,0,1.62.38,3.57,3.57,0,0,0,1.7-.51,1.56,1.56,0,0,0,.88-1c0-.34-.15-.65-.6-.91a3.94,3.94,0,0,0-2.51-.37l-.56-.32,4.67-2.7,4.14,2.39-.76.44-3.34-1.93-2.85,1.64a3.84,3.84,0,0,1,2.1.48A1.68,1.68,0,0,1,549.37,249.54Z"/><path class="cls-5" d="M548.22,253.19a5.79,5.79,0,0,1,2.43-2.11,10.68,10.68,0,0,1,3.65-1.4,4.33,4.33,0,0,1,2.84.44c.79.46,1,1,.76,1.64a5.57,5.57,0,0,1-2.41,2.1,10.63,10.63,0,0,1-3.66,1.41,4.27,4.27,0,0,1-2.84-.44C548.2,254.38,547.94,253.83,548.22,253.19Zm3.56,1.43a9.84,9.84,0,0,0,2.9-1.22,6,6,0,0,0,2.1-1.66c.27-.45.13-.84-.42-1.16a2.86,2.86,0,0,0-2-.25,9.92,9.92,0,0,0-2.87,1.21,6,6,0,0,0-2.11,1.67c-.28.47-.15.86.4,1.17A2.81,2.81,0,0,0,551.78,254.62Z"/><path class="cls-5" d="M560.36,257.41a1.72,1.72,0,0,1-.88.93,4.08,4.08,0,0,1-2.27.55,5.14,5.14,0,0,1-2.39-.71c-.76-.43-1.16-.89-1.22-1.38s.26-.92.94-1.31a3.85,3.85,0,0,1,1.64-.5,4.48,4.48,0,0,1,1.78.18.92.92,0,0,1-.25-.95,1.63,1.63,0,0,1,.81-.85,3.81,3.81,0,0,1,1.41-.48,4.83,4.83,0,0,1,1.56.05,4.72,4.72,0,0,1,1.47.54,2.55,2.55,0,0,1,.94.85,1,1,0,0,1,.08.9,1.77,1.77,0,0,1-.82.81,3.63,3.63,0,0,1-1.48.47,4.33,4.33,0,0,1-1.64-.13A1.05,1.05,0,0,1,560.36,257.41Zm-3.15.84a2.87,2.87,0,0,0,1.55-.39c.44-.26.64-.55.59-.88a1.58,1.58,0,0,0-.74-1,4.48,4.48,0,0,0-1.71-.42,2.74,2.74,0,0,0-1.52.34c-.48.28-.71.58-.67.89s.33.63.87.94A3.56,3.56,0,0,0,557.21,258.25Zm1.42-3.55a1.29,1.29,0,0,0,.62.92,3.84,3.84,0,0,0,1.6.36,2.72,2.72,0,0,0,1.45-.36c.44-.25.65-.53.64-.83s-.27-.59-.74-.87a3,3,0,0,0-1.51-.42,2.75,2.75,0,0,0-1.44.36C558.83,254.11,558.62,254.39,558.63,254.7Z"/><path class="cls-5" d="M563.67,262.31l-.77.45-3.85-2.23.77-.44,1.52.88,6.06-3.5-2.46-.22.89-.51,3.06.27.46.26-7.2,4.16Z"/><path class="cls-5" d="M353.18,183.19a3.74,3.74,0,0,1-.88-.69,1.9,1.9,0,0,1-.43-.83,1.67,1.67,0,0,1,.05-.91,2.59,2.59,0,0,1,.64-1,5.74,5.74,0,0,1,1.26-.94,8.67,8.67,0,0,1,2-.86,8.49,8.49,0,0,1,2-.33,7.58,7.58,0,0,1,1.87.16,5,5,0,0,1,1.56.57,2.37,2.37,0,0,1,1.41,1.79l-1.3.25a2,2,0,0,0-1.1-1.37,3.86,3.86,0,0,0-1.57-.46,6,6,0,0,0-1.91.16,6.64,6.64,0,0,0-1.88.74q-1.38.8-1.53,1.65t.87,1.44a5.77,5.77,0,0,0,2.72.65l-.63.79A6.93,6.93,0,0,1,353.18,183.19Z"/><path class="cls-5" d="M359,186.57c-.8-.46-1.16-1-1.09-1.56s.55-1.12,1.43-1.62a6.21,6.21,0,0,1,1.77-.69,5.93,5.93,0,0,1,1.92-.13,4.39,4.39,0,0,1,1.71.52,1.92,1.92,0,0,1,.74.69.84.84,0,0,1,.05.74,2,2,0,0,1-.53.75,5.39,5.39,0,0,1-1,.73,1.46,1.46,0,0,1-.28.13l-3.45-2c-.56.34-.84.68-.86,1s.22.63.68.89a4.52,4.52,0,0,0,2.13.53l-.6.69A5.54,5.54,0,0,1,359,186.57Zm2.11-2.89,2.5,1.44a1.29,1.29,0,0,0,.65-.79c0-.25-.12-.47-.43-.66a2.55,2.55,0,0,0-1.26-.3A3.69,3.69,0,0,0,361.13,183.68Z"/><path class="cls-5" d="M362.44,188.4l8-4.64,1.06.61-8,4.64Z"/><path class="cls-5" d="M364.94,189.84l8-4.63,1.06.61-8,4.63Z"/><path class="cls-5" d="M365.26,192.59l6.06-3.5c.21-.12.78-.48,1.7-1.06l1.12.65-.87.5a3,3,0,0,1,1.22-.1,3.24,3.24,0,0,1,1.32.4,1.39,1.39,0,0,1,.75.88,1.26,1.26,0,0,1-.29,1,4,4,0,0,1-1.2,1,6.77,6.77,0,0,1-1.73.71,6.23,6.23,0,0,1-1.86.19,3.52,3.52,0,0,1-1.58-.43,1.3,1.3,0,0,1-.68-.75.63.63,0,0,1,.12-.66l-3,1.75Zm5.41-.44a2.29,2.29,0,0,0,1.51.24,4.87,4.87,0,0,0,1.74-.62,2.43,2.43,0,0,0,1.07-1q.21-.51-.42-.87a2.34,2.34,0,0,0-1.53-.25,4.89,4.89,0,0,0-1.76.62,2.34,2.34,0,0,0-1.06,1C370.09,191.6,370.24,191.9,370.67,192.15Z"/><path class="cls-5" d="M373.41,194.73l8-4.63,1.06.61-3.2,1.85a3.81,3.81,0,0,1,1.31,0,3.39,3.39,0,0,1,1.14.37,1.52,1.52,0,0,1,.6.53.71.71,0,0,1,.12.53,1.19,1.19,0,0,1-.26.53,3,3,0,0,1-.51.49,5.64,5.64,0,0,1-.65.43l-3.22,1.86-1.06-.61L380,194.8a2.19,2.19,0,0,0,.94-.8c.09-.23,0-.43-.35-.61a2.61,2.61,0,0,0-1.36-.31,2.71,2.71,0,0,0-1.38.31l-3.39,2Z"/><path class="cls-5" d="M381.41,199.49a2.38,2.38,0,0,1-.87-.76,1.12,1.12,0,0,1-.18-.83,1.77,1.77,0,0,1,.46-.81,4.26,4.26,0,0,1,1-.75,6.5,6.5,0,0,1,1.78-.71,5.93,5.93,0,0,1,1.93-.1,4.49,4.49,0,0,1,1.78.57,2.49,2.49,0,0,1,.87.77,1,1,0,0,1,.16.81,1.8,1.8,0,0,1-.47.81,4.52,4.52,0,0,1-1,.77,6.54,6.54,0,0,1-1.3.56,6.65,6.65,0,0,1-1.4.26,4.88,4.88,0,0,1-1.42-.09A4.24,4.24,0,0,1,381.41,199.49Zm1-.57a2.44,2.44,0,0,0,1.59.29,4.51,4.51,0,0,0,1.75-.6,2.23,2.23,0,0,0,1.05-1c.13-.35,0-.66-.5-.92a2.53,2.53,0,0,0-1.6-.3,4.64,4.64,0,0,0-1.78.6,2.16,2.16,0,0,0-1,1C381.75,198.34,381.93,198.65,382.4,198.92Z"/><path class="cls-5" d="M385.32,201.61l3.7-2.14c.34-.19.66-.39,1-.58l.66-.42.2-.14L392,199l-.8.46a4.26,4.26,0,0,1,1.38,0,3.15,3.15,0,0,1,1.11.36q.9.53.72,1.14t-1.53,1.41l-3.15,1.81-1.06-.61,3.19-1.84a2.51,2.51,0,0,0,1-.82c.11-.22,0-.44-.37-.64a3.17,3.17,0,0,0-2.65,0l-3.42,2Z"/><path class="cls-5" d="M393.33,206.38c-.8-.46-1.16-1-1.09-1.56s.55-1.12,1.43-1.62a6.31,6.31,0,0,1,3.69-.82,4.14,4.14,0,0,1,1.7.52,1.88,1.88,0,0,1,.75.69.84.84,0,0,1,.05.74,2,2,0,0,1-.53.75,5.39,5.39,0,0,1-1,.73,1.46,1.46,0,0,1-.28.13l-3.45-2c-.56.34-.85.68-.86,1s.22.63.67.89a4.71,4.71,0,0,0,2.14.53l-.6.69A5.66,5.66,0,0,1,393.33,206.38Zm2.1-2.9,2.51,1.45c.4-.28.62-.54.65-.79s-.12-.47-.43-.66a2.45,2.45,0,0,0-1.26-.3A3.94,3.94,0,0,0,395.43,203.48Z"/><path class="cls-5" d="M399.62,209.86l3.7-2.14q.51-.28,1-.57c.31-.19.53-.34.66-.43l.21-.14,1.11.64-.79.46a4.2,4.2,0,0,1,1.37,0A3.62,3.62,0,0,1,408,208c.6.35.84.73.73,1.14s-.63.88-1.54,1.41L404,212.39l-1.06-.61,3.18-1.84a2.57,2.57,0,0,0,1-.81c.11-.23,0-.44-.37-.65a2.69,2.69,0,0,0-1.29-.27,2.61,2.61,0,0,0-1.36.29l-3.42,2Z"/><path class="cls-5" d="M407.58,214.6a2.38,2.38,0,0,1-.87-.76,1.12,1.12,0,0,1-.18-.83,1.87,1.87,0,0,1,.46-.81,4,4,0,0,1,1-.75,6.5,6.5,0,0,1,1.78-.71,5.67,5.67,0,0,1,1.93-.1,4.49,4.49,0,0,1,1.78.57,2.39,2.39,0,0,1,.87.77,1,1,0,0,1,.16.81,1.8,1.8,0,0,1-.47.81,4.84,4.84,0,0,1-1,.77,6.54,6.54,0,0,1-1.3.56,6.65,6.65,0,0,1-1.4.26,4.88,4.88,0,0,1-1.42-.09A4.24,4.24,0,0,1,407.58,214.6Zm1-.57a2.5,2.5,0,0,0,1.59.29,4.51,4.51,0,0,0,1.75-.6,2.31,2.31,0,0,0,1.06-1c.12-.35-.05-.66-.51-.92a2.53,2.53,0,0,0-1.6-.3,4.64,4.64,0,0,0-1.78.6,2.16,2.16,0,0,0-1,1C407.92,213.45,408.1,213.75,408.57,214Z"/><path class="cls-5" d="M454.21,240.29a5.68,5.68,0,0,1,2.42-2.11,10.59,10.59,0,0,1,3.66-1.4,4.24,4.24,0,0,1,2.83.44c.79.45,1.05,1,.77,1.64a5.74,5.74,0,0,1-2.42,2.1,10.45,10.45,0,0,1-3.66,1.4,4.28,4.28,0,0,1-2.84-.43C454.18,241.47,453.93,240.92,454.21,240.29Zm3.56,1.43a10.23,10.23,0,0,0,2.9-1.22,6.11,6.11,0,0,0,2.1-1.66c.27-.46.13-.85-.43-1.17a2.79,2.79,0,0,0-2-.24,9.8,9.8,0,0,0-2.88,1.21,6,6,0,0,0-2.11,1.67c-.28.46-.14.85.41,1.17A2.8,2.8,0,0,0,457.77,241.72Z"/><path class="cls-5" d="M471.13,242l-.68.39-10.53,2.34-.85-.49,10.42-2.3-3.69-2.13.77-.45Z"/><path class="cls-5" d="M469.81,249.5l-.77.44-4.45-2.56.7-.4,5.5-.39a13.47,13.47,0,0,0,1.84-.25,4.4,4.4,0,0,0,1.23-.45q.66-.37.69-.78c0-.26-.18-.51-.59-.74a6.06,6.06,0,0,0-2.88-.6l.41-.58a6.52,6.52,0,0,1,1.74.18,5.41,5.41,0,0,1,1.52.56c.64.37.95.77.94,1.2s-.33.83-1,1.2a5.78,5.78,0,0,1-1.58.6,14.43,14.43,0,0,1-2.3.31l-4.44.28Z"/><path class="cls-5" d="M478.63,250.07a1,1,0,0,1-.14,1,2.89,2.89,0,0,1-1.06.91,5.19,5.19,0,0,1-3.33.66,4.32,4.32,0,0,1-1.55-.53,2.79,2.79,0,0,1-1-.87,1.54,1.54,0,0,1-.31-1l1-.23a1.93,1.93,0,0,0,1.05,1.66,2.94,2.94,0,0,0,1.61.39,3.81,3.81,0,0,0,1.71-.51c.53-.31.82-.63.87-1s-.14-.65-.6-.91a3.92,3.92,0,0,0-2.51-.37l-.55-.32,4.67-2.7,4.14,2.39-.76.44-3.34-1.93-2.85,1.64a3.93,3.93,0,0,1,2.1.48A1.68,1.68,0,0,1,478.63,250.07Z"/><path class="cls-5" d="M483.62,254.43a1.9,1.9,0,0,1-.92.9,4.36,4.36,0,0,1-2.25.6,4.58,4.58,0,0,1-2.26-.61,3.27,3.27,0,0,1-1-.89,1.52,1.52,0,0,1-.31-1l1-.22a2,2,0,0,0,1.08,1.68,3,3,0,0,0,1.5.43,3,3,0,0,0,1.51-.43c1-.56.93-1.15-.13-1.76l-.79-.46.77-.45.64.37A3,3,0,0,0,484,253a2.88,2.88,0,0,0,1.53-.41c.43-.25.66-.51.66-.77s-.19-.51-.59-.74a6.05,6.05,0,0,0-2.88-.61l.4-.58a7.38,7.38,0,0,1,1.75.18,5.24,5.24,0,0,1,1.53.58c.62.35.93.75.94,1.17s-.3.82-.92,1.18a4.27,4.27,0,0,1-1.49.52,3.84,3.84,0,0,1-1.55,0A.88.88,0,0,1,483.62,254.43Z"/><path class="cls-5" d="M487.26,259.57l-.77.45-4.44-2.56.69-.41,5.51-.39a12.4,12.4,0,0,0,1.84-.24,4.65,4.65,0,0,0,1.23-.45c.44-.26.67-.52.68-.78s-.18-.51-.59-.75a6,6,0,0,0-2.87-.6l.4-.58a7.6,7.6,0,0,1,1.75.18,5.74,5.74,0,0,1,1.52.57c.63.37.94.76.93,1.19s-.33.84-1,1.21a6,6,0,0,1-1.58.6,15.65,15.65,0,0,1-2.31.31l-4.43.28Z"/><path class="cls-5" d="M493.08,262.93l-.77.45-4.44-2.57.69-.4,5.51-.39a12.4,12.4,0,0,0,1.84-.24,4.65,4.65,0,0,0,1.23-.45c.44-.26.67-.52.68-.78s-.18-.51-.59-.75a6,6,0,0,0-2.87-.6l.4-.58a7.46,7.46,0,0,1,1.74.18,5.61,5.61,0,0,1,1.52.57c.64.36,1,.76.94,1.19s-.33.83-1,1.21a6,6,0,0,1-1.59.6,15.49,15.49,0,0,1-2.3.31l-4.43.28Z"/><path class="cls-5" d="M494.94,263.8a5.75,5.75,0,0,1,2.42-2.11,10.8,10.8,0,0,1,3.66-1.4,4.31,4.31,0,0,1,2.83.44c.79.46,1,1,.77,1.64a5.61,5.61,0,0,1-2.42,2.1,10.49,10.49,0,0,1-3.66,1.41,4.28,4.28,0,0,1-2.84-.44C494.91,265,494.66,264.44,494.94,263.8Zm3.56,1.43a9.94,9.94,0,0,0,2.9-1.22,6.2,6.2,0,0,0,2.1-1.66c.27-.45.12-.84-.43-1.16a2.84,2.84,0,0,0-2-.25,9.85,9.85,0,0,0-2.88,1.21,6.15,6.15,0,0,0-2.11,1.67c-.28.47-.15.86.4,1.17A2.83,2.83,0,0,0,498.5,265.23Z"/><path class="cls-5" d="M507.07,268a1.69,1.69,0,0,1-.87.93,4.11,4.11,0,0,1-2.28.55,5.18,5.18,0,0,1-2.39-.71c-.76-.43-1.16-.89-1.22-1.38s.26-.92.94-1.31a3.89,3.89,0,0,1,1.64-.5,4.46,4.46,0,0,1,1.78.18.94.94,0,0,1-.25-.95,1.65,1.65,0,0,1,.82-.85,3.7,3.7,0,0,1,1.4-.48,4.83,4.83,0,0,1,1.56.05,4.63,4.63,0,0,1,1.47.54,2.48,2.48,0,0,1,.94.85.94.94,0,0,1,.08.9,1.73,1.73,0,0,1-.82.81,3.63,3.63,0,0,1-1.48.47,4.35,4.35,0,0,1-1.64-.13A1,1,0,0,1,507.07,268Zm-3.15.84a2.84,2.84,0,0,0,1.55-.39c.44-.26.64-.55.6-.88a1.62,1.62,0,0,0-.74-1,4.73,4.73,0,0,0-1.72-.43,2.83,2.83,0,0,0-1.52.35c-.48.28-.71.58-.67.89s.33.63.87.94A3.56,3.56,0,0,0,503.92,268.86Zm1.42-3.55a1.29,1.29,0,0,0,.62.92,3.84,3.84,0,0,0,1.6.36,2.72,2.72,0,0,0,1.45-.36c.44-.25.65-.53.64-.83s-.26-.59-.74-.87a3,3,0,0,0-1.5-.42,2.81,2.81,0,0,0-1.45.36C505.54,264.72,505.33,265,505.34,265.31Z"/><path class="cls-5" d="M517.68,268.82l-.69.39-10.52,2.34-.86-.49,10.42-2.3-3.68-2.12.77-.45Z"/><path class="cls-5" d="M313.62,201.59l10.7-3,1.12.65-5.2,6.19-1.22-.7,1.35-1.58-2.84-1.64-2.73.78Zm5.36-.54,2.11,1.22,2.36-2.57Z"/><path class="cls-5" d="M321.11,205.91l3.9-2.25.68-.41.57-.37.39-.25,1.11.64-.8.46a3.53,3.53,0,0,1,1.26,0,2.84,2.84,0,0,1,1.12.34,1.17,1.17,0,0,1,.58.66.92.92,0,0,1-.24.82,6,6,0,0,1,1.51-.07,3.22,3.22,0,0,1,1.25.38c.57.33.8.7.68,1.1a2.52,2.52,0,0,1-1.26,1.24l-3.44,2-1.06-.61,3.34-1.93a3.23,3.23,0,0,0,.63-.44.76.76,0,0,0,.27-.44c0-.15-.06-.28-.25-.38a2.33,2.33,0,0,0-1.38-.25,3.34,3.34,0,0,0-1.48.41l-3.19,1.84-1.06-.61,3.44-2a2.58,2.58,0,0,0,.44-.29,2.09,2.09,0,0,0,.29-.31.43.43,0,0,0,.06-.34.63.63,0,0,0-.29-.3,2.34,2.34,0,0,0-1.31-.26,2.87,2.87,0,0,0-1.33.34l-3.37,2Z"/><path class="cls-5" d="M332,212.34a2.38,2.38,0,0,1-.87-.76,1.07,1.07,0,0,1-.17-.83,1.84,1.84,0,0,1,.45-.81,4,4,0,0,1,1-.75,6.44,6.44,0,0,1,1.79-.71,5.89,5.89,0,0,1,1.92-.1,4.44,4.44,0,0,1,1.78.57,2.52,2.52,0,0,1,.88.77,1,1,0,0,1,.16.81,1.93,1.93,0,0,1-.48.81,4.3,4.3,0,0,1-1,.77,6.54,6.54,0,0,1-1.3.56,6.68,6.68,0,0,1-1.39.26,4.86,4.86,0,0,1-1.42-.09A4.2,4.2,0,0,1,332,212.34Zm1-.57a2.46,2.46,0,0,0,1.6.29,4.56,4.56,0,0,0,1.75-.6,2.23,2.23,0,0,0,1.05-1c.12-.35-.05-.66-.51-.92a2.51,2.51,0,0,0-1.6-.3,4.65,4.65,0,0,0-1.77.6,2.11,2.11,0,0,0-1,1C332.34,211.19,332.52,211.5,333,211.77Z"/><path class="cls-5" d="M337.55,215.55c-.61-.35-.87-.74-.79-1.16s.46-.82,1.13-1.2l3.52-2,1,.61-3.51,2c-.41.24-.63.46-.66.69s.13.42.46.61a2.16,2.16,0,0,0,1.21.3,3,3,0,0,0,1.33-.43l3.35-1.94,1.06.61-4.14,2.4c-.47.27-.94.56-1.42.87l-1.09-.63.84-.5-.47.08a4.63,4.63,0,0,1-.57,0,2.63,2.63,0,0,1-.67-.09A2.51,2.51,0,0,1,337.55,215.55Z"/><path class="cls-5" d="M341.62,217.76l3.71-2.14,1-.58c.31-.19.52-.33.66-.43l.21-.14,1.11.65-.79.45a4.49,4.49,0,0,1,1.37,0,3.15,3.15,0,0,1,1.11.36c.6.34.84.72.73,1.14s-.63.88-1.54,1.4L346,220.29l-1.06-.62,3.18-1.83a2.43,2.43,0,0,0,1-.82c.11-.23,0-.44-.36-.64a2.7,2.7,0,0,0-1.3-.28,2.6,2.6,0,0,0-1.35.29l-3.43,2Z"/><path class="cls-5" d="M350.16,222.68l-.45-.26a4.25,4.25,0,0,1-.78-.54.88.88,0,0,1-.31-.51.69.69,0,0,1,.24-.58,4.47,4.47,0,0,1,.91-.66l2.78-1.6-1-.56.82-.47,1,.57,1.37-.79,1.38.39-1.72,1,1.33.76-.82.48-1.33-.77-2.85,1.64a2.79,2.79,0,0,0-.48.34.27.27,0,0,0-.08.3.73.73,0,0,0,.26.31c.14.1.36.23.65.41Z"/><path class="cls-5" d="M422.59,264.5l-.84-.48,1.8-2c.23-.25.3-.46.23-.63a1.46,1.46,0,0,0-.61-.55l-1.73-1-3.48,2-.79-.46,8-4.6,2.74,1.59c.74.43,1.13.86,1.14,1.31s-.33.88-1,1.3a4.17,4.17,0,0,1-1.67.55,4.51,4.51,0,0,1-1.78-.15.51.51,0,0,1,.22.47,1.21,1.21,0,0,1-.33.6Zm1.5-4a2.92,2.92,0,0,0,3.1,0c.49-.28.73-.57.71-.86s-.29-.59-.84-.9l-1.89-1.1-3,1.72Z"/><path class="cls-5" d="M434.72,263.36a4.59,4.59,0,0,1-2.19,2.05,10.49,10.49,0,0,1-3.85,1.41,4.83,4.83,0,0,1-3.09-.48,2.49,2.49,0,0,1-.9-.82,1.61,1.61,0,0,1-.28-1l1-.23a2,2,0,0,0,.24.95,1.83,1.83,0,0,0,.68.64,3.29,3.29,0,0,0,2.3.27,9.42,9.42,0,0,0,3.07-1.2l.14-.09a4.75,4.75,0,0,1-1.72.16,3.72,3.72,0,0,1-1.51-.46,1.66,1.66,0,0,1-.8-.83,1.06,1.06,0,0,1,.14-1,2.91,2.91,0,0,1,1-.92,5.57,5.57,0,0,1,1.61-.6,5.75,5.75,0,0,1,1.7-.07,4,4,0,0,1,1.48.47C434.63,262.14,434.94,262.71,434.72,263.36Zm-3.6,1.18a3.64,3.64,0,0,0,1.71-.49c.53-.31.81-.64.86-1s-.17-.66-.62-.93a2.83,2.83,0,0,0-1.56-.33,3.77,3.77,0,0,0-1.7.51c-.53.3-.82.63-.87,1s.14.65.59.91A2.84,2.84,0,0,0,431.12,264.54Z"/><path class="cls-5" d="M440.54,266.72a4.59,4.59,0,0,1-2.19,2,10.49,10.49,0,0,1-3.85,1.41,4.83,4.83,0,0,1-3.09-.48,2.49,2.49,0,0,1-.9-.82,1.61,1.61,0,0,1-.28-1l1-.23a1.86,1.86,0,0,0,.24,1,1.83,1.83,0,0,0,.68.64,3.29,3.29,0,0,0,2.3.27,9.42,9.42,0,0,0,3.07-1.2l.14-.09a4.78,4.78,0,0,1-1.72.16,3.72,3.72,0,0,1-1.51-.46,1.62,1.62,0,0,1-.8-.83,1.06,1.06,0,0,1,.14-.95,2.91,2.91,0,0,1,1-.92,5.46,5.46,0,0,1,1.61-.6,5.75,5.75,0,0,1,1.7-.07,4,4,0,0,1,1.48.47C440.45,265.5,440.76,266.07,440.54,266.72Zm-3.6,1.18a3.72,3.72,0,0,0,1.7-.49c.54-.31.82-.64.87-1s-.17-.66-.63-.93a2.78,2.78,0,0,0-1.55-.33,3.73,3.73,0,0,0-1.7.51,1.56,1.56,0,0,0-.88,1c-.05.35.15.65.59.91A2.89,2.89,0,0,0,436.94,267.9Z"/><path class="cls-5" d="M437.45,271.75l-1.15.67-1-.58,1.15-.67Z"/><path class="cls-5" d="M439,272.87a5.66,5.66,0,0,1,2.43-2.11,10.48,10.48,0,0,1,3.65-1.4,4.28,4.28,0,0,1,2.84.44c.79.45,1,1,.76,1.63a5.64,5.64,0,0,1-2.41,2.11,10.59,10.59,0,0,1-3.66,1.4,4.21,4.21,0,0,1-2.84-.44C439,274.05,438.69,273.5,439,272.87Zm3.56,1.43a9.9,9.9,0,0,0,2.9-1.23,6,6,0,0,0,2.1-1.66c.27-.45.13-.84-.43-1.16a2.78,2.78,0,0,0-2-.24,9.53,9.53,0,0,0-2.88,1.21,6.13,6.13,0,0,0-2.11,1.67c-.28.46-.14.85.41,1.17A2.81,2.81,0,0,0,442.53,274.3Z"/><path class="cls-5" d="M444.79,276.23a5.66,5.66,0,0,1,2.43-2.11,10.48,10.48,0,0,1,3.65-1.4,4.28,4.28,0,0,1,2.84.44c.79.45,1,1,.76,1.63a5.64,5.64,0,0,1-2.41,2.11,10.59,10.59,0,0,1-3.66,1.4,4.26,4.26,0,0,1-2.84-.44C444.77,277.41,444.51,276.86,444.79,276.23Zm3.56,1.42a9.57,9.57,0,0,0,2.9-1.22,6,6,0,0,0,2.1-1.66c.27-.45.13-.84-.43-1.16a2.79,2.79,0,0,0-2-.24,9.73,9.73,0,0,0-2.88,1.2,6.25,6.25,0,0,0-2.11,1.68c-.28.46-.14.85.41,1.17A2.86,2.86,0,0,0,448.35,277.65Z"/><path class="cls-5" d="M278.62,222.75l8-4.59,1.84,1.06.53.32.49.35a3.15,3.15,0,0,1,.41.39,1.23,1.23,0,0,1,.23.4.72.72,0,0,1,0,.43,1,1,0,0,1-.26.44,2.74,2.74,0,0,1-.59.45,3.76,3.76,0,0,1-2.74.41.88.88,0,0,1,.3,1,2,2,0,0,1-.94.94,4.19,4.19,0,0,1-1,.41,5.69,5.69,0,0,1-1.18.15,4.58,4.58,0,0,1-1.3-.16,5.16,5.16,0,0,1-1.29-.53Zm5.75-2.06,1.05.61a3.09,3.09,0,0,0,.56.26,3,3,0,0,0,.62.15,1.9,1.9,0,0,0,.67,0,2.27,2.27,0,0,0,.68-.26c.42-.24.57-.48.47-.71a2.3,2.3,0,0,0-.95-.81l-.87-.5Zm-3.58,2.07,1.2.7a3.42,3.42,0,0,0,1.46.47,2.28,2.28,0,0,0,1.33-.31c.49-.28.71-.55.65-.79s-.38-.54-1-.89l-1.12-.64Z"/><path class="cls-5" d="M286.86,227.66a1.92,1.92,0,0,1-.78-.73,1.05,1.05,0,0,1-.09-.81,2,2,0,0,1,.49-.78,4.06,4.06,0,0,1,.92-.71,6.53,6.53,0,0,1,1.29-.56,7.57,7.57,0,0,1,1.4-.29,5.14,5.14,0,0,1,1.41.06,3.62,3.62,0,0,1,1.26.44,1.29,1.29,0,0,1,.62.63.83.83,0,0,1,0,.72l.74-.42,1,.6L289.51,229l-1.05-.61.84-.48a4.75,4.75,0,0,1-1.3.06A2.93,2.93,0,0,1,286.86,227.66Zm1.15-.49a2.44,2.44,0,0,0,1.57.29,4.66,4.66,0,0,0,1.76-.62,2.18,2.18,0,0,0,1.05-1c.12-.34-.05-.64-.51-.91a2.51,2.51,0,0,0-1.59-.3,4.45,4.45,0,0,0-1.78.61,2.16,2.16,0,0,0-1,1C287.35,226.58,287.53,226.9,288,227.17Z"/><path class="cls-5" d="M291,229.91l3.7-2.14c.34-.19.66-.39,1-.58l.66-.42.2-.14,1.12.64-.8.46a4.26,4.26,0,0,1,1.38,0,3.15,3.15,0,0,1,1.11.36q.9.53.72,1.14c-.11.41-.62.88-1.53,1.4l-3.15,1.82-1.06-.61,3.19-1.84a2.51,2.51,0,0,0,1-.82c.11-.22,0-.44-.37-.64a2.63,2.63,0,0,0-1.29-.28,2.74,2.74,0,0,0-1.36.29l-3.42,2Z"/><path class="cls-5" d="M296.81,233.25l8-4.63,1.06.61L301.15,232l4.21-.25,1.46.84-5.06.18-.39,3.15-1.41-.81.42-2.67-2.51,1.46Z"/><path class="cls-5" d="M381.87,281.31l1-.24a1.73,1.73,0,0,0,.33,1,3.27,3.27,0,0,0,1,.84,3.71,3.71,0,0,0,1.66.53,2.7,2.7,0,0,0,1.51-.35c.27-.16.41-.33.43-.51a.75.75,0,0,0-.17-.56,6.66,6.66,0,0,0-.64-.72,6,6,0,0,1-.88-1,1,1,0,0,1-.15-.87,1.61,1.61,0,0,1,.84-.85,4.23,4.23,0,0,1,1.51-.52,5.06,5.06,0,0,1,1.69,0,4.9,4.9,0,0,1,1.61.6,3.23,3.23,0,0,1,1.08.92,1.38,1.38,0,0,1,.3,1l-1,.22a1.84,1.84,0,0,0-.28-1,2.65,2.65,0,0,0-.87-.76,3.55,3.55,0,0,0-1.66-.5,2.83,2.83,0,0,0-1.55.37c-.4.23-.57.48-.5.75a2.37,2.37,0,0,0,.69,1,11.31,11.31,0,0,1,.95,1.07,1.09,1.09,0,0,1,.22.85c0,.3-.31.57-.78.84a4.05,4.05,0,0,1-1.49.51,5.24,5.24,0,0,1-1.67-.06,5.54,5.54,0,0,1-1.64-.62C382.36,282.76,381.84,282.07,381.87,281.31Z"/><path class="cls-5" d="M393.22,283.24,390.14,285c-.42.24-.64.45-.65.64s.1.35.37.51a2.58,2.58,0,0,0,.63.24l-.77.45a3.46,3.46,0,0,1-.8-.33c-.46-.27-.67-.57-.63-.89s.35-.66.94-1l3.2-1.85-.95-.55.72-.41.95.55,1.45-.84,1.11.27-1.77,1,1.39.81-.71.41Z"/><path class="cls-5" d="M400.58,286.66,395,289.92l-.78-.45,1-.59a4.26,4.26,0,0,1-1.46.1,3.5,3.5,0,0,1-1.29-.42,1.54,1.54,0,0,1-.78-.86,1.19,1.19,0,0,1,.26-1,4.06,4.06,0,0,1,1.26-1,6.68,6.68,0,0,1,1.81-.73,5.37,5.37,0,0,1,1.8-.16,3.56,3.56,0,0,1,1.5.44,1.46,1.46,0,0,1,.71.74.94.94,0,0,1-.17.85l1-.56ZM395,288.53a5.17,5.17,0,0,0,2-.7,2.53,2.53,0,0,0,1.21-1.15c.11-.37-.07-.69-.55-1a2.76,2.76,0,0,0-1.69-.32,5,5,0,0,0-2,.7c-.69.4-1.09.78-1.2,1.15s.08.69.57,1A2.65,2.65,0,0,0,395,288.53Z"/><path class="cls-5" d="M404.2,291.17l-3.54,2-.79-.45,3.5-2c.52-.3.81-.57.87-.82s-.1-.47-.49-.7a2.77,2.77,0,0,0-1.56-.35,3.67,3.67,0,0,0-1.71.52l-3.23,1.86-.78-.45,4-2.34a16.61,16.61,0,0,0,1.5-1l.75.43-.93.63a4.14,4.14,0,0,1,1.52-.1,3.25,3.25,0,0,1,1.31.41C405.84,289.55,405.68,290.31,404.2,291.17Z"/><path class="cls-5" d="M414.68,291.79l-8.24,4.76-.78-.45,1-.59a3.81,3.81,0,0,1-1.46.1,3.31,3.31,0,0,1-1.29-.41,1.52,1.52,0,0,1-.76-.87,1.29,1.29,0,0,1,.28-1,4,4,0,0,1,1.27-1,6.69,6.69,0,0,1,1.79-.73,5.48,5.48,0,0,1,1.78-.15,3.83,3.83,0,0,1,1.49.45,1.46,1.46,0,0,1,.71.74.88.88,0,0,1-.16.84l3.56-2.06Zm-8.17,3.37a5,5,0,0,0,2-.7,2.53,2.53,0,0,0,1.2-1.14c.12-.37-.06-.69-.54-1a2.78,2.78,0,0,0-1.68-.32,4.78,4.78,0,0,0-2,.68,2.45,2.45,0,0,0-1.21,1.16c-.12.38.06.71.54,1A2.65,2.65,0,0,0,406.51,295.16Z"/><path class="cls-5" d="M417.89,296.66l-5.63,3.25-.78-.45,1-.59a4,4,0,0,1-1.46.1,3.37,3.37,0,0,1-1.29-.41,1.53,1.53,0,0,1-.78-.87,1.16,1.16,0,0,1,.26-1,4.06,4.06,0,0,1,1.26-1,7,7,0,0,1,1.81-.73,6,6,0,0,1,1.8-.16,3.56,3.56,0,0,1,1.5.44,1.44,1.44,0,0,1,.71.75.92.92,0,0,1-.17.84l1-.56Zm-5.56,1.86a5,5,0,0,0,2-.7,2.47,2.47,0,0,0,1.22-1.15c.11-.36-.07-.68-.55-1a2.69,2.69,0,0,0-1.69-.31,5,5,0,0,0-2,.69c-.69.4-1.09.78-1.2,1.15s.08.69.57,1A2.64,2.64,0,0,0,412.33,298.52Z"/><path class="cls-5" d="M422.19,299.07l-.85.46a1.17,1.17,0,0,0-.42-.34,2.46,2.46,0,0,0-1.56-.32,3.93,3.93,0,0,0-1.58.52l-3.22,1.85-.78-.45,4.05-2.34q.87-.51,1.5-1l.75.43-1,.65a3.91,3.91,0,0,1,1.46-.16,3,3,0,0,1,1.24.36A1.27,1.27,0,0,1,422.19,299.07Z"/><path class="cls-5" d="M429.73,300.48l-8.24,4.76-.78-.45,1-.59a4,4,0,0,1-1.46.1,3.38,3.38,0,0,1-1.28-.41,1.45,1.45,0,0,1-.76-.87,1.25,1.25,0,0,1,.27-1,4,4,0,0,1,1.27-1,6.69,6.69,0,0,1,1.79-.73,5.48,5.48,0,0,1,1.78-.15,3.67,3.67,0,0,1,1.49.45,1.46,1.46,0,0,1,.71.74.88.88,0,0,1-.16.84L429,300Zm-8.17,3.37a5,5,0,0,0,2-.7c.68-.4,1.09-.78,1.2-1.14s-.06-.69-.54-1a2.71,2.71,0,0,0-1.68-.32,4.78,4.78,0,0,0-2,.68,2.45,2.45,0,0,0-1.21,1.16c-.12.38.06.71.54,1A2.65,2.65,0,0,0,421.56,303.85Z"/><path class="cls-5" d="M433.89,308.46a1.92,1.92,0,0,1-.91.91,4.23,4.23,0,0,1-2.21.58,4.61,4.61,0,0,1-2.26-.66l-2.87-1.65,8-4.61,2.78,1.61c.7.4,1.07.82,1.1,1.26s-.29.84-1,1.23a3.88,3.88,0,0,1-1.39.47,4.09,4.09,0,0,1-1.48-.07A.91.91,0,0,1,433.89,308.46Zm-3-2.93,1.86,1.08a3.43,3.43,0,0,0,1.53.47,2.69,2.69,0,0,0,1.45-.38c.91-.53.85-1.09-.2-1.7l-1.86-1.07Zm-.11,3.77a2.81,2.81,0,0,0,1.47-.4c1-.56.94-1.15-.12-1.76l-2-1.16-2.9,1.67,2,1.17A3.3,3.3,0,0,0,430.75,309.3Z"/><path class="cls-5" d="M442.07,310.62l-5.63,3.25-.77-.44,1-.59a4,4,0,0,1-1.46.09,3.21,3.21,0,0,1-1.29-.41,1.49,1.49,0,0,1-.78-.87,1.18,1.18,0,0,1,.26-1,3.82,3.82,0,0,1,1.26-1,6.9,6.9,0,0,1,1.81-.74,5.58,5.58,0,0,1,1.8-.15,3.47,3.47,0,0,1,1.49.43,1.4,1.4,0,0,1,.71.75.91.91,0,0,1-.17.85l1-.57Zm-5.55,1.87a5.16,5.16,0,0,0,2-.71c.69-.4,1.1-.78,1.21-1.14s-.06-.69-.54-1a2.79,2.79,0,0,0-1.7-.31,5.1,5.1,0,0,0-2,.7c-.69.39-1.08.77-1.19,1.14s.08.7.56,1A2.74,2.74,0,0,0,436.52,312.49Z"/><path class="cls-5" d="M445.69,315.13l-3.54,2-.78-.45,3.49-2c.52-.3.82-.57.88-.82s-.1-.48-.49-.7a2.81,2.81,0,0,0-1.57-.35,3.85,3.85,0,0,0-1.71.51l-3.22,1.87-.79-.46,4.06-2.34a17.38,17.38,0,0,0,1.5-1l.75.43-.93.62a4.3,4.3,0,0,1,1.51-.1,3.47,3.47,0,0,1,1.32.42C447.33,313.5,447.18,314.27,445.69,315.13Z"/><path class="cls-5" d="M446.92,319.93l.21-3-2.71,1.56-.78-.45,8.24-4.76.78.45-5.19,3,4.87-.16,1,.58-5.14.15-.25,3.23Z"/><path class="cls-5" d="M242,243l10.71-3,1.11.64-5.19,6.19-1.22-.7,1.34-1.58-2.84-1.64-2.72.79Zm5.37-.54,2.11,1.22,2.36-2.57Z"/><path class="cls-5" d="M251.53,248.64a1.91,1.91,0,0,1-.94-1,1.22,1.22,0,0,1,.18-1.11,3.42,3.42,0,0,1,1.17-1,6.27,6.27,0,0,1,1.83-.71,6,6,0,0,1,1.93-.1,4.58,4.58,0,0,1,1.72.55c.72.41,1,.88,1,1.39l-1.17.24a1.16,1.16,0,0,0-.69-1,2.83,2.83,0,0,0-1.63-.34,4.16,4.16,0,0,0-1.84.6c-.59.34-.92.68-1,1s.12.68.59.95a3.84,3.84,0,0,0,1.77.42l-.57.71A5.18,5.18,0,0,1,251.53,248.64Z"/><path class="cls-5" d="M256.61,251.57a1.87,1.87,0,0,1-.94-1,1.22,1.22,0,0,1,.18-1.11,3.42,3.42,0,0,1,1.17-1,6.56,6.56,0,0,1,1.83-.71,6.05,6.05,0,0,1,1.94-.1,4.59,4.59,0,0,1,1.71.55c.72.42,1,.88,1,1.39l-1.17.24a1.16,1.16,0,0,0-.69-1,2.81,2.81,0,0,0-1.62-.34,4.42,4.42,0,0,0-1.85.6c-.58.34-.92.69-1,1.05s.11.67.58.94a3.88,3.88,0,0,0,1.77.42l-.57.71A5.18,5.18,0,0,1,256.61,251.57Z"/><path class="cls-5" d="M261.72,254.52a2.47,2.47,0,0,1-.87-.77,1.09,1.09,0,0,1-.17-.82,1.74,1.74,0,0,1,.45-.81,4.08,4.08,0,0,1,1-.76,6.35,6.35,0,0,1,1.78-.7,5.89,5.89,0,0,1,1.92-.11,4.72,4.72,0,0,1,1.79.58,2.47,2.47,0,0,1,.87.76,1,1,0,0,1,.16.82,1.81,1.81,0,0,1-.47.8,4.11,4.11,0,0,1-1,.77,5.72,5.72,0,0,1-1.29.56,6.79,6.79,0,0,1-1.4.27A5.69,5.69,0,0,1,263,255,4.46,4.46,0,0,1,261.72,254.52Zm1-.58a2.53,2.53,0,0,0,1.6.3,4.59,4.59,0,0,0,1.75-.61,2.14,2.14,0,0,0,1.05-1c.12-.34-.05-.65-.51-.92a2.57,2.57,0,0,0-1.6-.29,4.33,4.33,0,0,0-1.77.6,2.16,2.16,0,0,0-1,1C262.07,253.36,262.24,253.67,262.71,253.94Z"/><path class="cls-5" d="M267.27,257.72c-.61-.35-.87-.73-.79-1.15a2.09,2.09,0,0,1,1.13-1.21l3.52-2,1.05.61-3.51,2c-.41.24-.63.47-.65.69s.12.43.45.62a2.15,2.15,0,0,0,1.21.29,2.92,2.92,0,0,0,1.34-.43l3.35-1.93,1.06.61-4.15,2.39c-.46.27-.93.56-1.41.88l-1.09-.63.83-.51a2.88,2.88,0,0,1-.46.09,5,5,0,0,1-.58,0,3.13,3.13,0,0,1-.66-.08A2.39,2.39,0,0,1,267.27,257.72Z"/><path class="cls-5" d="M271.35,259.93l3.7-2.14q.51-.29,1-.57l.67-.43.2-.14,1.11.64-.79.46a4.26,4.26,0,0,1,1.38,0,3.64,3.64,0,0,1,1.1.36c.6.35.85.73.73,1.14s-.63.88-1.53,1.41l-3.15,1.81-1.06-.61,3.18-1.84a2.57,2.57,0,0,0,1-.81c.11-.23,0-.44-.37-.65a3.28,3.28,0,0,0-2.65,0l-3.42,2Z"/><path class="cls-5" d="M279.89,264.85l-.46-.26a4.25,4.25,0,0,1-.78-.54.93.93,0,0,1-.31-.51.68.68,0,0,1,.24-.57,4,4,0,0,1,.91-.66l2.78-1.6-1-.56.82-.47,1,.57,1.36-.79,1.39.39-1.72,1,1.32.77-.82.47-1.33-.76L280.48,263a2.33,2.33,0,0,0-.48.34.25.25,0,0,0-.08.3.64.64,0,0,0,.26.3,6.06,6.06,0,0,0,.65.41Z"/><path class="cls-5" d="M283.9,267.18l3.7-2.14c.34-.19.66-.39,1-.58l.66-.42.2-.14,1.12.64-.8.46a4.26,4.26,0,0,1,1.38,0,3.15,3.15,0,0,1,1.11.36q.9.52.72,1.14c-.11.41-.62.88-1.53,1.4l-3.15,1.82-1.06-.61,3.19-1.84a2.51,2.51,0,0,0,1-.82c.11-.22,0-.44-.37-.64a2.63,2.63,0,0,0-1.29-.28,2.74,2.74,0,0,0-1.36.29l-3.42,2Z"/><path class="cls-5" d="M291.86,271.92a2.31,2.31,0,0,1-.87-.77,1.09,1.09,0,0,1-.17-.82,1.74,1.74,0,0,1,.45-.81,4.22,4.22,0,0,1,1-.76,6.53,6.53,0,0,1,1.79-.7A5.89,5.89,0,0,1,296,268a4.61,4.61,0,0,1,1.78.58,2.52,2.52,0,0,1,.88.76,1,1,0,0,1,.16.82,1.91,1.91,0,0,1-.47.8,4.31,4.31,0,0,1-1,.77,5.93,5.93,0,0,1-1.29.56,6.79,6.79,0,0,1-1.4.27,5.66,5.66,0,0,1-1.42-.09A4.46,4.46,0,0,1,291.86,271.92Zm1-.58a2.53,2.53,0,0,0,1.6.3,4.59,4.59,0,0,0,1.75-.61,2.14,2.14,0,0,0,1.05-1c.12-.34-.05-.65-.51-.92a2.57,2.57,0,0,0-1.6-.29,4.49,4.49,0,0,0-1.77.6,2.16,2.16,0,0,0-1,1C292.21,270.76,292.38,271.07,292.85,271.34Z"/><path class="cls-5" d="M350,300.18l2.33-.26-1-1.14.85-.27.83,1.16,1.7-1,.6.34-1.8,1,2.05.49-.48.48-2-.55-.45,1.34-.89-.05.61-1.34-2.33.35Z"/><path class="cls-5" d="M354.38,302.72l2.33-.25-1-1.15.85-.27.84,1.17,1.69-1,.61.35-1.81,1L360,303l-.48.49-2-.55-.44,1.34-.9,0,.61-1.34-2.33.35Z"/><path class="cls-5" d="M358.79,305.27l2.33-.26-1-1.14.86-.27.83,1.17,1.7-1,.6.35-1.81,1,2.05.49-.48.49-2-.56-.45,1.35-.9-.06.61-1.33-2.33.34Z"/><path class="cls-5" d="M363.2,307.82l2.33-.26-1-1.14.86-.27.83,1.16,1.7-1,.6.34-1.81,1,2.05.49-.47.48-2-.55-.45,1.34-.9-.05.61-1.34-2.32.35Z"/><path class="cls-5" d="M370.15,311.83l2.33-.26-1-1.14.85-.27.83,1.16,1.7-1,.6.34-1.81,1,2.05.49-.47.48-2-.55-.45,1.34-.89-.05.61-1.34-2.33.35Z"/><path class="cls-5" d="M374.56,314.37l2.33-.25-1-1.15.85-.27.84,1.17,1.69-1,.6.35-1.8,1,2,.48-.48.49-2-.55-.44,1.34-.9-.05.61-1.34-2.33.35Z"/><path class="cls-5" d="M379,316.92l2.33-.26-1-1.14.85-.27.84,1.17,1.7-1,.6.35-1.81,1,2.05.48-.48.49-2-.56-.44,1.35-.9-.05.61-1.34-2.33.34Z"/><path class="cls-5" d="M383.38,319.47l2.33-.26-1-1.14.86-.27.83,1.16,1.7-1,.6.35-1.81,1,2.05.49-.47.49-2-.56-.45,1.35-.9-.06.61-1.34-2.33.35Z"/><path class="cls-5" d="M394,325.35a1,1,0,0,1-.13.95,3,3,0,0,1-1.05.92,5.4,5.4,0,0,1-1.6.6,5.49,5.49,0,0,1-1.71.07,4,4,0,0,1-1.47-.47c-.84-.48-1.14-1.05-.92-1.7a4.55,4.55,0,0,1,2.18-2,12,12,0,0,1,2.63-1.16,7.61,7.61,0,0,1,2.37-.32,4.3,4.3,0,0,1,1.94.54,2.71,2.71,0,0,1,.91.82,1.6,1.6,0,0,1,.27,1l-1,.23a2,2,0,0,0-.24-.94,1.68,1.68,0,0,0-.69-.65,3.29,3.29,0,0,0-2.3-.27,9.42,9.42,0,0,0-3.07,1.2l-.17.09a4.91,4.91,0,0,1,1.74-.16,3.62,3.62,0,0,1,1.52.46A1.63,1.63,0,0,1,394,325.35Zm-3.67,1.93a3.77,3.77,0,0,0,1.7-.51c.53-.3.82-.63.87-1s-.15-.64-.59-.9a2.94,2.94,0,0,0-1.6-.35,3.72,3.72,0,0,0-1.7.49c-.53.31-.82.64-.86,1s.16.66.62.93A2.81,2.81,0,0,0,390.35,327.28Z"/><path class="cls-5" d="M392.89,329a5.75,5.75,0,0,1,2.42-2.11,10.59,10.59,0,0,1,3.66-1.4,4.34,4.34,0,0,1,2.84.44c.78.46,1,1,.76,1.64a5.7,5.7,0,0,1-2.41,2.1,10.81,10.81,0,0,1-3.67,1.41,4.34,4.34,0,0,1-2.84-.44C392.86,330.19,392.61,329.65,392.89,329Zm3.56,1.43a10.11,10.11,0,0,0,2.9-1.22,6.11,6.11,0,0,0,2.1-1.66c.27-.46.13-.84-.43-1.17a2.89,2.89,0,0,0-2-.24,10.08,10.08,0,0,0-2.88,1.21A6.15,6.15,0,0,0,394,329c-.28.46-.14.85.41,1.17A2.81,2.81,0,0,0,396.45,330.44Z"/><path class="cls-5" d="M404.85,333.08a2,2,0,0,1-.93.9,4.3,4.3,0,0,1-2.25.59,4.41,4.41,0,0,1-2.26-.61,3.21,3.21,0,0,1-1-.89,1.51,1.51,0,0,1-.32-1l1-.23a2,2,0,0,0,1.08,1.68,2.91,2.91,0,0,0,1.5.43,3,3,0,0,0,1.5-.42q1.47-.86-.12-1.77l-.8-.46.78-.44.64.37a3.25,3.25,0,0,0,1.56.45,3,3,0,0,0,1.53-.41c.43-.25.65-.51.66-.77s-.19-.51-.6-.75a6,6,0,0,0-2.87-.6l.4-.58a6.93,6.93,0,0,1,1.75.17,5.59,5.59,0,0,1,1.52.58c.62.36.94.75.94,1.18s-.3.82-.92,1.17a4.27,4.27,0,0,1-3,.49A.91.91,0,0,1,404.85,333.08Z"/><path class="cls-5" d="M408.49,338.22l-.77.44-4.44-2.56.69-.4,5.51-.39a13.3,13.3,0,0,0,1.83-.25,3.85,3.85,0,0,0,1.23-.45c.45-.25.67-.51.69-.77s-.18-.52-.59-.75a6.06,6.06,0,0,0-2.88-.6l.41-.58a6.52,6.52,0,0,1,1.74.18,5.3,5.3,0,0,1,1.52.56c.64.37.95.77.94,1.2s-.33.83-1,1.2a5.78,5.78,0,0,1-1.58.61,14.57,14.57,0,0,1-2.3.3l-4.43.29Z"/><path class="cls-5" d="M467.78,113.46l2.76,1.59c.71.41,1.06.85,1.06,1.31s-.34.88-1,1.29a4.33,4.33,0,0,1-2.25.59,4.4,4.4,0,0,1-2.25-.61l-2-1.13-3.51,2-.79-.46Zm-1,3.7a3.09,3.09,0,0,0,1.54.44,2.88,2.88,0,0,0,1.48-.41c.48-.27.71-.56.71-.85s-.27-.59-.78-.89l-1.89-1.09-2.95,1.7Z"/><path class="cls-5" d="M474.27,116.9l.78.45-8.24,4.76-.79-.45Z"/><path class="cls-5" d="M475.26,123.7l-3.58-2.06c-.71.41-1.11.81-1.19,1.18s.14.72.68,1a4.62,4.62,0,0,0,2.23.52l-.4.54a5.45,5.45,0,0,1-1.37-.16,4.5,4.5,0,0,1-1.22-.47c-.77-.44-1.11-.94-1-1.49s.58-1.08,1.49-1.61a6.38,6.38,0,0,1,1.81-.71,5.88,5.88,0,0,1,1.85-.13,3.86,3.86,0,0,1,1.57.48c.64.37.91.81.79,1.3s-.61,1-1.47,1.49ZM474,120.9a4.58,4.58,0,0,0-1.69.41l2.84,1.64q.75-.49.81-.93c.05-.29-.13-.55-.54-.79A2.74,2.74,0,0,0,474,120.9Z"/><path class="cls-5" d="M483.54,125.26l-5.64,3.25-.77-.44,1-.59a4,4,0,0,1-1.46.09,3.21,3.21,0,0,1-1.29-.41,1.54,1.54,0,0,1-.78-.86,1.19,1.19,0,0,1,.26-1,4,4,0,0,1,1.26-1,6.9,6.9,0,0,1,1.81-.74,5.6,5.6,0,0,1,1.8-.15,3.55,3.55,0,0,1,1.5.43,1.45,1.45,0,0,1,.7.75.93.93,0,0,1-.16.85l1-.57ZM478,127.13a5,5,0,0,0,2-.71,2.5,2.5,0,0,0,1.22-1.14c.11-.37-.07-.69-.55-1a2.78,2.78,0,0,0-1.7-.31,5.1,5.1,0,0,0-2,.7c-.68.39-1.08.77-1.19,1.14s.08.7.57,1A2.7,2.7,0,0,0,478,127.13Z"/><path class="cls-5" d="M479.77,128.84l.94-.23a1.37,1.37,0,0,0,.29.76,2.55,2.55,0,0,0,.75.62,2.45,2.45,0,0,0,1.06.35,1.53,1.53,0,0,0,.92-.2c.22-.12.34-.27.34-.42s-.1-.33-.33-.55l-.59-.6a1,1,0,0,1-.39-.87,1.1,1.1,0,0,1,.63-.75,3.11,3.11,0,0,1,1.72-.4,3.76,3.76,0,0,1,1.82.52,2.37,2.37,0,0,1,.78.67,1.08,1.08,0,0,1,.22.75l-.93.23a1.45,1.45,0,0,0-.81-1.23,2.38,2.38,0,0,0-1-.33,1.63,1.63,0,0,0-.93.2c-.23.14-.35.28-.37.42a.73.73,0,0,0,.26.52l.59.61a1.16,1.16,0,0,1,.46.9,1.12,1.12,0,0,1-.65.76,3,3,0,0,1-1.68.37,3.93,3.93,0,0,1-1.83-.55C480.17,129.92,479.77,129.4,479.77,128.84Z"/><path class="cls-5" d="M491.16,132.88l-3.58-2.06c-.71.42-1.1.81-1.19,1.19s.14.71.68,1a4.73,4.73,0,0,0,2.23.53l-.4.53a5.07,5.07,0,0,1-1.37-.16,4.63,4.63,0,0,1-1.22-.47c-.76-.44-1.1-.94-1-1.49s.58-1.08,1.49-1.6a6.35,6.35,0,0,1,1.82-.72,5.86,5.86,0,0,1,1.85-.13A3.86,3.86,0,0,1,492,130c.65.37.91.81.79,1.3s-.61,1-1.47,1.49Zm-1.27-2.8a4.69,4.69,0,0,0-1.68.41l2.84,1.64c.49-.33.76-.64.8-.93s-.13-.55-.54-.79A2.71,2.71,0,0,0,489.89,130.08Z"/><path class="cls-5" d="M498.72,134l3,1.73L496.09,139l-.79-.45,4.91-2.84L498,134.44l-4.91,2.84-.79-.45,4.92-2.84-1-.55L497,133l.95.55.75-.44a4.72,4.72,0,0,1,1.27-.53,2.81,2.81,0,0,1,1.19,0,4.69,4.69,0,0,1,1.3.53l.31.18-.71.41-.24-.14a2.87,2.87,0,0,0-.84-.37,1.33,1.33,0,0,0-.71,0,5.3,5.3,0,0,0-1,.46Zm5.54.38-1.06.6-1-.56,1.06-.61Z"/><path class="cls-5" d="M505.84,135.13l.79.45-8.25,4.76-.78-.46Z"/><path class="cls-5" d="M508.15,136.46l.78.45-8.24,4.76-.78-.45Z"/><path class="cls-5" d="M513.64,139.89l-1,.6-1-.56,1-.59Zm-3.26.87.78.45-5.63,3.25-.79-.45Z"/><path class="cls-5" d="M514.78,145.72l-3.54,2-.78-.45,3.49-2c.52-.3.81-.57.88-.82s-.11-.48-.49-.7a2.83,2.83,0,0,0-1.57-.35,3.85,3.85,0,0,0-1.71.51l-3.22,1.87-.79-.46,4.06-2.34a17.38,17.38,0,0,0,1.5-.95l.74.43-.93.62a4.63,4.63,0,0,1,1.52-.1,3.42,3.42,0,0,1,1.31.42Q517,144.43,514.78,145.72Z"/><path class="cls-5" d="M525.18,149.3l-8.43,2.24a7.51,7.51,0,0,1-2.31.29,6.74,6.74,0,0,1-2-.42l.54-.5a6,6,0,0,0,1.52.33,5,5,0,0,0,1.5-.19l.7-.18,3.51-4.41.82.47-3,3.64,6.32-1.72Z"/><path class="cls-5" d="M521.43,153.32a1.16,1.16,0,0,1,.21-1,3.74,3.74,0,0,1,1.26-1.06,6.8,6.8,0,0,1,1.83-.73,5.73,5.73,0,0,1,1.83-.12,4,4,0,0,1,1.57.49,1.81,1.81,0,0,1,.86.91,1.21,1.21,0,0,1-.21,1.06,3.84,3.84,0,0,1-1.26,1.05,6.49,6.49,0,0,1-1.83.73,5.49,5.49,0,0,1-1.83.12,3.92,3.92,0,0,1-1.57-.49A1.76,1.76,0,0,1,521.43,153.32Zm3.28.8a5,5,0,0,0,2-.71c.69-.4,1.09-.78,1.2-1.15s-.07-.69-.54-1a2.74,2.74,0,0,0-1.68-.31,4.84,4.84,0,0,0-2,.69c-.71.41-1.12.79-1.23,1.16s.08.69.57,1A2.73,2.73,0,0,0,524.71,154.12Z"/><path class="cls-5" d="M535.61,155.33,530,158.58l-.77-.44,1-.57a4.1,4.1,0,0,1-1.43.08,3.25,3.25,0,0,1-1.21-.39q-.85-.49-.75-1.08c.08-.38.48-.79,1.21-1.21l3.5-2,.78.46-3.47,2c-.51.29-.79.56-.85.8s.1.47.47.69a2.71,2.71,0,0,0,1.53.32,3.91,3.91,0,0,0,1.68-.51l3.18-1.84Z"/><path class="cls-5" d="M539.9,157.73l-.84.47a1.33,1.33,0,0,0-.43-.35,2.53,2.53,0,0,0-1.56-.32,4.09,4.09,0,0,0-1.58.52l-3.22,1.86-.78-.46,4-2.34a14.75,14.75,0,0,0,1.5-1l.75.43-1,.64a3.91,3.91,0,0,1,1.46-.16,3,3,0,0,1,1.24.36A1.46,1.46,0,0,1,539.9,157.73Z"/><path class="cls-5" d="M550.07,160.66l-8.24,4.76-.78-.45,1-.59a4,4,0,0,1-1.46.1,3.37,3.37,0,0,1-1.29-.41,1.48,1.48,0,0,1-.76-.87,1.23,1.23,0,0,1,.28-1,3.87,3.87,0,0,1,1.27-1,6.69,6.69,0,0,1,1.79-.73,5.48,5.48,0,0,1,1.78-.15,3.72,3.72,0,0,1,1.49.45,1.46,1.46,0,0,1,.71.74.86.86,0,0,1-.16.83l3.56-2ZM541.9,164a5,5,0,0,0,2-.7,2.48,2.48,0,0,0,1.21-1.15q.18-.54-.54-1a2.74,2.74,0,0,0-1.68-.32,4.78,4.78,0,0,0-2,.68,2.45,2.45,0,0,0-1.21,1.16c-.12.38.06.71.54,1A2.64,2.64,0,0,0,541.9,164Z"/><path class="cls-5" d="M550.28,167,546.7,165c-.71.42-1.11.81-1.19,1.18s.14.72.67,1a4.66,4.66,0,0,0,2.24.52l-.4.54a5,5,0,0,1-1.37-.16,4.57,4.57,0,0,1-1.23-.47c-.76-.44-1.1-.94-1-1.49s.58-1.08,1.48-1.6a6.46,6.46,0,0,1,1.82-.72,5.86,5.86,0,0,1,1.85-.13,3.77,3.77,0,0,1,1.56.48c.65.37.91.81.79,1.3s-.61,1-1.47,1.49Zm-1.27-2.8a4.79,4.79,0,0,0-1.69.41l2.84,1.64q.74-.49.81-.93c0-.29-.14-.55-.54-.79A2.74,2.74,0,0,0,549,164.21Z"/><path class="cls-5" d="M554.56,167.09l-3.08,1.78c-.42.24-.64.46-.66.64s.11.35.38.51a2.58,2.58,0,0,0,.63.24l-.78.45a3,3,0,0,1-.79-.33c-.46-.27-.68-.57-.64-.89s.36-.66,1-1l3.2-1.85-.95-.55.72-.41,1,.55,1.44-.84,1.11.27-1.76,1,1.39.81-.72.41Z"/><path class="cls-5" d="M561.92,170.52l-5.63,3.25-.78-.45,1-.59a4.26,4.26,0,0,1-1.46.1,3.38,3.38,0,0,1-1.29-.42,1.54,1.54,0,0,1-.78-.86,1.16,1.16,0,0,1,.26-1,4.06,4.06,0,0,1,1.26-1,6.68,6.68,0,0,1,1.81-.73,5.62,5.62,0,0,1,1.8-.16,3.56,3.56,0,0,1,1.5.44,1.44,1.44,0,0,1,.7.74.9.9,0,0,1-.16.85l1-.56Zm-5.56,1.86a5.13,5.13,0,0,0,2-.7,2.51,2.51,0,0,0,1.22-1.15c.11-.37-.07-.69-.55-1a2.78,2.78,0,0,0-1.7-.32,5.1,5.1,0,0,0-2,.7c-.68.4-1.08.78-1.19,1.15s.08.69.57,1A2.64,2.64,0,0,0,556.36,172.38Z"/><path class="cls-5" d="M566.71,170.53l-1,.59-1-.55,1-.6Zm-3.27.86.79.46-5.64,3.25-.78-.45Z"/><path class="cls-5" d="M568.36,171.22l.78.45-8.24,4.76-.78-.45Z"/><path class="cls-5" d="M562.77,176.76l.94-.23a1.37,1.37,0,0,0,.29.76,2.41,2.41,0,0,0,.75.61,2.35,2.35,0,0,0,1.06.36,1.54,1.54,0,0,0,.92-.2c.22-.13.34-.27.34-.42a.79.79,0,0,0-.33-.55l-.6-.6a1,1,0,0,1-.38-.87,1.07,1.07,0,0,1,.63-.75,3.1,3.1,0,0,1,1.71-.4,3.9,3.9,0,0,1,1.83.51,2.63,2.63,0,0,1,.78.67,1.11,1.11,0,0,1,.21.76l-.92.23a1.44,1.44,0,0,0-.81-1.23,2.38,2.38,0,0,0-1-.33,1.53,1.53,0,0,0-.93.2c-.23.14-.36.28-.37.42a.69.69,0,0,0,.26.52l.59.61a1.22,1.22,0,0,1,.46.9c0,.27-.25.52-.65.76a3,3,0,0,1-1.68.37,4,4,0,0,1-1.84-.55C563.17,177.83,562.76,177.32,562.77,176.76Z"/><path class="cls-5" d="M575.73,179.32l-3.08,1.77c-.42.25-.64.46-.66.64s.11.35.38.51a2.67,2.67,0,0,0,.62.24l-.77.45a3,3,0,0,1-.79-.33c-.47-.27-.68-.56-.64-.89s.36-.66,1-1l3.2-1.85-1-.55.72-.41.95.55,1.44-.84,1.11.27-1.77,1,1.4.81-.72.41Z"/><path class="cls-5" d="M574.24,183.81a1.16,1.16,0,0,1,.21-1.05,3.74,3.74,0,0,1,1.26-1.06,6.8,6.8,0,0,1,1.83-.73,5.73,5.73,0,0,1,1.83-.12,4,4,0,0,1,1.57.49,1.81,1.81,0,0,1,.86.91,1.21,1.21,0,0,1-.21,1.06,3.84,3.84,0,0,1-1.26,1.05,6.49,6.49,0,0,1-1.83.73,5.49,5.49,0,0,1-1.83.12,3.92,3.92,0,0,1-1.57-.49A1.76,1.76,0,0,1,574.24,183.81Zm3.28.8a5,5,0,0,0,2-.71c.69-.4,1.09-.78,1.2-1.15s-.07-.69-.54-1a2.74,2.74,0,0,0-1.68-.31,4.84,4.84,0,0,0-2,.69c-.71.41-1.12.79-1.23,1.16s.08.69.57,1A2.73,2.73,0,0,0,577.52,184.61Z"/><path class="cls-5" d="M581.58,187.62l.94-.23a1.37,1.37,0,0,0,.29.76,2.55,2.55,0,0,0,.75.62,2.45,2.45,0,0,0,1.06.35,1.53,1.53,0,0,0,.92-.2c.22-.13.34-.27.34-.42s-.1-.33-.33-.55l-.6-.6a1,1,0,0,1-.38-.87,1.1,1.1,0,0,1,.63-.75,3.11,3.11,0,0,1,1.72-.4,3.76,3.76,0,0,1,1.82.52,2.48,2.48,0,0,1,.78.66,1.12,1.12,0,0,1,.22.76l-.93.23a1.45,1.45,0,0,0-.81-1.23,2.38,2.38,0,0,0-1-.33,1.63,1.63,0,0,0-.93.2c-.23.14-.35.28-.37.42a.69.69,0,0,0,.26.52l.59.61a1.16,1.16,0,0,1,.46.9,1.12,1.12,0,0,1-.65.76,3,3,0,0,1-1.68.37,3.93,3.93,0,0,1-1.83-.55C582,188.7,581.58,188.18,581.58,187.62Z"/><path class="cls-5" d="M595.76,190.05l-5.63,3.26-.77-.45,1-.56a4.17,4.17,0,0,1-1.44.08,3.25,3.25,0,0,1-1.21-.39q-.86-.5-.75-1.08c.08-.39.48-.79,1.21-1.21l3.5-2,.78.45-3.47,2c-.51.29-.79.56-.85.8s.1.47.47.68a2.71,2.71,0,0,0,1.53.33,3.91,3.91,0,0,0,1.68-.51L595,189.6Z"/><path class="cls-5" d="M600.62,193.12a1.15,1.15,0,0,1-.25,1,3.82,3.82,0,0,1-1.26,1,6.9,6.9,0,0,1-1.81.74,5.58,5.58,0,0,1-1.8.15,3.47,3.47,0,0,1-1.5-.44,1.42,1.42,0,0,1-.71-.74.93.93,0,0,1,.18-.86l-1,.6-.79-.45,8.24-4.76.79.45L597.06,192a4.22,4.22,0,0,1,1.49-.12,3.38,3.38,0,0,1,1.29.42A1.48,1.48,0,0,1,600.62,193.12Zm-4.34,2.3a5.22,5.22,0,0,0,2-.71,2.37,2.37,0,0,0,1.18-1.13c.12-.37-.07-.69-.55-1a2.66,2.66,0,0,0-1.67-.32,5.13,5.13,0,0,0-2,.7,2.56,2.56,0,0,0-1.22,1.15c-.12.37.06.69.55,1A2.65,2.65,0,0,0,596.28,195.42Z"/><path class="cls-5" d="M597.81,197l.93-.24a1.48,1.48,0,0,0,.29.77,2.6,2.6,0,0,0,.76.61,2.31,2.31,0,0,0,1.05.36,1.51,1.51,0,0,0,.92-.2c.23-.13.34-.27.34-.42a.8.8,0,0,0-.32-.55l-.6-.61a1,1,0,0,1-.39-.87,1.17,1.17,0,0,1,.63-.75,3.22,3.22,0,0,1,1.72-.39,3.86,3.86,0,0,1,1.82.51,2.5,2.5,0,0,1,.78.67,1.06,1.06,0,0,1,.22.76l-.92.23a1.43,1.43,0,0,0-.82-1.23,2.5,2.5,0,0,0-1-.34,1.64,1.64,0,0,0-.93.21c-.23.13-.35.27-.37.42a.71.71,0,0,0,.27.51l.59.62a1.17,1.17,0,0,1,.45.9c0,.27-.25.52-.65.75a3,3,0,0,1-1.68.38,4,4,0,0,1-1.83-.55C598.21,198.06,597.8,197.55,597.81,197Z"/><path class="cls-5" d="M603.36,200.62a1.12,1.12,0,0,1,.2-1.05,3.63,3.63,0,0,1,1.24-1,6.23,6.23,0,0,1,1.83-.72,5.38,5.38,0,0,1,1.86-.12,4,4,0,0,1,1.63.51,2.28,2.28,0,0,1,.76.67,1,1,0,0,1,.22.75l-.94.23a1.38,1.38,0,0,0-.22-.69,1.54,1.54,0,0,0-.54-.5,3,3,0,0,0-1.75-.34,4.92,4.92,0,0,0-2,.68c-.68.39-1.06.78-1.16,1.16s.11.71.61,1a2.91,2.91,0,0,0,.86.32,7.73,7.73,0,0,0,1.21.13l-.41.54a4.93,4.93,0,0,1-1.31-.15,3.86,3.86,0,0,1-1.17-.45A1.75,1.75,0,0,1,603.36,200.62Z"/><path class="cls-5" d="M615.48,201.36l-.85.47a1.41,1.41,0,0,0-.42-.35,2.52,2.52,0,0,0-1.56-.31,3.79,3.79,0,0,0-1.58.52l-3.22,1.85-.78-.45,4-2.34q.87-.51,1.5-1l.75.43-1,.65a3.71,3.71,0,0,1,1.46-.16,2.91,2.91,0,0,1,1.23.36A1.35,1.35,0,0,1,615.48,201.36Z"/><path class="cls-5" d="M619.48,201l-1,.6-1-.55,1-.6Zm-3.27.87.79.46-5.64,3.25-.78-.46Z"/><path class="cls-5" d="M621.86,205.38a1.2,1.2,0,0,1-.24,1,4.06,4.06,0,0,1-1.26,1,6.68,6.68,0,0,1-1.81.73,5.37,5.37,0,0,1-1.8.16,3.71,3.71,0,0,1-1.51-.44,1.48,1.48,0,0,1-.71-.75.92.92,0,0,1,.18-.85l-1,.6-.78-.45,8.24-4.76.78.45-3.6,2.08a4.17,4.17,0,0,1,1.48-.11,3.42,3.42,0,0,1,1.3.41A1.52,1.52,0,0,1,621.86,205.38Zm-4.33,2.31a5.13,5.13,0,0,0,2-.71c.69-.39,1.08-.77,1.19-1.14s-.07-.69-.55-1a2.66,2.66,0,0,0-1.67-.32,4.92,4.92,0,0,0-2,.7,2.47,2.47,0,0,0-1.22,1.15c-.12.37.06.69.55,1A2.78,2.78,0,0,0,617.53,207.69Z"/><path class="cls-5" d="M625.63,210.52l-3.58-2.07c-.71.42-1.1.82-1.19,1.19s.14.72.68,1a4.62,4.62,0,0,0,2.23.52l-.4.54a6,6,0,0,1-1.37-.16,4.64,4.64,0,0,1-1.22-.48c-.76-.44-1.1-.93-1-1.48s.58-1.09,1.49-1.61a6.32,6.32,0,0,1,1.82-.71,5.58,5.58,0,0,1,1.85-.13,4,4,0,0,1,1.56.47c.65.38.91.81.79,1.31s-.61,1-1.47,1.48Zm-1.27-2.8a4.49,4.49,0,0,0-1.68.41l2.84,1.64c.49-.33.76-.64.8-.93s-.13-.56-.54-.79A2.54,2.54,0,0,0,624.36,207.72Z"/><path class="cls-5" d="M630.35,210.17l-1.16.67-1-.58,1.16-.67ZM626,212.68l-1.16.67-1-.58,1.16-.66Z"/><path class="cls-6" d="M333.47,400.29l-85.05-49.11c-1.81-1-1.58-2.87.51-4.08L266.4,337a7.86,7.86,0,0,1,7.08-.29l85,49.1c1.82,1.05,1.59,2.88-.5,4.09L340.55,400A7.89,7.89,0,0,1,333.47,400.29Z"/><path class="cls-3" d="M273.43,347.12l2.27,1.31c1,.58,1.49,1.22,1.43,1.9s-.66,1.35-1.79,2a7.49,7.49,0,0,1-3.48,1,6.08,6.08,0,0,1-3.29-.82l-2.27-1.31Zm-3.88,4.78a4.41,4.41,0,0,0,4.66-.22c1.67-1,1.8-1.86.37-2.68l-1.08-.63-5,2.91Z"/><path class="cls-3" d="M280.26,351.06l4.13,2.39-1,.59-3-1.76-2,1.14,2.85,1.65-1,.59L277.33,354l-2.09,1.21,3,1.75-1,.59-4.13-2.38Z"/><path class="cls-3" d="M286.19,359.2a1.81,1.81,0,0,1-.82.81,3.8,3.8,0,0,1-2,.5,4.37,4.37,0,0,1-2.07-.6l-2.8-1.62,7.13-4.12,2.72,1.57c.63.36,1,.75,1,1.15s-.24.77-.82,1.1a3.21,3.21,0,0,1-1.23.42,3.65,3.65,0,0,1-1.32-.06A.8.8,0,0,1,286.19,359.2Zm-2.46-2.67,1.44.84a2.06,2.06,0,0,0,2.16.09c.34-.19.49-.39.47-.6s-.23-.42-.63-.65l-1.44-.83Zm-.4,3.09a1.9,1.9,0,0,0,1.07-.29c.37-.21.55-.42.53-.63s-.22-.43-.63-.66l-1.58-.92-2.12,1.22,1.59.92A2.44,2.44,0,0,0,283.33,359.62Z"/><path class="cls-3" d="M291.85,357.75l1.12.65-7.14,4.12-1.12-.65Z"/><path class="cls-3" d="M294.91,360.74l-2-1.16L294,359l5.17,3-1.06.61-2-1.17L290,364.9l-1.13-.65Z"/><path class="cls-3" d="M308.73,367.49l-7.14,4.12-1-.57,4.43-2.55L299,370.1l-.74-.43,2.73-3.48-4.38,2.53-1-.57,7.14-4.12.88.51L300.15,369l7.69-2Z"/><path class="cls-3" d="M310.3,368.4l4.13,2.39-1,.59-3-1.76-2,1.14,2.86,1.65-1,.59-2.86-1.65-2.09,1.21,3,1.76-1,.59-4.13-2.39Z"/><path class="cls-3" d="M323.48,376l-7.14,4.12-.83-.48,1.67-4.81-5,2.89-1-.6,7.13-4.12.83.48-1.66,4.8,5-2.88Z"/><path class="cls-3" d="M319.45,381.51a1.42,1.42,0,0,1,.24-1.32,4.92,4.92,0,0,1,1.59-1.34,8.62,8.62,0,0,1,2.3-.91,6.63,6.63,0,0,1,2.29-.14,5,5,0,0,1,2,.65,2.31,2.31,0,0,1,1.13,1.16,1.41,1.41,0,0,1-.25,1.31,4.89,4.89,0,0,1-1.59,1.33,8.71,8.71,0,0,1-2.31.92,6.58,6.58,0,0,1-2.28.14,5,5,0,0,1-2-.64A2.26,2.26,0,0,1,319.45,381.51Zm4.16.94a6.17,6.17,0,0,0,2.43-.85c.84-.49,1.33-1,1.46-1.4s-.09-.83-.66-1.16a3.25,3.25,0,0,0-2-.38,6,6,0,0,0-2.42.84,3,3,0,0,0-1.48,1.41c-.13.44.09.83.66,1.16A3.28,3.28,0,0,0,323.61,382.45Z"/><path class="cls-3" d="M340.77,386l-9.33,2.86-.91-.53,3.58-3.85-6.7,2-.91-.53,4.95-5.37,1.14.65-3.78,4,6.93-2.15.8.46-3.79,4,6.94-2.19Z"/><g id="w4JYBX.tif"><path class="cls-5" d="M196.49,296l-1.55,2.05c-.63.82-1.26,1.65-1.88,2.48a8.65,8.65,0,0,0-.65.88c-.12.2-.31.27-.63.3l-1.33.14c-1.13.1-2.25.26-3.38.44h-.21l2.29-1.32,2.23-1.29-2.46-1.42-2.14,1.23-2.18,1.26L182.41,302c0-.29,0-.52,0-.75,0-.06,0-.12,0-.18s-.06-.19.15-.37l-.43-.12a6.5,6.5,0,0,1-1.85-.74,1.43,1.43,0,0,1-.77-1,1.15,1.15,0,0,1,.72-1.09,4,4,0,0,1,1.27-.58,3.74,3.74,0,0,1,2.44.17,3.37,3.37,0,0,1,1.33,1c.12.17.2.35.31.53a18.3,18.3,0,0,0,2-1.13,3.65,3.65,0,0,0-.84-.82,6,6,0,0,0-.95-.62,9.08,9.08,0,0,0-3-1,8,8,0,0,0-3.72.31,6,6,0,0,0-1.85,1,2.22,2.22,0,0,0-1,1.67,2,2,0,0,0,.62,1.41,5.53,5.53,0,0,0,1.54,1.17l.36.21a2.23,2.23,0,0,0-.65,1.32c-1-.24-1.93-.51-2.88-.76l-2.92-.79-2.86-.78-2.91-.79-2.89-.79,3.67-4.11,2.42,1.39a11.4,11.4,0,0,0,1.16-.64l1.13-.64.7.4a8.89,8.89,0,0,0,2,.76,5.11,5.11,0,0,0,1.59.18,4.49,4.49,0,0,0,2.73-.91c.71-.58.76-1.13.37-1.71a4,4,0,0,0-1.36-1.24l-3-1.74-.28-.15-7.22,4.18-.06,0,1.68-1.88,2.31-2.59,1.77-2c.66-.74,1.31-1.49,2-2.23l.24-.23,1.48.76c.52.27,1,.55,1.56.79.41.17.76.39,1.14.58s1,.55,1.55.79c.37.15.67.33,1,.5.53.28,1,.57,1.6.81s.76.42,1.18.6,1,.54,1.51.77.74.38,1.11.57c.54.27,1.05.57,1.63.82.42.19.76.42,1.18.6s.93.51,1.45.73.74.43,1.18.6c.64.24,1.08.6,1.72.85a7,7,0,0,1,1,.55.85.85,0,0,0,.25,0Zm-2.31.71a3,3,0,0,0-1.81-.39c-1.29.1-2.43,1-2.05,1.62a2.07,2.07,0,0,0,.29.39,3.12,3.12,0,0,0,3.11.3c.58-.24,1.17-.77,1-1.23A1.09,1.09,0,0,0,194.18,296.73Z"/><path class="cls-5" d="M211.46,313l-.64.14a3.81,3.81,0,0,1-2.19-.11,4.42,4.42,0,0,1-1.09-.53,2.91,2.91,0,0,1-.87-.79.62.62,0,0,1-.06-.53,1.55,1.55,0,0,1,.59-.82.42.42,0,0,1,.49-.07,3.41,3.41,0,0,1,.33.17l.9.5a1,1,0,0,1-.18.2c-.49.39-.05.84.52,1a1.19,1.19,0,0,0,.85-.08c.27-.13.34-.32.21-.48s-.42-.49-.64-.74a1.76,1.76,0,0,1-.49-.85c-.15-.79,1.19-1.45,2.38-1.37a4,4,0,0,1,1.61.42l.6.35a2,2,0,0,1,.6.51c.36.45.3.9-.32,1.35-.16.12-.19.13-.35,0l-.07,0a6.79,6.79,0,0,0-1-.5c-.24-.08-.22-.11-.08-.29.26-.35.09-.67-.44-.81l-.19,0c-.43,0-.74.13-.63.37a1.21,1.21,0,0,0,.29.36,3.88,3.88,0,0,1,.92,1.14.7.7,0,0,1-.09.8,3.11,3.11,0,0,1-.23.28Z"/><path class="cls-5" d="M178.86,305.24c-.45-.32-.72-.66-.53-1.14s.36-1.16.54-1.74l.24-.76c.08-.24.23-.34.62-.41a5.24,5.24,0,0,1,1.42-.06c.25,0,.38.11.38.26,0,.48,0,1,0,1.46,0,.23,0,.46,0,.69s.15.21.44.16c1.11-.2,2.22-.42,3.33-.61s2.42-.37,3.63-.54c.93-.13,1.86-.23,2.8-.32.78-.08,1.56-.13,2.33-.2.39,0,.79,0,1.17-.09a4,4,0,0,1,1.75.24,4.63,4.63,0,0,1,1.16.56c.07.05.16.12.14.17a.46.46,0,0,1-.4.14l-.74,0-1.8.07a19.69,19.69,0,0,0-2.17.22c-1.18.17-2.35.32-3.52.52-1.55.26-3.1.54-4.64.82l-4.51.88a1.76,1.76,0,0,1-.51,0A2.55,2.55,0,0,1,178.86,305.24Z"/><path class="cls-5" d="M201.23,302.21c.85.49,1.71,1,2.5,1.46.51.32.84.72.71,1.23a2,2,0,0,1-1,1.16,13.62,13.62,0,0,1-1.25.72,5,5,0,0,1-2.8.51,3,3,0,0,1-.76-.2,4.53,4.53,0,0,1-.92-.37c-.7-.42-1.42-.83-2.13-1.24C195.87,305.27,200.34,302.67,201.23,302.21Zm-2.83,3.39.59.34a1.91,1.91,0,0,0,1.68,0,5.25,5.25,0,0,0,1.34-.78c.42-.33.48-.62.14-.9a3.29,3.29,0,0,0-.69-.4Z"/><path class="cls-5" d="M202.44,307.32a5,5,0,0,1,1.2.56c.11.06.29.11.32.19s-.12.16-.19.25c-.26.29-.23.54.12.74a1.14,1.14,0,0,0,.67.23c.48,0,.84-.18.84-.46s-.14-.32-.27-.46a3.69,3.69,0,0,1-.82-1.07.76.76,0,0,1,.05-.7,2.77,2.77,0,0,1,2.33-.87,3.65,3.65,0,0,1,1.43.38,4.48,4.48,0,0,1,1.22.78c.55.55.38,1-.31,1.55,0,0-.06,0-.14.05l-.26-.15a4.83,4.83,0,0,0-.94-.46c-.23-.07-.22-.11-.11-.28a1,1,0,0,0,.13-.17.28.28,0,0,0-.08-.4,1.32,1.32,0,0,0-.42-.24.78.78,0,0,0-.38-.05c-.31,0-.67.19-.47.43s.31.33.46.5a7.63,7.63,0,0,1,.66.76.8.8,0,0,1-.14,1.12,3.76,3.76,0,0,1-2.71.78,4.51,4.51,0,0,1-2.71-1.28c-.46-.46-.3-.92.13-1.41A3.34,3.34,0,0,1,202.44,307.32Z"/><path class="cls-5" d="M175.47,292.37a3.28,3.28,0,0,1,.92.62c.21.29.15.51-.18.73a1.85,1.85,0,0,1-1.43.31,3.7,3.7,0,0,1-.64-.2c-.21-.1-.38-.21-.6-.34Z"/><path class="cls-5" d="M198,309.08l1.17-.41.6.34c-.28.18-.58.34-.87.51l-.86.5-.38-.18a11.31,11.31,0,0,0,1.12-.72l-1.18.42c-.23.08-.53,0-.57-.09s0-.07.07-.11c.26-.24.53-.49.76-.75l-1.16.67-.4-.24,1.72-1a2.53,2.53,0,0,1,.67.36L198,309Z"/><path class="cls-5" d="M205.44,314.31l-.08,0c-.31-.12-.39-.28-.24-.51a.82.82,0,0,0,.12-.55l-.84.49-.37-.21a10.21,10.21,0,0,1,1.72-1l.12,0c.3.1.3.27.2.46a1,1,0,0,0-.14.5l.77-.45.48.28Z"/><path class="cls-5" d="M195.17,308.4c-.51-.22-.45-.61.09-1a1.81,1.81,0,0,1,1.81-.07c.46.28.45.72-.11,1A1.7,1.7,0,0,1,195.17,308.4Zm1.22-.27.19-.11c.18-.14.2-.34.07-.43a1,1,0,0,0-.73,0,1.31,1.31,0,0,0-.37.27c-.11.11-.09.21,0,.29a.64.64,0,0,0,.55,0Z"/><path class="cls-5" d="M203.74,313.34l-.34-.19c-.08,0-.1-.09,0-.16s.07-.21-.09-.28-.13-.09-.22-.12a.54.54,0,0,0-.22,0,.44.44,0,0,1-.46,0l-.3-.17,2.15-.63a.37.37,0,0,1,.36,0,1.39,1.39,0,0,1,.27.17.12.12,0,0,1,0,.16q-.49.58-1,1.17S203.82,313.31,203.74,313.34Zm.41-1.12,0,0-.57.17c.24.21.26.21.46,0Z"/><path class="cls-5" d="M193.48,307.43c-.38-.17-.44-.47-.19-.75a1.91,1.91,0,0,1,1.37-.51c.75,0,1.15.5.92.77a.28.28,0,0,1-.32.1c-.14-.06-.31-.11-.27-.25s.06-.17-.13-.2a.94.94,0,0,0-.55,0,1,1,0,0,0-.5.35c-.12.19.08.34.42.31a1.37,1.37,0,0,1,.3,0,.77.77,0,0,1,.22.22c0,.05,0,.09-.11.12A1.3,1.3,0,0,1,193.48,307.43Z"/><path class="cls-5" d="M199.45,310.16l-.59.34-.47-.27,1.75-1,1,.55c.19.11.12.24,0,.37a1.08,1.08,0,0,1-1.07.24Zm.64-.36c-.17.1-.18.13-.06.2a.46.46,0,0,0,.41,0c.12-.07.12-.16,0-.24S200.26,309.7,200.09,309.8Z"/><path class="cls-5" d="M190.23,304.31l-.75,1c-.1.13-.16.15-.36.1l-1.6-.45-.27-.07A22.49,22.49,0,0,1,190.23,304.31Z"/><path class="cls-5" d="M207.53,314l-.49-.28.39-.23c.51.26,1,.54,1.45.82l-.4.24-.48-.28-1.35.79-.48-.28Z"/><path class="cls-5" d="M200.85,311.13l.77.44-.46.27-1.22-.71c.24-.18.57-.33.85-.5l.86-.5a1.56,1.56,0,0,1,.5.25Z"/><path class="cls-5" d="M203.63,311.24l-1.73,1s-.1,0-.13,0c-.4-.21-.4-.21,0-.47l1.3-.75A1.54,1.54,0,0,1,203.63,311.24Z"/></g><path class="cls-1" d="M709.9,224.83,461.1,81.18,561.18,23.41c6.18-3.57,15.53-4,20.89-.87L811.47,155c5.36,3.09,4.68,8.49-1.5,12.06Z"/><path class="cls-3" d="M600.05,139.93l1.11-1.39-3.1-1.79-2.42.63-.71-.41,9.47-2.45.6.35-4.25,5.46ZM599,136.51l2.62,1.51,2.21-2.79Z"/><path class="cls-3" d="M609.91,140l-4.85,2.79-.66-.38.84-.48A3.7,3.7,0,0,1,604,142a2.66,2.66,0,0,1-1-.34c-.5-.28-.71-.59-.65-.93s.42-.68,1-1l3-1.74.68.4-3,1.72c-.44.25-.68.48-.73.69s.09.4.4.59a2.43,2.43,0,0,0,1.32.28,3.31,3.31,0,0,0,1.45-.44l2.73-1.58Z"/><path class="cls-3" d="M611.49,141.65l-2.64,1.53c-.36.21-.55.39-.57.55s.09.3.33.44a2,2,0,0,0,.53.21l-.66.38a2.51,2.51,0,0,1-.68-.28c-.4-.23-.58-.49-.55-.77s.31-.56.81-.86l2.76-1.59-.82-.47.62-.35.81.47,1.25-.72,1,.23-1.52.88,1.2.69-.61.36Z"/><path class="cls-3" d="M610.22,145.52a1,1,0,0,1,.18-.91,3.3,3.3,0,0,1,1.08-.91,5.59,5.59,0,0,1,1.58-.62,4.68,4.68,0,0,1,1.57-.11,3.46,3.46,0,0,1,1.35.43,1.49,1.49,0,0,1,.73.78,1,1,0,0,1-.18.91,3.3,3.3,0,0,1-1.08.91,5.65,5.65,0,0,1-1.57.62,4.76,4.76,0,0,1-1.58.11,3.51,3.51,0,0,1-1.35-.43A1.49,1.49,0,0,1,610.22,145.52Zm2.81.69a4.51,4.51,0,0,0,1.73-.61,2.08,2.08,0,0,0,1-1c.1-.32-.06-.6-.47-.83a2.36,2.36,0,0,0-1.44-.28,4.49,4.49,0,0,0-1.72.6c-.61.35-1,.68-1,1s.07.59.49.83A2.34,2.34,0,0,0,613,146.21Z"/><path class="cls-3" d="M623.15,149.75l-3,1.76-.67-.39,3-1.74c.46-.26.72-.49.79-.69s-.05-.38-.35-.56a2.08,2.08,0,0,0-1.25-.24,3.33,3.33,0,0,0-1.43.48L617.43,150l-.68-.39,3-1.73q.68-.39.78-.69c.07-.21,0-.39-.35-.57a2.06,2.06,0,0,0-1.25-.25,3.62,3.62,0,0,0-1.43.48l-2.77,1.6-.67-.39,3.48-2c.5-.29.93-.56,1.29-.82l.65.37-.78.53a3.47,3.47,0,0,1,1.23-.11,2.49,2.49,0,0,1,1.05.32,1.12,1.12,0,0,1,.59.6.71.71,0,0,1-.25.68,4.11,4.11,0,0,1,1.26-.07,2.85,2.85,0,0,1,1.09.34C624.6,148.38,624.42,149,623.15,149.75Z"/><path class="cls-3" d="M629.93,151.59l-4.85,2.79-.66-.38.87-.51a3.54,3.54,0,0,1-1.25.08,2.73,2.73,0,0,1-1.11-.35,1.31,1.31,0,0,1-.67-.75,1,1,0,0,1,.22-.88,3.51,3.51,0,0,1,1.08-.89,5.94,5.94,0,0,1,1.56-.63,4.91,4.91,0,0,1,1.55-.13,3.09,3.09,0,0,1,1.29.37,1.27,1.27,0,0,1,.61.64.8.8,0,0,1-.15.73l.84-.48Zm-4.78,1.6a4.32,4.32,0,0,0,1.71-.61,2.13,2.13,0,0,0,1-1c.09-.32-.06-.59-.47-.83a2.34,2.34,0,0,0-1.46-.27,4.43,4.43,0,0,0-1.73.6,2.08,2.08,0,0,0-1,1c-.09.31.07.59.49.83A2.29,2.29,0,0,0,625.15,153.19Z"/><path class="cls-3" d="M631.52,153.22l-2.65,1.53c-.36.2-.54.39-.56.54s.09.31.32.44a2.17,2.17,0,0,0,.54.21l-.66.39a2.73,2.73,0,0,1-.68-.29c-.4-.23-.59-.48-.55-.76s.3-.57.81-.86l2.76-1.59-.82-.47.62-.36.81.47,1.25-.72.95.23-1.52.88,1.2.7-.62.35Z"/><path class="cls-3" d="M635.27,157.44l-3.08-1.78q-.91.54-1,1c-.08.32.12.62.58.88a3.94,3.94,0,0,0,1.92.46l-.34.45a4.36,4.36,0,0,1-1.18-.13,3.83,3.83,0,0,1-1-.41c-.66-.38-1-.8-.88-1.28s.5-.93,1.28-1.38a5.51,5.51,0,0,1,1.56-.61,4.86,4.86,0,0,1,1.6-.11A3.3,3.3,0,0,1,636,155c.56.32.78.69.68,1.12a2.48,2.48,0,0,1-1.26,1.28ZM634.18,155a3.84,3.84,0,0,0-1.45.35l2.44,1.41c.42-.28.66-.55.7-.8s-.12-.48-.47-.68A2.32,2.32,0,0,0,634.18,155Z"/><path class="cls-3" d="M644.63,157.48l-7.08,4.1-.67-.39.87-.5a3.54,3.54,0,0,1-1.25.08,2.9,2.9,0,0,1-1.11-.36,1.26,1.26,0,0,1-.65-.74,1.07,1.07,0,0,1,.23-.89,3.36,3.36,0,0,1,1.1-.9,5.82,5.82,0,0,1,1.54-.63,4.76,4.76,0,0,1,1.53-.13,3.26,3.26,0,0,1,1.28.39,1.23,1.23,0,0,1,.61.64.76.76,0,0,1-.13.71l3.06-1.77Zm-7,2.9a4.29,4.29,0,0,0,1.71-.6,2.07,2.07,0,0,0,1-1c.1-.31-.05-.59-.46-.83a2.37,2.37,0,0,0-1.45-.27,4.1,4.1,0,0,0-1.7.58,2.15,2.15,0,0,0-1,1c-.1.33.06.61.47.85A2.35,2.35,0,0,0,637.61,160.38Z"/><path class="cls-3" d="M648,159.68l2.37,1.37c.61.35.92.72.92,1.12s-.29.76-.89,1.11a3.84,3.84,0,0,1-1.93.51,3.79,3.79,0,0,1-1.94-.52l-1.69-1-3,1.74-.69-.39Zm-.88,3.17a2.47,2.47,0,0,0,2.6,0c.41-.24.62-.49.61-.74s-.23-.51-.67-.76l-1.63-.94-2.53,1.46Z"/><path class="cls-3" d="M654.87,166l-4.85,2.8-.66-.38.87-.51A3.54,3.54,0,0,1,649,168a2.89,2.89,0,0,1-1.11-.35,1.31,1.31,0,0,1-.67-.75,1,1,0,0,1,.22-.88,3.44,3.44,0,0,1,1.09-.89,5.74,5.74,0,0,1,1.55-.63,4.91,4.91,0,0,1,1.55-.13,3.09,3.09,0,0,1,1.29.37,1.27,1.27,0,0,1,.61.64.77.77,0,0,1-.15.73l.84-.48Zm-4.78,1.61a4.32,4.32,0,0,0,1.71-.61,2.13,2.13,0,0,0,1.05-1c.1-.32-.06-.59-.47-.83a2.34,2.34,0,0,0-1.46-.27,4.43,4.43,0,0,0-1.73.6,2.11,2.11,0,0,0-1,1c-.09.32.07.6.49.84A2.29,2.29,0,0,0,650.09,167.59Z"/><path class="cls-3" d="M659.86,168.87l-7.24,1.92a6.55,6.55,0,0,1-2,.25,5.49,5.49,0,0,1-1.68-.36l.46-.43a4.91,4.91,0,0,0,1.31.28,4.2,4.2,0,0,0,1.29-.16l.6-.15,3-3.8.71.41L653.76,170l5.43-1.48Z"/><path class="cls-3" d="M664.85,173.83l-3,1.76-.68-.39,3-1.74c.46-.26.72-.49.79-.69s0-.38-.36-.56a2,2,0,0,0-1.25-.24,3.45,3.45,0,0,0-1.42.47l-2.77,1.6-.67-.39,3-1.73c.45-.26.71-.49.78-.7s0-.38-.35-.56a2.1,2.1,0,0,0-1.26-.25,3.51,3.51,0,0,0-1.43.48l-2.76,1.59-.68-.38,3.49-2c.5-.29.93-.56,1.29-.82l.64.37-.78.53a3.54,3.54,0,0,1,1.24-.11,2.4,2.4,0,0,1,1.05.32,1.16,1.16,0,0,1,.59.6.76.76,0,0,1-.25.68,4.07,4.07,0,0,1,1.25-.07,2.84,2.84,0,0,1,1.1.34C666.31,172.45,666.13,173.09,664.85,173.83Z"/><path class="cls-3" d="M669.05,176.94,666,175.17q-.91.54-1,1c-.07.32.12.61.58.88a4.06,4.06,0,0,0,1.92.45l-.34.46a4.42,4.42,0,0,1-1.18-.14,3.83,3.83,0,0,1-1-.4c-.66-.38-1-.81-.88-1.28s.5-.93,1.28-1.38a5.71,5.71,0,0,1,1.57-.62,5.08,5.08,0,0,1,1.59-.11,3.3,3.3,0,0,1,1.34.41c.56.32.78.7.68,1.12s-.52.85-1.26,1.28ZM668,174.53a4.06,4.06,0,0,0-1.45.36L669,176.3c.43-.29.66-.55.7-.8s-.12-.48-.47-.68A2.21,2.21,0,0,0,668,174.53Z"/><path class="cls-3" d="M674.28,179.27l-3,1.76-.68-.39,3-1.74c.45-.26.71-.49.76-.7s-.09-.41-.42-.61a2.49,2.49,0,0,0-1.35-.3,3.31,3.31,0,0,0-1.47.45l-2.77,1.6-.68-.39,3.49-2c.5-.29.93-.57,1.29-.83l.64.37-.8.54a3.84,3.84,0,0,1,1.3-.09,2.94,2.94,0,0,1,1.14.36C675.69,177.87,675.56,178.53,674.28,179.27Z"/><path class="cls-3" d="M677.64,179.84,675,181.37c-.36.21-.55.39-.56.55s.09.3.32.44a2.17,2.17,0,0,0,.54.21l-.66.38a2.38,2.38,0,0,1-.68-.28c-.4-.23-.59-.49-.55-.77s.3-.56.81-.86l2.76-1.59-.82-.47.61-.35.82.47,1.24-.72,1,.23-1.52.88,1.2.69-.62.36Z"/><path class="cls-3" d="M686,185.4l-3.18,1.84a7,7,0,0,1-1.26-.33,8.87,8.87,0,0,1-1.28-.59,2.34,2.34,0,0,1-1.11-1.13,1.35,1.35,0,0,1,.23-1.26,4.77,4.77,0,0,1,1.55-1.28,8.07,8.07,0,0,1,2.21-.89,6.5,6.5,0,0,1,2.18-.14,4.89,4.89,0,0,1,1.9.62,2.76,2.76,0,0,1,.93.79,1.19,1.19,0,0,1,.25.89l-.87.2a1.66,1.66,0,0,0-.24-.85,2.18,2.18,0,0,0-.74-.64,3.71,3.71,0,0,0-2.27-.47,6.41,6.41,0,0,0-2.64.89c-.93.54-1.45,1.06-1.57,1.55s.17.94.87,1.34a6.49,6.49,0,0,0,1.7.67l2.09-1.21-1.48-.85.63-.36Z"/><path class="cls-3" d="M692.25,187.56l-4.85,2.8-.67-.38.88-.51a3.54,3.54,0,0,1-1.25.08,2.84,2.84,0,0,1-1.11-.35,1.31,1.31,0,0,1-.67-.75,1,1,0,0,1,.22-.88,3.51,3.51,0,0,1,1.08-.89,5.81,5.81,0,0,1,1.56-.63,4.88,4.88,0,0,1,1.55-.13,3.09,3.09,0,0,1,1.29.37,1.25,1.25,0,0,1,.6.64.8.8,0,0,1-.14.73l.84-.48Zm-4.79,1.61a4.36,4.36,0,0,0,1.72-.61,2.1,2.1,0,0,0,1-1c.1-.32-.05-.59-.47-.83a2.32,2.32,0,0,0-1.46-.27,4.38,4.38,0,0,0-1.72.6c-.59.34-.94.67-1,1s.07.6.49.84A2.27,2.27,0,0,0,687.46,189.17Z"/><path class="cls-3" d="M693.84,189.2l-2.65,1.53c-.36.2-.55.39-.56.54s.09.31.32.44a2.17,2.17,0,0,0,.54.21l-.67.38a2.64,2.64,0,0,1-.68-.28c-.4-.23-.58-.48-.54-.76s.3-.57.81-.86l2.75-1.59-.81-.48L693,188l.82.47,1.24-.72,1,.23-1.52.88,1.2.69-.62.36Z"/><path class="cls-3" d="M697.59,193.42l-3.08-1.78c-.61.36-1,.7-1,1s.13.62.59.88A3.94,3.94,0,0,0,696,194l-.35.45a4.33,4.33,0,0,1-1.17-.13,4.26,4.26,0,0,1-1.06-.41c-.65-.38-.94-.8-.87-1.28s.5-.93,1.28-1.38a5.51,5.51,0,0,1,1.56-.61,4.82,4.82,0,0,1,1.59-.11,3.19,3.19,0,0,1,1.35.41c.55.32.78.69.68,1.12s-.53.85-1.27,1.27ZM696.5,191a3.79,3.79,0,0,0-1.45.35l2.44,1.41c.42-.28.65-.55.69-.8s-.11-.48-.46-.68A2.32,2.32,0,0,0,696.5,191Z"/><path class="cls-3" d="M706.67,195.89l.66.39-6.39,1.9-.65-.38,2.58-2.88-5,1.5-.65-.38,3.3-3.69.71.41-2.73,2.94,5.14-1.55.59.34-2.71,3Z"/><path class="cls-3" d="M711.86,198.89,707,201.68l-.67-.38.88-.51a3.32,3.32,0,0,1-1.25.08,2.68,2.68,0,0,1-1.11-.35,1.28,1.28,0,0,1-.67-.75,1,1,0,0,1,.22-.87,3.38,3.38,0,0,1,1.08-.9,5.81,5.81,0,0,1,1.56-.63,4.88,4.88,0,0,1,1.55-.13,3,3,0,0,1,1.29.38,1.18,1.18,0,0,1,.6.64.78.78,0,0,1-.14.72l.84-.48Zm-4.79,1.6a4.49,4.49,0,0,0,1.72-.6,2.15,2.15,0,0,0,1-1c.1-.32-.05-.59-.47-.83a2.32,2.32,0,0,0-1.46-.27,4.38,4.38,0,0,0-1.72.6c-.6.34-.94.67-1,1s.07.59.49.83A2.27,2.27,0,0,0,707.07,200.49Z"/><path class="cls-3" d="M716.85,201.77l-7.25,1.92a6.22,6.22,0,0,1-2,.25,5.93,5.93,0,0,1-1.68-.35l.47-.44a5,5,0,0,0,1.3.29,4.49,4.49,0,0,0,1.29-.17l.6-.15,3-3.8.71.41-2.58,3.13,5.44-1.48Z"/><path class="cls-3" d="M520.36,93.91q-2.86-1.65-2.64-3.87t3.62-4.18l.39-.22a17.45,17.45,0,0,1,4.82-1.91,14.86,14.86,0,0,1,4.92-.35,10.22,10.22,0,0,1,4.15,1.28q2.68,1.55,2.27,3.56c-.27,1.35-1.61,2.71-4,4.09l-1.65,1-8.32-4.81a2.75,2.75,0,0,0-1.35,2c0,.67.39,1.26,1.26,1.76a7.73,7.73,0,0,0,4.84.85l-.5,2.27a13.3,13.3,0,0,1-4.13-.08A11.15,11.15,0,0,1,520.36,93.91Zm12-7.38a4.33,4.33,0,0,0-2.49-.51,9.13,9.13,0,0,0-3.16.87l4.86,2.8.32-.19c.88-.52,1.36-1,1.45-1.56S533.1,87,532.36,86.53Zm19.44,9.81c.45-1.3-.13-2.41-1.72-3.33a8,8,0,0,0-4.81-.89L554,87.05c-2.48.07-5.31.3-8.12.66L528,98l3.14,1.81L533,99c-.42,1.22.09,2.24,1.5,3a9.18,9.18,0,0,0,5.78,1,18.13,18.13,0,0,0,7-2.49l.23-.13C549.91,99,551.35,97.64,551.8,96.34ZM541,99.84a4.93,4.93,0,0,1-4.14-.17c-1.12-.65-1.37-1.4-.73-2.26L542.05,94a5,5,0,0,1,3.87.41c.83.48,1.11,1,.82,1.68a6.56,6.56,0,0,1-2.71,2.3A17.89,17.89,0,0,1,541,99.84Zm16.12-2.46-15.33,8.85a71.83,71.83,0,0,1,7.27-.15L560.6,99.4Zm8.58-1.29c0-.43-.24-.81-.84-1.16a3.76,3.76,0,0,0-2-.49,4.33,4.33,0,0,0-2,.56c-.61.36-.94.75-1,1.18s.24.82.83,1.16a3.75,3.75,0,0,0,2,.48,4.18,4.18,0,0,0,2-.55A1.67,1.67,0,0,0,565.67,96.09Zm6.07,5.08-4,2.33,2.23,1.29L567,106.5l-2.24-1.29-7.53,4.34c-.56.33-.86.61-.92.86s.18.52.7.82a8.23,8.23,0,0,0,1.13.54l-3.06,1.76a10.64,10.64,0,0,1-2.47-1q-3.68-2.13.53-4.64l8.13-4.69-1.91-1.1,3-1.71,1.91,1.1h0l4-2.34Zm10.37,4.62L571.9,116.9l19.22-5.9,4.75,2.74-20.3,11.73-3.63-2.1,5.55-3.21,9.94-5.32-19.88,6-2.49-1.44,10.39-11.46-9.21,5.73-1.89,1.09-3.66,2.12-3.62-2.1,20.3-11.72Zm1.82,24.82q-2.88-1.65-2.64-3.87t3.62-4.18l.39-.22a17.45,17.45,0,0,1,4.82-1.91,14.84,14.84,0,0,1,4.92-.35,10.27,10.27,0,0,1,4.15,1.28c1.79,1,2.54,2.22,2.27,3.56s-1.61,2.71-4,4.09l-1.64,1-8.32-4.81a2.69,2.69,0,0,0-1.35,2c0,.67.39,1.26,1.26,1.76a7.71,7.71,0,0,0,4.84.85l-.5,2.27a13.3,13.3,0,0,1-4.13-.07A11.16,11.16,0,0,1,583.93,130.61Zm12-7.38a4.37,4.37,0,0,0-2.5-.51,9.37,9.37,0,0,0-3.15.87l4.85,2.8.33-.18c.88-.53,1.36-1,1.45-1.57S596.67,123.65,595.93,123.23Zm-68.58-45.3a93.31,93.31,0,0,0-17.12,2.41,6.18,6.18,0,0,1-3.84-.12h0a.08.08,0,0,1,0-.13c1.66-1.55,3.85-4.2,3.12-5.24a.08.08,0,0,1,0-.11.3.3,0,0,1,.16,0,6.56,6.56,0,0,1,3.38.39c.85.49-.39,2.05-1.14,3a73.63,73.63,0,0,1,15.67-1.19c.18-2-.94-4-3.42-5.39l-7.24-4.18L495.56,79.59l7.23,4.17a18.24,18.24,0,0,0,9.66,2,22.8,22.8,0,0,0,10.26-2.8C525.23,81.49,526.78,79.72,527.35,77.93Z"/><ellipse class="cls-3" cx="568.6" cy="31.47" rx="2.77" ry="1.57" transform="translate(0.37 69.02) rotate(-6.95)"/><ellipse class="cls-3" cx="573.13" cy="34.09" rx="2.77" ry="1.57" transform="translate(0.09 69.59) rotate(-6.95)"/><ellipse class="cls-3" cx="577.67" cy="36.7" rx="2.77" ry="1.57" transform="translate(-0.2 70.16) rotate(-6.95)"/><path class="cls-3" d="M583.72,38.44c.73.42.64,1.16-.2,1.64a3.16,3.16,0,0,1-2.85.12c-.72-.42-.63-1.16.21-1.64a3.14,3.14,0,0,1,2.84-.12m.56-.32a4.29,4.29,0,0,0-3.89.16c-1.15.66-1.27,1.67-.28,2.24a4.29,4.29,0,0,0,3.89-.16c1.15-.66,1.28-1.67.28-2.24Z"/><path class="cls-3" d="M588.25,41.06c.73.42.64,1.15-.2,1.64a3.17,3.17,0,0,1-2.84.12c-.73-.42-.64-1.16.2-1.64a3.14,3.14,0,0,1,2.84-.12m.56-.33a4.31,4.31,0,0,0-3.88.17c-1.15.66-1.28,1.66-.28,2.24a4.33,4.33,0,0,0,3.89-.16c1.15-.67,1.27-1.67.27-2.25Z"/><path class="cls-3" d="M597.47,45.46a1.5,1.5,0,0,1-.76,1.11l-.67-.39a1.07,1.07,0,0,0,.45-.78c0-.26-.2-.5-.61-.74a3,3,0,0,0-1.82-.34,5.76,5.76,0,0,0-2.34.83,2.7,2.7,0,0,0-1.27,1.21c-.16.41,0,.77.58,1.08a2.75,2.75,0,0,0,1.83.27,5.55,5.55,0,0,0,1.26-.36l.67.39a6,6,0,0,1-2.16.56,4.1,4.1,0,0,1-2.39-.5,1.38,1.38,0,0,1-.85-1.21c0-.63.61-1.27,1.76-1.93a6.57,6.57,0,0,1,2.74-.9,4.35,4.35,0,0,1,2.68.49C597.21,44.62,597.51,45,597.47,45.46Z"/><path class="cls-3" d="M598.22,49.21a.8.8,0,0,0,.5,0,1.08,1.08,0,0,0,.32-.14c.25-.14.36-.29.32-.44s-.21-.31-.49-.47a1.59,1.59,0,0,0-1-.23,2.07,2.07,0,0,0-.66.21l-.58-.34a2.65,2.65,0,0,1,1.56-.38,3.09,3.09,0,0,1,1.31.39,1.53,1.53,0,0,1,.78.79c.07.26-.09.52-.5.75l-2.48,1.44c-.08,0-.13.08-.14.12s0,.09.1.14a.46.46,0,0,0,.1,0l.13.06-.54.31-.28-.1a1.12,1.12,0,0,1-.22-.11c-.22-.13-.29-.27-.21-.43a1,1,0,0,1,.29-.29,3.75,3.75,0,0,1-1,0,2.67,2.67,0,0,1-1-.33c-.34-.2-.51-.43-.48-.7a1,1,0,0,1,.58-.72,2.49,2.49,0,0,1,1.25-.35,3.19,3.19,0,0,1,1.26.26Zm-3.28.37a.53.53,0,0,0,.29.38,2.92,2.92,0,0,0,.82.27,2.23,2.23,0,0,0,1.49-.26l.58-.33-.44-.09a3.54,3.54,0,0,1-.43-.16l-.44-.19a2.5,2.5,0,0,0-.68-.2,1.39,1.39,0,0,0-.89.18C595,49.3,594.93,49.44,594.94,49.58Z"/><path class="cls-3" d="M602.1,49.48l.59.35-.74.43a3.56,3.56,0,0,1,.89-.1,1.79,1.79,0,0,1,1,.2l.05,0,.13.1-.77.44a.27.27,0,0,0-.08-.07l-.1-.06a1.79,1.79,0,0,0-1.08-.22,2.74,2.74,0,0,0-1.07.32l-2.48,1.43-.63-.36Z"/><path class="cls-3" d="M604.65,51l.6.34-.75.43a4.2,4.2,0,0,1,.89-.1,1.86,1.86,0,0,1,1,.2l.06,0,.13.09-.77.44-.09-.06-.09-.07a1.8,1.8,0,0,0-1.09-.21,2.4,2.4,0,0,0-1.06.32L601,53.81l-.63-.36Z"/><path class="cls-3" d="M608.79,51.5l.64.37-.82.47L608,52Zm-1.62.94.64.36-4.29,2.48-.64-.37Z"/><path class="cls-3" d="M611.15,54.84a.74.74,0,0,1,0,.65,1.68,1.68,0,0,1-.51.59,7.69,7.69,0,0,1-.89.58L607,55.09a1.8,1.8,0,0,0-.79.76c-.1.25,0,.48.37.68a2.07,2.07,0,0,0,1.16.23,2.58,2.58,0,0,0,.73-.16l.62.36a3.18,3.18,0,0,1-.69.21,4.9,4.9,0,0,1-.78.1,3.25,3.25,0,0,1-1.14-.16,2.9,2.9,0,0,1-.58-.25,1,1,0,0,1-.58-1c.06-.41.45-.82,1.16-1.23a5.07,5.07,0,0,1,2.17-.69,3.29,3.29,0,0,1,1.92.36A1.34,1.34,0,0,1,611.15,54.84ZM609.68,56a1.66,1.66,0,0,0,.57-.54c.18-.29.07-.56-.33-.79a1.89,1.89,0,0,0-1.08-.21,3.06,3.06,0,0,0-1.22.35Z"/><path class="cls-3" d="M613.13,55.85l.59.34-.74.44a3.56,3.56,0,0,1,.89-.1,1.77,1.77,0,0,1,1,.2l0,0,.13.1-.76.44-.09-.07-.1-.06A1.72,1.72,0,0,0,613,57a2.58,2.58,0,0,0-1.07.32l-2.48,1.43-.63-.36Z"/><path class="cls-3" d="M668.05,90.69c-.4.25-.54.5-.44.74a.71.71,0,0,0,.32.33,2.08,2.08,0,0,0,1.25.2,7.7,7.7,0,0,0,2.29-.78,3.13,3.13,0,0,1-1.1,0,2.53,2.53,0,0,1-.85-.31c-.5-.28-.71-.62-.65-1a1.7,1.7,0,0,1,1-1,4.56,4.56,0,0,1,1.87-.58,3.09,3.09,0,0,1,1.89.37c.75.44.88,1,.38,1.59a4.81,4.81,0,0,1-1.38,1.07,10.29,10.29,0,0,1-2.23,1,3.87,3.87,0,0,1-3-.11c-.51-.3-.74-.61-.7-.94a1.37,1.37,0,0,1,.76-.89Zm3.22.1a2.55,2.55,0,0,0,1.35-.41c.44-.25.67-.5.7-.73s-.12-.44-.41-.61a1.91,1.91,0,0,0-1.13-.23,3,3,0,0,0-1.27.41c-.39.23-.62.45-.68.68s.08.44.44.65A2.08,2.08,0,0,0,671.27,90.79Z"/><path class="cls-3" d="M675.17,91.37l.75.44-.91.53-.76-.44Zm-3.51,2,.76.43-.92.53-.75-.44Z"/><path class="cls-3" d="M674,94.26a5.83,5.83,0,0,1,2-.06l1.15.14a8.37,8.37,0,0,0,1.19.07,2.41,2.41,0,0,0,1.1-.29c.35-.2.53-.42.56-.64s-.12-.42-.42-.6a2,2,0,0,0-1.51-.19,4.07,4.07,0,0,0-1,.41l-.66-.38a5.22,5.22,0,0,1,1.53-.59,3.3,3.3,0,0,1,2.36.36c.6.34.84.7.75,1.07a1.65,1.65,0,0,1-.83,1,3.73,3.73,0,0,1-1.67.45,10,10,0,0,1-1.62-.11l-.82-.1a7.75,7.75,0,0,0-1-.07,3.47,3.47,0,0,0-1.26.2l2.83,1.63-.71.41-3.56-2.05A6.74,6.74,0,0,1,674,94.26Z"/><path class="cls-3" d="M681.43,95.2l.58-.34a4.64,4.64,0,0,0,1.25.42,3.1,3.1,0,0,0,1.29-.27l.52.3-6,3.44-.69-.4,4.24-2.45Z"/><path class="cls-3" d="M690.88,98.46l.81.47-4.21,4.66-.79-.46,1.3-1.37-2.1-1.22-2.41.73-.74-.42Zm-2.44,2.77,1.91-2-3.58,1.07Z"/><path class="cls-3" d="M694.45,100.52l1,.59L691.82,105l6.71-2.12,1,.59L693.41,107l-.69-.4,3.63-2.09.63-.36.94-.53-6.7,2.11-.71-.41,3.64-3.87-.19.1-.67.41-.67.4L689,104.46l-.68-.4Z"/><path class="cls-3" d="M765.56,143.77l.58-.33a4.23,4.23,0,0,0,1.25.41,2.84,2.84,0,0,0,1.3-.27l.51.3-6,3.44-.7-.4,4.24-2.44Z"/><path class="cls-3" d="M772.82,147.05a4.84,4.84,0,0,1-1.68,1.37,8.89,8.89,0,0,1-2.33,1,3.46,3.46,0,0,1-2.64-.2c-.62-.36-.78-.8-.45-1.34a4.73,4.73,0,0,1,1.71-1.43,9.41,9.41,0,0,1,2-.88,3.62,3.62,0,0,1,2.91.11C773,146,773.16,146.51,772.82,147.05ZM768.18,149a6.88,6.88,0,0,0,2.23-.94,5.89,5.89,0,0,0,1.46-1.09c.29-.34.23-.63-.19-.87a2,2,0,0,0-1.46-.13,8,8,0,0,0-2.11.91,5.44,5.44,0,0,0-1.3,1c-.4.43-.38.76,0,1A2,2,0,0,0,768.18,149Z"/><path class="cls-3" d="M777.13,149.54a5,5,0,0,1-1.68,1.37,8.89,8.89,0,0,1-2.33,1,3.46,3.46,0,0,1-2.64-.2c-.62-.36-.78-.81-.45-1.34a4.63,4.63,0,0,1,1.71-1.43,8.93,8.93,0,0,1,2-.88,3.62,3.62,0,0,1,2.91.1C777.3,148.53,777.47,149,777.13,149.54Zm-4.64,1.92a7.11,7.11,0,0,0,2.23-.94,5.65,5.65,0,0,0,1.46-1.1c.29-.33.23-.62-.19-.86a1.93,1.93,0,0,0-1.47-.13,8.05,8.05,0,0,0-2.1.91,5.44,5.44,0,0,0-1.3.95c-.4.43-.38.76,0,1A2,2,0,0,0,772.49,151.46Z"/><path class="cls-3" d="M780.72,151.21a1.16,1.16,0,0,1-.66.8,2.89,2.89,0,0,1-1.4.38,2.27,2.27,0,0,1-1.32-.27.74.74,0,0,1-.46-.76,1.16,1.16,0,0,1,.66-.8,3,3,0,0,1,1.4-.38,2.3,2.3,0,0,1,1.31.26A.75.75,0,0,1,780.72,151.21Zm-2,.73a1.86,1.86,0,0,0,.83-.22.69.69,0,0,0,.38-.48.43.43,0,0,0-.27-.45,1.45,1.45,0,0,0-.78-.16,1.86,1.86,0,0,0-.83.22.68.68,0,0,0-.39.48.46.46,0,0,0,.27.45A1.38,1.38,0,0,0,778.72,151.94Zm4.72.16.4.24-9,1.86-.4-.24Zm-2.06,2.83a1.16,1.16,0,0,1-.66.8,3,3,0,0,1-1.4.39,2.44,2.44,0,0,1-1.32-.27.75.75,0,0,1-.46-.76,1.1,1.1,0,0,1,.66-.81,3,3,0,0,1,1.4-.38,2.27,2.27,0,0,1,1.32.27A.74.74,0,0,1,781.38,154.93Zm-2,.73a1.86,1.86,0,0,0,.83-.22.73.73,0,0,0,.39-.48.45.45,0,0,0-.28-.45,1.43,1.43,0,0,0-.78-.16,1.82,1.82,0,0,0-.83.22.68.68,0,0,0-.39.48.46.46,0,0,0,.28.46A1.42,1.42,0,0,0,779.38,155.66Z"/><path class="cls-7" d="M619.28,62.8c.24-.8-.83-1.41-2.22-1.28l-.17,1.38,2.39-.1Z"/><path class="cls-7" d="M620.84,62.74l1.66-.07c.22-1.78-2.1-3.12-5.18-3l-.12,1C619.36,60.54,621,61.49,620.84,62.74Z"/><path class="cls-7" d="M625.62,62.54l-1.65.07c.25-2.24-2.69-3.94-6.55-3.78l.12-1c4.78-.19,8.4,1.9,8.08,4.67Z"/><path class="cls-3" d="M795.83,159.52l2.59,1.49-5.12,3-11-6.34,5.13-3Zm0,4.3-.59-.34-2,1.16-12.12-7,6.28-3.63,12.13,7-2,1.15.57.33Zm3-1.67-.09-.05,1.32-.77c.37-.21.41-.53.11-.7l-12.13-7a1.37,1.37,0,0,0-1.23.05l-6.28,3.63c-.37.21-.41.53-.09.71l12.12,7a1.35,1.35,0,0,0,1.22-.06l1.32-.76.09.05a1.27,1.27,0,0,0,1.13-.08l2.38-1.37c.35-.2.4-.5.13-.65Z"/></svg>